<svg version="1.1" xmlns="http://www.w3.org/2000/svg" xmlns:xlink="http://www.w3.org/1999/xlink" x="0px" y="0px"
	 viewBox="0 0 554.4 658.8" style="enable-background:new 0 0 554.4 658.8;" xml:space="preserve">
<style type="text/css">
	.st0{fill:#EBE9EB;}
	.st1{fill:#E1DEDB;}
	.st2{fill:none;stroke:#EAE3E1;}
	.st3{fill:#D3C8C5;}
	.st4{font-family:'MyriadPro-Regular';}
	.st5{font-size:12px;}
	.st6{fill:none;stroke:#FFFFFF;}
	.st7{fill:#FFAAB8;}
	.st8{fill:none;stroke:#EAE3E1;stroke-linecap:round;}
	.st9{fill:#989898;}
	.st10{fill:#FFD29F;stroke:#FF886B;}
	.st11{display:none;fill:#FF6600;stroke:#FF6600;stroke-width:1.2;}
	.st12{fill:#CDC8CD;stroke:#000000;}
	.st13{fill:#F3E5CD;stroke:#000000;}
	.st14{fill:#D9AF65;stroke:#E8CE9F;}
	.st15{fill:#8D9DC1;stroke:#000000;}
	.st16{fill:#92A434;stroke:#000000;}
	.st17{fill:none;stroke:#000000;}
	.st18{fill:#948B94;stroke:#000000;}
	.st19{fill:#B6C6DA;stroke:#000000;}
	.st20{fill:#9C76FF;stroke:#000000;}
	.st21{fill:#406A9F;stroke:#000000;}
	.st22{fill:#CDBAA2;stroke:#000000;}
	.st23{fill:#CDBAA2;stroke:#000000;stroke-linecap:round;}
	.st24{fill:none;stroke:#000000;stroke-linecap:round;}
	.st25{fill:#D3C868;stroke:#000000;}
	.st26{fill:#E8C775;stroke:#231F20;}
	.st27{fill:#A44C49;stroke:#231F20;}
	.st28{fill:#B3CDDE;stroke:#000000;}
	.st29{fill:#D22D10;stroke:#000000;stroke-linecap:round;}
	.st30{fill:none;stroke:#E289A1;stroke-linecap:round;}
	.st31{fill:#6D7FAE;}
	.st32{fill:#FFAAB8;stroke:#FF95B8;}
	.st33{fill:none;stroke:#D48D81;}
	.st34{fill:#FFAAB8;stroke:#000000;}
	.st35{fill:#E2B48C;stroke:#000000;}
	.st36{fill:#FF8BB8;stroke:#000000;}
	.st37{fill:none;stroke:#000000;stroke-width:0.5;}
	.st38{fill:#FF5597;stroke:#000000;}
	.st39{fill:#9D7849;stroke:#000000;}
	.st40{fill:#B27770;stroke:#000000;}
	.st41{fill:#7E4979;}
	.st42{fill:#EDD48B;stroke:#000000;}
	.st43{fill:#997281;stroke:#000000;}
	.st44{fill:#DBB8BC;stroke:#000000;}
	.st45{fill:#EDCA8B;stroke:#000000;}
	.st46{fill:#87936C;stroke:#000000;}
	.st47{fill:#C5BAC5;stroke:#000000;}
	.st48{fill:#917CB1;stroke:#000000;}
	.st49{fill:none;stroke:#A684A4;stroke-linecap:round;}
	.st50{fill:#B69AA3;stroke:#000000;}
	.st51{fill:#4F4F4F;stroke:#4F4F4F;stroke-width:0.5;}
	.st52{fill:none;stroke:#4F4F4F;stroke-width:0.5;}
	.st53{display:none;fill:#ECEF00;stroke:#ECEF00;stroke-width:1.2;}
	.st54{fill:#ECEF00;stroke:#ECEF00;stroke-width:0.5;}
	.st55{fill:#C56C78;stroke:#000000;}
	.st56{fill:#EEEAE9;stroke:#231F20;}
	.st57{fill:#EEEAE9;stroke:#231F20;stroke-width:1.05;}
	.st58{fill:#C0192B;stroke:#000000;}
	.st59{fill:#AE755E;stroke:#231F20;}
	.st60{fill:#CD9F00;stroke:#231F20;}
	.st61{fill:none;stroke:#231F20;stroke-width:0.7214;}
	.st62{fill:#E4CCD1;stroke:#231F20;stroke-width:0.7214;}
	.st63{fill:#E0A42F;stroke:#231F20;}
	.st64{fill:#AE5B5E;stroke:#231F20;}
	.st65{fill:#FFC48C;stroke:#231F20;}
	.st66{fill:#C1AEB6;stroke:#231F20;stroke-width:0.951;}
	.st67{fill:none;stroke:#795535;stroke-width:0.951;stroke-linecap:round;}
	.st68{fill:#E4CCD1;stroke:#231F20;stroke-width:0.951;}
	.st69{fill:none;stroke:#231F20;}
	.st70{fill:none;stroke:#231F20;stroke-linecap:round;}
	.st71{fill:#D3C8C5;stroke:#231F20;}
	.st72{fill:#CFCCE1;stroke:#231F20;stroke-width:1.0201;}
	.st73{fill:#CFCCE1;stroke:#231F20;}
	.st74{fill:#F2BD81;stroke:#231F20;}
	.st75{fill:#FFEEC0;stroke:#231F20;}
	.st76{fill:#FFC4E8;stroke:#231F20;}
	.st77{fill:#FF83CE;stroke:#231F20;}
	.st78{fill:#DCDADC;stroke:#231F20;}
	.st79{fill:#E09CAB;stroke:#231F20;}
	.st80{fill:#E1DEDB;stroke:#000000;}
	.st81{fill:#CFA7A2;}
	.st82{fill:#B981A2;}
	.st83{fill:#E1DEDB;stroke:#E1DEDB;}
	.st84{fill:#ECB069;stroke:#231F20;stroke-width:0.951;}
	.st85{display:none;fill:#AB0101;stroke:#AB0101;stroke-width:1.2;}
	.st86{fill:#9F7900;stroke:#000000;}
	.st87{fill:#D3C8C5;stroke:#000000;}
	.st88{fill:#DEB88A;stroke:#231F20;}
	.st89{fill:#9F0050;stroke:#000000;stroke-width:0.9985;}
	.st90{fill:#A05B52;stroke:#000000;stroke-width:0.9985;}
	.st91{fill:#7986E7;stroke:#000000;stroke-width:0.9985;}
	.st92{fill:#B60D5B;stroke:#000000;stroke-width:0.9985;}
	.st93{fill:#903052;stroke:#000000;stroke-width:0.9985;}
	.st94{fill:#CD002C;stroke:#000000;stroke-width:0.9985;}
	.st95{fill:#7986E7;stroke:#000000;stroke-width:1.0085;}
	.st96{display:none;fill:#7986E7;stroke:#7986E7;}
	.st97{fill:#231F20;}
	.st98{font-family:'MyriadPro-Light';}
	.st99{font-size:11px;}
	.st100{letter-spacing:33;}
	.st101{fill:none;stroke:#EC1C24;stroke-width:1.5;stroke-linecap:round;stroke-dasharray:0,3;}
	.st102{fill:none;stroke:#FFFFFF;stroke-width:2.5;stroke-linecap:round;stroke-dasharray:0,3;}
</style>
<g id="BODY_BASE">
	<path class="st0" d="M458,631.8h-99.7l-2.3-3c0,0-1.7-2.7-4.3-3c-2.7-0.3-2.7,0.7-2.7-4s-2-54.3,13.3-74
		c15.3-19.7,24.3-29.7,29.3-30s15,0,18.7,0.7c3.7,0.7,14,0.3,15.7,0c1.7-0.3,5.3,0.7,8,4c2.7,3.3,2.7,6.7,8.3,10c5.7,3.3,5,9,5,9
		s3,7,4.7,9c1.7,2,5,11.3,6.7,13.7c1.7,2.3,5.7,6.7,3,16.3c-2.7,9.7-2,22-2,22s-1,4,1.3,8c2.3,4,1.7,9.7,1.7,9.7l0.7,5.3L458,631.8z
		"/>
	<path class="st1" d="M53.3,226.6l8.8,6.5c-2.2,1.2-6.2,4.2-6.2,4.2s-11,3.6-13.2,4.6s-2.5,4.1,1.8,5.5c1.5,0.5,5.2-0.8,5.2-0.8
		l12-3.2c1.2-0.8,7.5,1.8,10.8,0.8s6.5-2.2,7.2-3s3.5-0.8,5.8-0.2s58.2,7.2,58.2,7.2c1.5,1.2,3.8,2.2,6.2,1.2l56,4.2
		c2.2,2,3.8,0.5,5.2,10.8l12.6,67.4c0.5,4-2.5,46.8-2.5,46.8l4.4,91.8c0.5,5.2,0.2,7-0.5,9s-0.8,1.9-0.8,5.2c0,4-0.8,12.4,0.7,15.2
		s1,2.8,1.2,8.1c0.8,8.6,4.6,56.8,4.6,63.8c0,7.3-2.1,12.1-2.1,15c0,1.7,0.4,6,0.8,7.7c0.3,1.7,1,5.7-2.3,11.7l-7,23.8
		c-2.5,2.3-1.9,7,0.3,7.3c0,0,3.2,0,4.6-1.2c0.9,3,6.4,1.8,8.2,0.2c2.1,2.5,6.8,1,8-0.2c3.1,2.5,7.5,1,8.5-0.2
		c0.4,1.9,4.4,2,4.8,1.8c6.6,0.2,6.9-6.6,5.1-13.9l-5.2-21.5c-1-2.7-1.3-8,0.7-11.3c2-3.3,1.7-6.3,0.3-9.3c-1.3-3-1.7-5-1.7-5
		l7.8-67.2c2-5,3.3-16,3.7-30.3l11.3-70.7l5.7,2.3l75.3-2c6-2.7,6,2.7,5.7,6l9,67.7c1.7,19,1.3,11,1,17c0,0-3,8.7-3.3,10.7
		c-0.3,6.3,3.3,10,4.7,11.3c6.3,1.7,12.3-1,15.7-1.7c3.3-0.7,15.7-1,19.3,0.3c3.7,1.3,12,1.7,16.3-1.3h9c5.3-2.3,3.7-5,3.7-8
		c0,0-7.7-0.7-14-0.3l-22.3-10c0,0-5.7-3.3-5-11l5.7-101.7c-0.3-7.7-6.7-18-14-19.3c-7.3-1.3-71.3-6.3-71.3-6.3
		c-3.3-1-2.7-1.3-3.3-5l-6-25l8.4-41.5c0,0,10.8,29,12.2,32s1.8,4.3,5.7,3.7l68.2-6.2c6.2-0.8,9.3,1.8,13.5,2.5
		c4.2,0.7,18.7-1.7,18.7-1.7l16.2,0.3c3,0,3-2.8,1.2-3.5l-18.5-3l0.2-1.3l21.3,0.7c3.5,0.3,3.5-3.8,0.8-4.2s-22.7-3.3-22.7-3.3
		l0.2-1h24.2c3.7-0.5,2.5-4.2,0-4.3c-1.2-0.1-23.4-2.1-24.5-2.1c-0.2,0-0.1-1.2-0.1-1.2l22.7-1.5c3.5-0.6,3.4-3.5-0.2-4.1l-11.9-0.5
		l-19.9,0.6l2.2-2c6.7-5.3,3.3-8,2.5-8.3c-1,0.8-12,7.2-13.7,8c-1.7,0.8-9.8,5.2-11.3,8.2c0,0-46.5-0.8-48.5-0.8s-2.8-0.2-3.5-2.3
		l-10-44.7c-4.2-20.8-3.2-33.3-23.5-35.5c0,0-16.5,0.2-17,0.2s-1.2,0.7-2-0.2l-15-10.5l-0.2-20.2c2.8-3.2,12.3-5.5,12.3-29
		c0-23-25.7-28.3-34.3-27.7c-5.3,0.4-26.6,2-29.9,19.7c-0.6,2.3-0.2,5.5,0.2,7c0.6,1.7,2,1.8,0.2,4s-6.1,7.6-7.1,8.3
		c-2.5,1.8-1.7,4.7,0.2,5.2c2,0.5,4.9,1,4.9,1L230,176c-1.9,3-0.1,2.8,1.2,3.1l5.7,0.8l-5.4,1.2c-2.4,0.3-1.5,2.4-1.5,2.4l1.7,1
		l0.9,2.4c-0.4,1-0.4,1.6-1,3c-1.4,3.1,1.4,6.5,6.5,6.3c1.8-0.1,8.8-0.5,8.8-0.5l-0.2,12.1l-9,8.2c-12,0.2-23.6,3-25.4,3.5
		c-3.2-0.2-50.9,2.8-57.2,2.8c-6.1,0.1-4.2,0.2-6.5,0.2s-58.9,0.7-62.9,0.9s-6,1-10.2-0.5s-17.8-4.2-19.8-4.8s-2-0.8-4.5,0.2
		s-28.5,6.5-28.5,6.5c-0.6,2.7,2.6,4.4,6.1,4.2s6-0.7,6-0.7l8.7-1.5l10.2-0.5"/>
	<line class="st2" x1="250" y1="635.7" x2="250" y2="628.7"/>
	<line class="st2" x1="241.5" y1="635.7" x2="241.3" y2="630.4"/>
	<line class="st2" x1="233.5" y1="635.9" x2="233.3" y2="631.9"/>
	<line class="st2" x1="225.3" y1="635.9" x2="225.1" y2="631.9"/>
	<line class="st2" x1="319.8" y1="260.4" x2="316.7" y2="290.3"/>
	<polyline class="st2" points="235.2,155.2 241.8,157.9 235.3,160.6 	"/>
	<path class="st2" d="M236.8,156.2c-0.3,1.3-0.8,2.3-0.2,3.7"/>
	<path class="st2" d="M411.1,309.1c5.8-1.2,10.5-12,10.5-14.3l2.3-2.5"/>
	<g>
		<path class="st3" d="M382.9,412.5c0.3,0.3,0.5,0.6,0.7,0.7C383.3,412.9,383.1,412.7,382.9,412.5z"/>
	</g>
	<text transform="matrix(1 0 0 1 -17.0335 -1.901)" class="st4 st5">UCSC Body Map /DRAFT01</text>
	<rect x="-33.4" y="-30.6" class="st6" width="593" height="704"/>
	<path class="st7" d="M195.6,180.5"/>
	<g>
		<line class="st2" x1="235" y1="225.8" x2="259.1" y2="225.6"/>
		<path class="st2" d="M272.2,227.1c-0.9,1.8-1.9,3.9-4.7,3.5c-2.8,0.4-3.9-1.7-4.7-3.5"/>
		<line class="st2" x1="300" y1="225.8" x2="275.8" y2="225.6"/>
	</g>
	<circle class="st2" cx="271" cy="343.4" r="2.7"/>
	<path class="st8" d="M221.1,257.9c0.2,4.5,6.2,25,7,26.5s2.8,1.8,2.8,1.8l29.7,0.5"/>
	<circle class="st8" cx="237.8" cy="276.1" r="2.8"/>
	<path class="st8" d="M315.3,257.9c-0.2,4.5-6.2,25-7,26.5s-2.8,1.8-2.8,1.8l-29.8,0.5"/>
	<circle class="st8" cx="298.5" cy="276.1" r="2.8"/>
	<line class="st8" x1="220.8" y1="257.9" x2="216.6" y2="256.1"/>
	<path class="st9" d="M69.2,151.2c0,3.8-3.1,6.9-6.9,6.9c-3.8,0-6.9-3.1-6.9-6.9c0-3.8,3.1-6.9,6.9-6.9
		C66.1,144.4,69.2,147.4,69.2,151.2z M64,141.1v-4.6h3.7v-3.4H64v-4.4h-3.4v4.4h-3.7v3.4h3.7v4.7c-4.8,0.8-8.5,5-8.5,10.1
		c0,5.7,4.6,10.2,10.2,10.2c5.7,0,10.3-4.6,10.3-10.2C72.6,146.1,68.8,141.9,64,141.1z"/>
	<path class="st9" d="M44.8,150.9c0,3.8-3.1,6.9-6.9,6.9c-3.8,0-6.9-3.1-6.9-6.9c0-3.8,3.1-6.9,6.9-6.9
		C41.7,144,44.8,147.1,44.8,150.9z M39.5,140.8v-5.5h2.3l-4-7.4l-4,7.4h2.3v5.5c-4.8,0.8-8.5,5-8.5,10.1c0,5.7,4.6,10.2,10.2,10.2
		s10.2-4.6,10.2-10.2C48.1,145.8,44.4,141.6,39.5,140.8z"/>
</g>
<g id="Adipose-_Subcutaneous">
	<path class="st10" d="M227.5,520.9c-0.5-5.7-0.8-10-1-12.1c-0.2-5.2,0.3-5.3-1.2-8.1s-0.7-11.2-0.7-15.2c0-3.3,0.1-3.3,0.8-5.3
		c-0.8,2,0.5,1.3,0.5,4.6c0,4-0.8,12.4,0.7,15.2s1,2.8,1.2,8.1C227.9,509.6,228.2,516.9,227.5,520.9z"/>
	<path id="RO_Adipose_SubCutaneous" class="st11" d="M227.2,520.9c-0.5-5.7-0.8-10-1-12.1c-0.2-5.2,0.3-5.3-1.2-8.1
		s-0.7-11.2-0.7-15.2c0-3.3,0.1-3.3,0.8-5.3c-0.8,2,0.5,1.3,0.5,4.6c0,4-0.8,12.4,0.7,15.2s1,2.8,1.2,8.1
		C227.7,509.6,228,516.9,227.2,520.9z"/>
</g>
<g id="Cells">
	<g id="EBV-transformed">
		<circle class="st12" cx="68.8" cy="584.7" r="24.2"/>
		
			<ellipse transform="matrix(0.7034 -0.7108 0.7108 0.7034 -395.1794 222.2392)" class="st13" cx="68.7" cy="584.6" rx="19" ry="14.7"/>
		<circle class="st14" cx="64" cy="589.1" r="9"/>
		<circle class="st15" cx="63.9" cy="589.3" r="5.7"/>
		<circle class="st16" cx="75" cy="576.4" r="2.8"/>
		<line class="st17" x1="75" y1="573.6" x2="75" y2="571.8"/>
		<ellipse class="st16" cx="75" cy="571.3" rx="1" ry="0.6"/>
		<line class="st17" x1="73" y1="574.4" x2="71.8" y2="573.1"/>
		
			<ellipse transform="matrix(0.7071 -0.7071 0.7071 0.7071 -384.0858 218.2209)" class="st16" cx="71.4" cy="572.8" rx="1" ry="0.6"/>
		<line class="st17" x1="72.2" y1="576.4" x2="70.4" y2="576.4"/>
		<ellipse class="st16" cx="69.9" cy="576.4" rx="0.6" ry="1"/>
		<line class="st17" x1="73" y1="578.4" x2="71.8" y2="579.6"/>
		<ellipse transform="matrix(0.7071 -0.7071 0.7071 0.7071 -389.2231 220.3577)" class="st16" cx="71.4" cy="580" rx="0.6" ry="1"/>
		<line class="st17" x1="75" y1="579.2" x2="75" y2="581"/>
		<ellipse class="st16" cx="75" cy="581.5" rx="1" ry="0.6"/>
		<line class="st17" x1="77" y1="578.4" x2="78.3" y2="579.6"/>
		<ellipse transform="matrix(0.7071 -0.7071 0.7071 0.7071 -387.0901 225.4676)" class="st16" cx="78.6" cy="580" rx="1" ry="0.6"/>
		<line class="st17" x1="77.8" y1="576.4" x2="79.6" y2="576.4"/>
		<ellipse class="st16" cx="80.1" cy="576.4" rx="0.6" ry="1"/>
		<line class="st17" x1="77" y1="574.4" x2="78.3" y2="573.1"/>
		
			<ellipse transform="matrix(0.7071 -0.7071 0.7071 0.7071 -381.9774 223.364)" class="st16" cx="78.6" cy="572.8" rx="0.6" ry="1"/>
	</g>
	<g id="Transformed_fibroblast">
		<circle class="st18" cx="156.4" cy="584.5" r="24.2"/>
		<path class="st19" d="M164.6,567.9c0.9-1.6-7.6,6.5-13.4,2c0.5,1.8,1.1,10.4-9.5,9.5c1.5,1.6,5.1,6.5-2.1,11.9
			c5.9-2.1,12.8,0.9,4.9,11c4.4-1.4,8.9-2,13,2c-0.4-4.5,4.9-7.1,6.1-7.8c-5.1-0.8-2.9-9.5,6.2-11.1
			C162.8,582.9,161.9,573.1,164.6,567.9z"/>
		<circle class="st20" cx="156.4" cy="583.5" r="4.1"/>
		<circle class="st21" cx="156.4" cy="583.5" r="2.2"/>
		<line class="st13" x1="152.1" y1="570.5" x2="147.5" y2="561.8"/>
		<line class="st13" x1="154.6" y1="571.3" x2="149.4" y2="561.3"/>
		<line class="st13" x1="151.5" y1="574" x2="145.6" y2="562.8"/>
		<line class="st13" x1="141.1" y1="590" x2="168.6" y2="585.1"/>
		<line class="st13" x1="166.9" y1="586" x2="151.6" y2="570.6"/>
		<line class="st13" x1="163.6" y1="568.9" x2="141.5" y2="590.1"/>
		<line class="st13" x1="144.6" y1="579.1" x2="157.3" y2="603.1"/>
		<line class="st13" x1="145.9" y1="601" x2="162.5" y2="596.8"/>
		<line class="st13" x1="146.8" y1="600.3" x2="165.4" y2="586.3"/>
		<line class="st13" x1="147.1" y1="601" x2="152.5" y2="571"/>
		<line class="st13" x1="154.6" y1="591.1" x2="156.8" y2="608.5"/>
		<line class="st13" x1="156.3" y1="591.1" x2="158.4" y2="608.5"/>
		<line class="st13" x1="157.9" y1="591.1" x2="160" y2="608.5"/>
		<line class="st13" x1="151.1" y1="577.9" x2="133.4" y2="576.3"/>
		<line class="st13" x1="150.6" y1="579.5" x2="132.9" y2="577.9"/>
		<line class="st13" x1="150.6" y1="581.1" x2="132.9" y2="579.5"/>
		<line class="st13" x1="161.5" y1="570" x2="165.8" y2="562.3"/>
		<line class="st13" x1="162.3" y1="571.8" x2="169.5" y2="564"/>
		<line class="st13" x1="162.4" y1="573.4" x2="170.8" y2="564.8"/>
		<line class="st13" x1="164.3" y1="567.6" x2="168" y2="563.1"/>
		<line class="st13" x1="143" y1="587.6" x2="133.3" y2="591.8"/>
		<line class="st13" x1="143.1" y1="588.8" x2="133.6" y2="593"/>
		<line class="st13" x1="143.8" y1="590" x2="134.8" y2="595.1"/>
		<line class="st13" x1="164.5" y1="587" x2="180.6" y2="586"/>
		<line class="st13" x1="167.3" y1="584.4" x2="180.5" y2="583.6"/>
		<line class="st13" x1="165.9" y1="582.6" x2="180.5" y2="581.9"/>
		<line class="st13" x1="160" y1="593" x2="176.8" y2="597.6"/>
		<line class="st13" x1="161.1" y1="595" x2="176" y2="599"/>
		<line class="st13" x1="162" y1="596.9" x2="174.9" y2="600.4"/>
		<line class="st13" x1="160.8" y1="598.3" x2="173.6" y2="601.8"/>
	</g>
</g>
<g id="Brain_x2F_Body">
	<g>
		<path class="st22" d="M270.2,132.3c0.1-0.6-0.2-1.6-0.8-1.8c-1-0.2-2-0.4-3-0.5c-0.3,0-0.6-0.1-1-0.1c-0.8,0-1.2,0.6-1.4,1
			c0-0.5-0.5-1.1-1-1.1c-1.1,0-2.3,0.1-3.4,0.2c-0.6,0.1-1.3,0.5-1.3,1.2c-0.2-0.7-1.2-0.8-1.6-0.8c-1.1,0.2-2.5,0.6-3.6,0.9
			c-0.4,0.2-0.6,0.7-0.5,1.3c-0.2-0.4-1-0.8-1.6-0.5c-1,0.4-2,0.8-2.9,1.3c-0.5,0.4-0.4,1-0.4,1.5c-0.6-0.5-1.2-0.6-1.7-0.3
			c-1,0.6-2.1,1.4-3,2.1c-0.4,0.3-0.5,1.1-0.3,1.8c-0.3-0.2-1.5-0.3-2,0.2c-0.8,0.7-1.6,1.7-2.3,2.5c-0.4,0.7-0.3,1.5-0.1,1.9
			c-0.3,0-1.4,0.2-1.7,0.6c-0.2,0.4-0.4,0.8-0.6,1.2c-0.3,0.7-0.7,1.4-0.9,2c-0.2,0.8,0.2,1.8,0.5,2.6c-0.6,0.2-1.4,1.1-1.4,1.5
			c-0.1,1.3,0,2.6,0.2,3.7c0.2,0.8,1.2,1.4,1.9,1.2c-0.4,0.3-1.1,1.4-0.8,2.2c0.7,1.6,1.7,2.8,2.7,3.7c0.6,0.5,1.5,0.4,2.2,0
			c-0.1,0.3-0.6,0.8,0.1,1.3c0.1,0,0.2,0,0.3,0l10.4,0c-0.6,0.9-1.9,4.2,1.1,6.4c4.1,3,11.2,1.1,14.2-3.2l1.1-1.7l19.3,0l1.2,1.1
			c0.6,0.4,1.8,1,2.9-0.4c0.3-0.4,0.7-1,1.1-1.9c0.2-0.3-0.1-0.9-0.5-1.2c0.4,0.2,1.2-0.3,1.3-0.6c0.3-1,0.7-2.3,0.8-3.6
			c0-0.5-0.5-1-1.1-1c0.6,0,1.2-0.9,1.3-1.3c0-1,0-2-0.2-3.2c-0.1-0.6-0.9-1-1.6-1c0.7-0.2,1.1-1.4,1.1-1.9
			c-0.3-1.1-0.6-2.1-1.1-3.1c-0.2-0.5-1.2-0.9-1.9-0.6c0.6-0.4,0.7-1.6,0.5-2c-0.5-0.8-1.1-1.6-1.7-2.4c-0.4-0.5-1.4-0.5-2-0.2
			c0.5-0.5,0.3-1.7,0-2.1c-0.9-0.9-1.9-1.8-2.9-2.5c-0.5-0.4-1.3-0.5-1.7,0c0.3-0.6-0.3-1.4-0.6-1.7c-0.9-0.5-2.1-1.2-3-1.7
			c-0.5-0.3-1.4-0.3-1.7,0.3c0.2-0.7-0.5-1.4-0.9-1.6c-1.2-0.5-2.4-0.9-3.5-1.2C271.6,131.1,270.6,131.3,270.2,132.3z"/>
		<path class="st23" d="M268.8,138.1c-0.1,0.3,0,1,0.5,1.2c0,0,0.5,0.2,0.7,0.3"/>
		<path class="st23" d="M285.8,152.5c2,5.2-0.8,9.1-1,9.3c-0.3,0.3-0.8,0.4-1.7-0.3l-2.7-2.6c-0.4-0.4-0.6-1.7-0.1-2.1
			c-0.3,0.3-1.1,1.1-1.9,0.6c0,0-2-1.7-2.4-2c-0.6-0.6-0.4-1.4,0.2-2.2c0.6-0.7,6.4-8.7,6.4-8.7c0.5-0.5,0.9-0.8,1.5-1.2
			c0.6-0.4,2.6-1.7,2.6-1.7"/>
		<path class="st22" d="M277.2,143.1c0.6,0.4,1.2,0.8,1.8,1.2"/>
		<path class="st24" d="M274.3,141.4c-0.3-0.1-0.4-0.9-0.4-1.2c-0.4,0.3-0.8,0.6-1.4,0.4c-0.1,0-0.3-0.1-0.4-0.1"/>
		<path class="st24" d="M279,144.2c-0.2-0.2-0.3-1-0.2-1.3c-0.4,0.2-0.8,0.4-1.4,0.2"/>
		<path class="st24" d="M283.5,148.5c0.3,0.4,0.4,0.6,0.7,1c0.1,0.2,0.2,0.3,0.4,0.6c-0.2-0.3,0.1-1,0.3-1.2
			C284.4,148.9,283.9,149,283.5,148.5z"/>
		<path class="st24" d="M286.3,154.3c-0.1-0.3,0.5-1.1,0.7-1.2c-0.5-0.1-0.9-0.1-1.2-0.7"/>
		<path class="st24" d="M286.4,157.9c0-0.2,0.8-0.6,1-0.7c-0.4-0.1-0.7-0.3-0.9-0.8"/>
		<path class="st24" d="M285.6,160.5c0.1-0.2,0.8-0.2,1-0.2c-0.2-0.2-0.5-0.5-0.5-0.9"/>
		<path class="st22" d="M250.8,163.2c2.4-0.4,3-2.6,2.9-3.7c-0.3-2.7-1.9-3.1-2.8-3.2c-1.9,0-3.1-0.3-4.1-0.9
			c-0.5-0.3-0.8-0.1-1.2,0c0.1-0.2,0.2-0.9,0-1.1c-0.4-0.5-0.6-1.1-0.8-1.6c-0.2-0.5-0.6-0.6-1-0.7c0.2-0.1,0.6-0.6,0.6-0.9
			c0-0.5,0-1.1,0.1-1.6c0-0.5-0.3-0.8-0.6-1.1c0.3,0,0.9-0.3,0.9-0.5c0.2-0.5,0.4-1.1,0.7-1.6c0.2-0.5,0-0.8-0.2-1.2
			c0.2,0.1,0.9,0,1.1-0.2c0.5-0.7,1.1-1.3,1.7-1.9c0.4-0.4,0.3-0.8,0.2-1.2c0.2,0.2,0.8,0.3,1.1,0.2c0.7-0.5,1.6-1,2.4-1.4
			c0,0,0,0,0,0c0.4-0.3,0.5-0.7,0.5-1.1c0.2,0.2,0.7,0.5,1,0.4c0.8-0.3,1.7-0.5,2.5-0.7c0.6-0.2,0.8-0.6,1-1.1
			c0.1,0.3,0.5,0.8,1,0.8c0.8-0.1,1.6-0.1,2.3-0.2c0.6,0,0.8-0.5,1-0.9c0.1,0.3,0.6,0.9,0.9,0.9c0.9,0,1.7,0,2.4,0.1
			c0.6,0,1-0.4,1.2-0.8c0.1,0.3,0.4,0.9,0.8,1c0.1,0,0.3,0.1,0.3,0.1c1.2,0.1,1.6-0.2,1.8-0.8l1.5-6"/>
		<path class="st22" d="M255.5,161.9c1.7-2.3,4.2-3.7,5.1-4.3l0.5,0.9c-0.8,0.5-2.7,1.6-4.3,3.3"/>
		<path class="st25" d="M273,181.3c0,0,0-0.8,0-1.1c0-0.3,0.1-1.3-0.7-2.4l-10.7-18.7c0.3,0.8,0,0.8-0.2,1.1
			c-0.3,0.2-0.9,0.2-1.2-0.5c-0.3-0.7-0.1-2,1.3-2.8c1.4-0.8,3.9-0.9,5.1,0.3l10.1,17.8c0.8,1.5,1,2.2,1,3.4l0,2.8"/>
		<path class="st22" d="M255,159.7l1-4c0-0.6-0.3-1.1-1.1-1.1h-4.7c-0.9,0-2.6-1.3-2.6-3.5c0-2.5,3.3-7.4,13.9-7.3
			c2.8-0.1,9.1,0.3,12.4,3.5c1.2,1.5,2,3,0.8,5.2c-0.8,1.4-2.9,2.1-4.2,2.2h-12.3c-0.7,0.1-0.9,0.6-1.1,1.5l-0.9,3.4
			c0.8,0.5,1,1.3,0.9,1.7c-0.1,0.4-0.6,1.4-1.6,1.1C254.4,162.1,254.3,161,255,159.7z"/>
		
			<ellipse transform="matrix(0.2099 -0.9777 0.9777 0.2099 42.6342 379.721)" class="st22" cx="256.3" cy="163.5" rx="1.9" ry="1.6"/>
		<path class="st22" d="M269.8,154.7h-11.9c-1.1-0.1-1.3-2.2,0-3.5c1.3-1.4,3.8-2.6,7.4-1.7c3.6,0.9,4.5,3.3,4.8,3.9
			C270.3,153.8,270.3,154.5,269.8,154.7z"/>
		<path class="st24" d="M276.2,153.2c-0.3,0.3-1.4,1.7-3.7,1.5"/>
		<path class="st22" d="M267.7,154.7l2.1,2.5c0.3,0.6,0.4,0.5,0.4,1.6l0,3.5c0,0.6,0.1,1.2,0.3,1.5c0.3,0.3,6.5,11.3,6.5,11.3
			l2.2-1.5l4.1,0c3.6-0.3,6.2-5.2,4.1-8.2l-10.8-9.6c-1.7-1.3-2.8-1.2-3.7-1.3L267.7,154.7z"/>
		
			<ellipse transform="matrix(0.9411 -0.338 0.338 0.9411 -40.2927 99.5511)" class="st22" cx="265.7" cy="165.5" rx="3.1" ry="4.4"/>
		<path class="st22" d="M260.1,157.8C260.1,157.8,260.1,157.8,260.1,157.8c-0.5,0.5-2.3,1.5-2.3,1.5c-0.6,0.3-1.4-0.1-1.3-0.7
			l0.6-2.4c0.2-0.8,0.4-1.4,1.1-1.5l3,0c0.3,0.1,0.4,0.6,0.3,0.9C261.4,156.1,261.4,157,260.1,157.8z"/>
		<path class="st22" d="M262.2,154.7l1.7,2.4c0.3,0.4,1,0.6,1.6,0l1.8-2.4L262.2,154.7z"/>
		<path class="st22" d="M273,153.1c0.2-0.4,0.5-1.6,1.4-1.5c0.8,0,0.8,0.8,0.6,1.5c-0.2,0.6-2,4.1-6.1,5.7c-1.2,0.5-1.4,0.8-2,1.5
			c-0.6,0.8-2.2,2.4-3.6,1.3c-1.4-1.1,0.1-2.7,0.5-2.9c0.3-0.2,6.7-2.8,7.2-3.3C271.5,154.9,272.5,154.3,273,153.1z"/>
		<path class="st22" d="M263,159.4c2.6-1.8,2.7-1.3,6.9-3.3c4.1-2,3.6-4.1,3.8-5.1c0.4-5.7-9.3-7-10.6-7.1c-1.3-0.1-12.9-0.6-13,5.5
			c-0.1,6,6.2,7,9,7.3c6.5,0.5,7.8-4.4,5.1-7.8c-0.1-0.8,0.8-2,0.8-2s0.5-0.9,1.3-0.8c3.9,1.3,5.9,3.6,5.3,6.2
			c-0.6,2.6-4.3,3.8-4.7,4c-0.5,0.2-3.4,1.4-4.3,2.2"/>
		
			<ellipse transform="matrix(6.633192e-02 -0.9978 0.9978 6.633192e-02 90.7255 401.4725)" class="st22" cx="259.9" cy="152.3" rx="4.5" ry="6.5"/>
		
			<ellipse transform="matrix(0.727 -0.6866 0.6866 0.727 -39.1401 222.7855)" class="st22" cx="260.6" cy="160.6" rx="2.7" ry="1.9"/>
		<line class="st22" x1="279.9" y1="173.8" x2="276.2" y2="173.8"/>
		<line class="st22" x1="286.1" y1="172.6" x2="275.6" y2="172.6"/>
		<line class="st22" x1="287.7" y1="170.4" x2="274.3" y2="170.4"/>
		<line class="st22" x1="288.2" y1="168.1" x2="273" y2="168.1"/>
		<line class="st22" x1="287.5" y1="165.9" x2="284.2" y2="165.9"/>
		<line class="st24" x1="280.3" y1="156.8" x2="282.2" y2="154.7"/>
		<line class="st24" x1="284.8" y1="148.9" x2="286.2" y2="148.1"/>
		<line class="st24" x1="278.8" y1="142.9" x2="279.5" y2="141.8"/>
		<line class="st24" x1="273.9" y1="140.2" x2="274.5" y2="139.1"/>
		<line class="st24" x1="265.8" y1="138" x2="265.9" y2="136.4"/>
		<line class="st24" x1="261.2" y1="137.9" x2="261.2" y2="136.4"/>
		<line class="st24" x1="256.9" y1="138.3" x2="256.8" y2="136.8"/>
		<line class="st24" x1="252.4" y1="139.5" x2="251.8" y2="138.1"/>
		<line class="st24" x1="248.5" y1="141.9" x2="247.4" y2="140.7"/>
		<line class="st24" x1="245.4" y1="145.1" x2="243.9" y2="144.2"/>
		<line class="st24" x1="243.9" y1="148.4" x2="242.1" y2="148.1"/>
		<line class="st24" x1="243.8" y1="152" x2="242.1" y2="152.5"/>
		<line class="st24" x1="245.6" y1="155.4" x2="242.5" y2="157.3"/>
		<path class="st24" d="M240,161.8l1.4-0.9c0.6-0.4,1.5-0.7,2.2-0.7l3.9-0.5"/>
		<line class="st24" x1="263.8" y1="132.3" x2="263.9" y2="130.8"/>
		<line class="st24" x1="258.4" y1="132.7" x2="258.1" y2="131.1"/>
		<line class="st24" x1="252.8" y1="134" x2="252.4" y2="132.6"/>
		<line class="st24" x1="248" y1="136.2" x2="247.4" y2="134.9"/>
		<line class="st24" x1="243.4" y1="139.5" x2="242.4" y2="138.4"/>
		<line class="st24" x1="239.6" y1="143.8" x2="238.1" y2="143"/>
		<line class="st24" x1="237.2" y1="149.8" x2="235.4" y2="149.5"/>
		<line class="st24" x1="237.8" y1="155.5" x2="236.1" y2="156"/>
		<line class="st24" x1="276.2" y1="135.2" x2="276.7" y2="134"/>
		<line class="st24" x1="281.4" y1="138.1" x2="282.1" y2="137"/>
		<line class="st24" x1="290.3" y1="152.1" x2="291.6" y2="151.7"/>
		<line class="st24" x1="287.1" y1="153.1" x2="288.3" y2="152.7"/>
		<line class="st24" x1="287.4" y1="157.2" x2="288.6" y2="157.3"/>
		<line class="st24" x1="291.1" y1="157.1" x2="292.2" y2="157.2"/>
		<line class="st24" x1="289.9" y1="161.7" x2="291.2" y2="162.3"/>
		<line class="st24" x1="286.5" y1="160.4" x2="287.7" y2="161"/>
		<line class="st24" x1="288.7" y1="146.8" x2="290" y2="146.1"/>
		<path class="st23" d="M273.6,168.1c-0.6-1.1,0-2.1,0.3-2.4c-1.3,0-2.2-0.6-2.8-1.6c-0.8-1.3-0.2-5.3,2.3-6.2c3-1.1,4.8-1.1,7.7,2
			c0.7,0.6,4.1,3,2.8,8.2L273.6,168.1z"/>
	</g>
</g>
<g id="Kidney">
	<path class="st26" d="M258.5,317.6l-0.3-9.2c-0.3-1.2-0.2-2.2-2.8-1.3c-2.7,0.8-6.2,2.7-6.3,3.8
		C248.8,312.1,254.1,309.4,258.5,317.6z"/>
	<path class="st27" d="M253.8,323.4v4.3c3.3,2.2,5.5,7.7,0.7,11.3c-4.8,3.7-14.8,0.3-14.8-14.3c-0.2-6.5,3.9-11.6,8.3-13.7
		C255.5,307.6,263.6,319.1,253.8,323.4z"/>
	<path class="st26" d="M279.1,317.6l0.3-9.2c0.3-1.2,0.2-2.2,2.8-1.3c2.7,0.8,6.2,2.7,6.3,3.8C288.8,312.1,283.5,309.4,279.1,317.6z
		"/>
	<path class="st27" d="M283.8,323.4v4.3c-3.3,2.2-5.5,7.7-0.7,11.3c4.8,3.7,14.8,0.3,14.8-14.3c0.2-6.5-3.9-11.6-8.3-13.7
		C282.1,307.6,274,319.1,283.8,323.4z"/>
</g>
<g id="Whole_Blood">
	<circle class="st13" cx="457.8" cy="454" r="24.2"/>
	<polygon class="st28" points="461.6,440.7 459.8,442.9 460.9,444.3 461,446.9 463,444.7 463,443.6 463.6,442.3 	"/>
	<polygon class="st28" points="445.9,467.9 444.6,469.4 445.4,470.4 445.5,472.2 446.9,470.7 446.9,469.9 447.3,469 	"/>
	<polygon class="st28" points="467.8,442.2 468.3,439.7 469.5,437.3 472.1,437.4 472.8,438.4 471.4,440.2 470.6,440.1 470.1,440.8 	
		"/>
	<polygon class="st28" points="459.9,459.2 457.5,462.7 460.6,462.3 460.3,460.1 	"/>
	<polygon class="st28" points="454.8,468.6 452.1,469.2 451.6,470.9 454.1,471.9 	"/>
	<circle class="st28" cx="448" cy="457.4" r="7.7"/>
	<path class="st29" d="M458,437.1c1.2,2.5-0.7,6.6-4.7,8.5c-3.9,1.9-8.3,1-9.5-1.5c-1.2-2.5,0.9-6.1,4.9-8
		C452.6,434,456.8,434.5,458,437.1z"/>
	<path class="st30" d="M455.4,438.4c0.1,1.6-1.1,3.6-3.3,4.6c-2.1,1-4.4,0.8-5.6-0.3"/>
	<path class="st30" d="M447.7,440.8c0.2-1,1.1-2.1,2.4-2.7c0.9-0.4,1.8-0.6,2.6-0.5"/>
	<path class="st29" d="M475.3,447.9c1.2,2.5-0.7,6.6-4.7,8.5c-3.9,1.9-8.3,1-9.5-1.5c-1.2-2.5,0.9-6.1,4.9-8
		C469.9,444.9,474.1,445.4,475.3,447.9z"/>
	<path class="st30" d="M472.6,449.2c0.1,1.6-1.1,3.6-3.3,4.6c-2.1,1-4.4,0.8-5.6-0.3"/>
	<path class="st30" d="M465,451.7c0.2-1,1.1-2.1,2.4-2.7c0.9-0.4,1.8-0.6,2.6-0.5"/>
	<path class="st29" d="M473.7,463.6c1.2,2.5-0.7,6.6-4.7,8.5c-3.9,1.9-8.3,1-9.5-1.5c-1.2-2.5,0.9-6.1,4.9-8
		C468.3,460.5,472.4,461,473.7,463.6z"/>
	<path class="st30" d="M471,464.9c0.1,1.6-1.1,3.6-3.3,4.6c-2.1,1-4.4,0.8-5.6-0.3"/>
	<path class="st30" d="M463.3,467.3c0.2-1,1.1-2.1,2.4-2.7c0.9-0.4,1.8-0.6,2.6-0.5"/>
	<path class="st31" d="M446,452.1c1.6,0,0.7,2.2,0.7,2.8c0,0.7,0.5,1.1,1.5,0.9c1-0.2,0.9-0.5,2.6-0.3c1.3,0.2,2.2,1.7,2.3,3
		c0,1.3-0.8,3.6-4.1,4.5s-5.8-1.8-6.6-3.8c-0.8-2,0.3-5.4,1.3-6C443.7,453.2,444.4,452.1,446,452.1z"/>
	<polyline class="st13" points="449.6,464.9 448.9,466.5 448,465 	"/>
	<circle class="st13" cx="443.8" cy="460.9" r="0.8"/>
	<circle class="st13" cx="443.1" cy="457.1" r="0.8"/>
	<circle class="st13" cx="449.5" cy="452.8" r="0.7"/>
	<circle class="st13" cx="453.1" cy="453.3" r="0.7"/>
	<circle class="st13" cx="450.7" cy="458" r="0.7"/>
	<circle class="st13" cx="452.4" cy="460.5" r="0.8"/>
	<circle class="st13" cx="444.6" cy="453" r="0.7"/>
	<polyline class="st13" points="443.1,463.3 441.4,463.8 442,462.2 	"/>
	<polyline class="st13" points="440.6,459.6 438.9,459 440.3,458 	"/>
	<polyline class="st13" points="441.2,453.5 440.5,451.9 442.2,452.2 	"/>
	<polyline class="st13" points="445.3,450 445.8,448.4 446.9,449.7 	"/>
	<polyline class="st13" points="451.5,450.5 453,449.8 452.8,451.5 	"/>
	<polyline class="st13" points="455.3,455.3 456.9,455.9 455.5,456.9 	"/>
	<polyline class="st13" points="454.3,461.5 455,463.2 453.3,462.7 	"/>
	
		<ellipse transform="matrix(0.7752 -0.6317 0.6317 0.7752 -184.5135 385.3282)" class="st13" cx="449.2" cy="451.9" rx="0.7" ry="0.7"/>
</g>
<g id="Salivary_Gland_x2F_Oral_cavity">
	<path class="st32" d="M269.3,202.7c-0.1-3.1-1.1-5.2-1.9-6.9l-4-6.7c-0.3-0.5-1.4-1-2.8-1c-1.6,0-2.8,0.5-2.8,1.3l0-6
		c0,0-0.1-1.1,0.6-0.6l2.1,2.8c0.6,0.8,1.3,1.4,1.4,0.9c0,0-2.4-4.4-4.1-6.1c-1.7-1.7-5.2-3.6-8.7-3.5c-3.5,0.1-14.8,2.1-15,4
		c-0.3,2.8,2.3,3.2,4.1,3.5l6.3,0.1c0.9,0,0.8,0.6,0.8,0.8s-0.4,0.4-0.8,0.4h-10c-0.8,0-1-0.3-1.2-0.8c-0.2-0.4-1.1-2.7-1.1-2.7
		c-0.2-0.2-1.1-0.8-1.5-0.9l3.4-0.8l0,0c0,0,0.5-0.5,1.2-0.8l0,0l-5.1-0.8c0.9-2.2,3.2-5.8,8.5-5.7H252c0.8,0,1.6,0,1.1-1
		s-5.2-2.1-6-1.9l-14-0.1c-1.6,0-2.9,0.4-3.2,0.8l-1,1.3l-3.1-0.7c0,0,0.7-2,1.6-3.5s1.6-3.5,6-3.8h15.4c2.9,0,5.9,1.5,7.5,4.6
		l15.5,25.1c1,1.9,2.5,3.5,2.6,6.8l0.2,3l-5.2,0L269.3,202.7z"/>
	<g>
		<path class="st33" d="M230.2,178.9c0.9-2.2,3.2-5.8,8.5-5.7H252c0.8,0,1.6,0,1.1-1"/>
		<path class="st33" d="M257.7,180.4c-1.7-1.7-5.2-3.6-8.7-3.5c-3.5,0.1-14.8,2.1-15,4c-0.3,2.8,2.3,3.2,4.1,3.5l6.3,0.1
			c0.9,0,0.8,0.6,0.8,0.8s-0.4,0.4-0.8,0.4h-10c-0.8,0-1-0.3-1.2-0.8c-0.2-0.4-1.1-2.7-1.1-2.7c-0.2-0.2-1.1-0.8-1.5-0.9"/>
	</g>
</g>
<g id="Nerve">
	<path class="st25" d="M387.5,491.4c0.2,0,1.5,0.2,3,1.6c1.7,1.6,2,1.7,2.8,1.8c-0.3,0-1-0.4-2.1-1.6c-1-1.1-3-2.3-3.9-2.4
		c-1-4.2-1.3-7.9-1.5-9.5l-3.2-33.6c0.7,0.9,2,2.2,2.8,2.7c0.8,0.5,1.5,1.1,2.1,1.7c0.2,0.8,0.4,1.8-0.2,3.3c-0.6,1.6,0,2.2,0,2.2
		c0-1,0.1-1.4,0.6-2.7c0.4-1,0.3-1.8,0.3-2.2c1,1,1.9,2.2,2.8,3.7c-0.3-2.4-3-5-4.2-6.1c-1.2-1-3.2-3.2-4.4-5.4l-3.7-38.8
		c0.2,0.3,1.6,2.5,5.2,6.6c-1.7-2.1-4.8-7.1-5.4-8.6l-0.5-5.3c-1-7.3-4.3-12-13.3-12l-61.2,0.3c-2.3,0-4.9-3-4.9-3l-2.2,2.8
		c0,0,2.8,3.6,6,3.8l60.4-0.5c5.6,2.4,5.7,6.1,4.2,10.4c3.5-5.4,0.2-9.4-1.6-10.4c7.4,0.3,8.2,5.1,9.3,9.6l3.5,28.3
		c-0.2,1.3-0.7,3.1-2.3,5.8c-2.5,4.2-0.5,7.4-0.3,8.1c-0.4-1.7-1.3-4.2,0.8-7.5c1.2-1.9,1.8-3.2,2.2-3.9l4.1,32.7
		c-0.1,2.4-0.2,6.6-4.5,9.9c2.9-1.7,4.2-3.9,5-5.9l1.5,11.7c-0.2,2.7-0.9,6.7-3.1,11.6c-2.5,5.6-3.2,10.5-3.5,12.8
		c0.3-1.9,1.6-7.2,3.1-11c0.1,1.5,0.5,4.9,1.1,6.7c-0.2-1.2-0.8-6.1-0.8-7.5c0.1-0.3,0.2-0.5,0.3-0.7c1.7-3.8,2.8-6.8,3.2-8.6
		c0.3,2.5,1.3,7.1,3.1,12.2c0,0.7-0.1,1.6-0.5,2.3c-0.5,0.8-0.9,2.4-0.9,3.2c0-0.6,0.3-1.8,0.8-2.5c0.8-1.3,0.9-2.2,0.9-2.2
		c1,2.7,2.3,5.4,3.8,8C389.8,499.4,388.4,495.2,387.5,491.4z"/>
</g>
<g id="Esophagus">
	<g>
		<path class="st34" d="M274.8,203.9v76.5c-0.1,4.4,0.2,6.5,2.7,9l9.9,9.5l-3.4,4l-11.5-11c-2.8-2.8-2.9-5-3-10v-78H274.8z"/>
		
			<ellipse transform="matrix(0.6388 -0.7694 0.7694 0.6388 -128.2545 328.0307)" class="st35" cx="285.2" cy="300.6" rx="2.6" ry="1.2"/>
		<path class="st35" d="M282.1,301.2c-0.5-0.4-0.2-1.7,0.8-2.8c0.9-1.1,2.1-1.7,2.6-1.3"/>
		<path class="st36" d="M269.5,203.7v15.1c0,0.7,1.2,1.2,2.6,1.2c1.5,0,2.6-0.5,2.6-1.2v-15.1"/>
		<path class="st37" d="M274.2,204.5c-0.2,0.6-0.2,4.2,0,5.1c0.3,1.2,0.1,3.6-0.2,4.7c-0.3,1.3-0.1,4,0.3,5.2"/>
		<path class="st37" d="M272.9,205c-0.2,0.6-0.2,4.2,0,5.1c0.3,1.2,0.1,3.6-0.2,4.7c-0.3,1.3-0.1,4,0.3,5.2"/>
		<path class="st37" d="M271.8,205c-0.2,0.6-0.2,4.2,0,5.1c0.3,1.2,0.1,3.6-0.2,4.7c-0.3,1.3-0.1,4,0.3,5.2"/>
		<path class="st37" d="M270.5,204.8c-0.2,0.6-0.2,4.2,0,5.1c0.3,1.2,0.1,3.6-0.2,4.7c-0.3,1.3-0.1,4,0.3,5.2"/>
		<ellipse class="st38" cx="272.2" cy="203.7" rx="2.6" ry="1.2"/>
	</g>
	<line class="st3" x1="282.1" y1="301.2" x2="283.6" y2="302.6"/>
</g>
<g id="Brain_Detail">
	<g>
		<path class="st22" d="M276.2,24.7c0.2-1.2-0.3-3.2-1.7-3.6c-2-0.4-4-0.8-6-1c-0.6-0.1-1.3-0.2-1.9-0.2c-1.6,0.1-2.4,1.2-2.7,2
			c0.1-0.9-1-2.2-2.1-2.2c-2.2,0-4.5,0.1-6.7,0.3c-1.1,0.1-2.6,1-2.5,2.4c-0.4-1.4-2.3-1.6-3.2-1.5c-2.2,0.5-4.8,1.1-7,1.8
			c-0.9,0.3-1.2,1.4-1.1,2.6c-0.4-0.9-1.9-1.5-3.2-1.1c-2,0.8-3.9,1.6-5.8,2.6c-1,0.7-0.9,1.9-0.9,3c-1.2-1.1-2.4-1.2-3.4-0.6
			c-1.9,1.2-4.2,2.7-5.9,4.1c-0.8,0.6-1,2.1-0.5,3.5c-0.6-0.4-3-0.5-3.9,0.3c-1.5,1.5-3.1,3.3-4.4,4.9c-0.9,1.4-0.5,3-0.1,3.8
			c-0.6,0-2.8,0.4-3.4,1.3c-0.4,0.7-0.9,1.6-1.2,2.4c-0.6,1.3-1.3,2.7-1.8,4c-0.4,1.6,0.4,3.6,1,5.2c-1.1,0.4-2.7,2.2-2.7,2.9
			c-0.2,2.6,0,5.1,0.4,7.3c0.4,1.5,2.3,2.7,3.7,2.4c-0.8,0.6-2.2,2.8-1.6,4.3c1.4,3.1,3.3,5.6,5.2,7.3c1.2,1,3,0.7,4.3,0
			c-0.2,0.5-1.2,1.5,0.1,2.5c0.2,0,0.4,0.1,0.6,0.1l20.4,0c-1.2,1.7-3.7,8.2,2.2,12.5c8.1,5.9,22,2.1,27.8-6.2l2.2-3.2l37.8,0.1
			l2.3,2.2c1.2,0.8,3.5,2,5.8-0.8c0.6-0.8,1.4-2.1,2.2-3.7c0.4-0.7-0.3-1.8-1-2.3c0.9,0.3,2.3-0.6,2.5-1.1c0.7-2,1.3-4.4,1.6-7.1
			c0.1-0.9-1.1-1.9-2.2-2c1.2-0.1,2.4-1.9,2.5-2.6c0-1.9-0.1-4-0.3-6.2c-0.1-1.1-1.8-2-3.1-1.9c1.4-0.4,2.2-2.8,2.1-3.7
			c-0.5-2.1-1.2-4.1-2.1-6.1c-0.5-1-2.4-1.7-3.7-1.3c1.2-0.8,1.4-3.1,1-3.9c-1-1.6-2.1-3.2-3.3-4.7c-0.7-0.9-2.8-1.1-3.9-0.3
			c1-1,0.6-3.4,0.1-4.1c-1.7-1.7-3.7-3.5-5.6-5c-0.9-0.7-2.5-0.9-3.4,0.1c0.7-1.2-0.5-2.8-1.3-3.3c-1.7-1.1-4.1-2.4-5.9-3.3
			c-1-0.5-2.7-0.5-3.4,0.7c0.5-1.3-1.1-2.7-1.8-3.1c-2.3-0.9-4.6-1.7-7-2.4C278.9,22.3,277,22.6,276.2,24.7z"/>
		<path class="st23" d="M273.4,36c-0.1,0.6-0.1,2,0.9,2.4c0,0,1,0.5,1.4,0.7"/>
		<path class="st23" d="M306.9,64.4c4,10.3-1.5,17.9-1.9,18.3c-0.5,0.5-1.6,0.8-3.3-0.6l-5.3-5.1c-0.7-0.7-1.2-3.3-0.3-4.2
			c-0.7,0.7-2.1,2.1-3.7,1.1c0,0-3.9-3.4-4.7-4c-1.2-1.2-0.8-2.8,0.4-4.2s12.5-17,12.5-17c1-1,1.8-1.6,3-2.4s5.1-3.4,5.1-3.4"/>
		<path class="st22" d="M290.1,45.8c1.2,0.7,2.4,1.6,3.5,2.4"/>
		<path class="st24" d="M284.3,42.6c-0.5-0.3-0.9-1.8-0.8-2.4c-0.7,0.6-1.6,1.2-2.8,0.9c-0.3-0.1-0.5-0.2-0.8-0.3"/>
		<path class="st24" d="M293.5,48.1c-0.5-0.4-0.5-1.9-0.3-2.5c-0.8,0.4-1.6,0.8-2.8,0.3"/>
		<path class="st24" d="M302.3,56.6c0.6,0.7,0.8,1.1,1.3,1.9c0.3,0.4,0.4,0.5,0.8,1.2c-0.3-0.5,0.2-2,0.6-2.4
			C304.1,57.4,303.2,57.5,302.3,56.6z"/>
		<path class="st24" d="M307.9,67.9c-0.2-0.6,0.9-2.1,1.4-2.4c-0.9-0.1-1.8-0.3-2.4-1.4"/>
		<path class="st24" d="M308.1,75c0-0.5,1.5-1.1,2-1.3c-0.7-0.3-1.4-0.5-1.7-1.5"/>
		<path class="st24" d="M306.5,80.1c0.1-0.4,1.5-0.4,1.9-0.3c-0.4-0.4-1.1-1-1-1.8"/>
		<path class="st22" d="M238.2,85.3c4.8-0.9,5.9-5,5.6-7.2c-0.6-5.2-3.8-6-5.5-6.4c-3.6,0.1-6.2-0.7-8-1.9c-0.9-0.6-1.6-0.3-2.3,0
			c0.2-0.5,0.4-1.8,0-2.1c-0.7-1-1.2-2.1-1.6-3.2c-0.4-1-1.2-1.2-2-1.3c0.4-0.2,1.2-1.3,1.2-1.8c0-1,0.1-2.1,0.2-3.1
			c0.1-1-0.5-1.6-1.1-2.1c0.5,0,1.7-0.5,1.9-1c0.4-1.1,0.8-2.2,1.4-3.2c0.4-1,0-1.7-0.4-2.3c0.5,0.2,1.9,0,2.2-0.4
			c1-1.3,2.1-2.5,3.4-3.7c0.7-0.8,0.6-1.6,0.5-2.3c0.4,0.3,1.6,0.6,2.1,0.4c1.4-1,3.1-1.9,4.7-2.7c0,0,0,0,0,0
			c0.9-0.6,0.9-1.4,1-2.2c0.3,0.4,1.4,1,1.9,0.9c1.5-0.5,3.3-1,5-1.3c1.2-0.4,1.6-1.2,1.9-2.1c0.2,0.6,0.9,1.6,1.9,1.5
			c1.5-0.2,3.1-0.3,4.6-0.3c1.1-0.1,1.7-1,2.1-1.9c0.2,0.6,1.1,1.8,1.7,1.8c1.7,0,3.3,0,4.7,0.1c1.2-0.1,1.9-0.8,2.4-1.6
			c0.1,0.6,0.9,1.8,1.5,1.9c0.2,0,0.5,0.1,0.6,0.1c2.4,0.2,3.1-0.5,3.6-1.5l2.9-11.8"/>
		<path class="st39" d="M247.4,82.8c3.2-4.6,8.2-7.2,10-8.4l1,1.8c-1.6,1-5.3,3.1-8.4,6.5"/>
		<ellipse transform="matrix(0.21 -0.9777 0.9777 0.21 112.5955 311.2181)" class="st39" cx="248.9" cy="85.9" rx="3.7" ry="3.2"/>
		<path class="st25" d="M291.1,121.2l0.1-6.2c-0.1-2.4-0.3-3.8-2-6.7l-19.9-35c-2.3-2.3-7.3-2.1-10.1-0.5c-2.8,1.6-3.2,4.3-2.6,5.6
			c0.6,1.3,1.8,1.3,2.3,0.9c0.5-0.4,1-0.5,0.4-2.1l21.6,38.2c1.6,2.2,1.4,4.2,1.4,4.8c0,0.6,0,0.6,0,0.6"/>
		<path class="st40" d="M246.4,78.5l1.9-7.8c0-1.2-0.7-2.1-2.2-2.1H237c-1.8,0-5.1-2.5-5.1-6.8c0-5,6.4-14.6,27.3-14.3
			c5.6-0.2,17.8,0.7,24.3,6.8c2.3,2.9,3.8,5.9,1.6,10.2c-1.5,2.7-5.7,4.2-8.3,4.2h-24.1c-1.3,0.2-1.8,1.2-2.2,2.9l-1.8,6.8
			c1.7,1,2,2.5,1.8,3.2s-1.1,2.7-3.2,2.2S245.1,81,246.4,78.5z"/>
		<path class="st41" d="M248.6,78.9c1.3,0.8,1.6,2,1.5,2.6c-0.1,0.6-0.9,2.2-2.5,1.7c-1.7-0.5-1.8-2.2-0.8-4.2"/>
		<path class="st42" d="M275.4,68.7h-23.3c-2.2-0.2-2.6-4.2-0.1-6.9c2.5-2.7,7.4-5.2,14.6-3.4c7.2,1.8,8.8,6.5,9.3,7.6
			C276.4,67,276.5,68.3,275.4,68.7z"/>
		<path class="st24" d="M288.1,65.7c-0.6,0.5-2.7,3.3-7.3,3"/>
		<path class="st43" d="M271.4,68.7l4.1,5c0.5,1.1,0.9,1,0.9,3.2l0,7c0,1.2,0.2,2.4,0.7,3s12.8,22.2,12.8,22.2l4.3-2.9l8,0
			c7-0.6,12.2-10.1,8-16.1l-21.2-18.9c-3.4-2.5-5.5-2.3-7.3-2.5L271.4,68.7z"/>
		<ellipse transform="matrix(0.9412 -0.3378 0.3378 0.9412 -14.6268 95.627)" class="st44" cx="267.4" cy="89.8" rx="6" ry="8.6"/>
		<path class="st45" d="M256.4,74.7C256.4,74.8,256.4,74.7,256.4,74.7c-1,0.9-4.4,2.9-4.4,2.9c-1.1,0.5-2.8-0.2-2.6-1.4l1.2-4.6
			c0.4-1.7,0.8-2.8,2.2-2.9l6,0c0.7,0.2,0.9,1.2,0.6,1.7C258.9,71.5,258.9,73.1,256.4,74.7z"/>
		<path class="st46" d="M260.5,68.6l3.3,4.8c0.6,0.8,1.9,1.2,3.2-0.1l3.6-4.6L260.5,68.6z"/>
		<path class="st22" d="M281.8,65.6c0.3-0.8,1.1-3.1,2.7-3c1.6,0.1,1.5,1.7,1.2,2.9c-0.3,1.2-3.9,8-11.9,11.2c-2.3,1-2.8,1.5-4,3
			c-1.2,1.5-4.3,4.8-7.1,2.5s0.2-5.3,0.9-5.7c0.7-0.3,13.1-5.6,14.2-6.5C278.8,69.1,280.8,68,281.8,65.6z"/>
		<path class="st47" d="M262,77.8c5.1-3.5,5.4-2.5,13.5-6.5s7.1-8,7.4-10c0.8-11.1-18.2-13.8-20.9-13.9s-25.4-1.1-25.5,10.8
			s12.2,13.8,17.6,14.4c12.7,0.9,15.4-8.6,10-15.2c-0.1-1.6,1.5-3.9,1.5-3.9s1.1-1.8,2.5-1.5c7.8,2.6,11.6,7.1,10.5,12.2
			s-8.4,7.4-9.3,7.9c-0.9,0.5-6.7,2.7-8.4,4.3"/>
		
			<ellipse transform="matrix(6.629281e-02 -0.9978 0.9978 6.629281e-02 175.2854 315.1021)" class="st47" cx="256" cy="63.9" rx="8.8" ry="12.7"/>
		<ellipse transform="matrix(0.727 -0.6867 0.6867 0.727 15.1506 198.726)" class="st48" cx="257.5" cy="80.3" rx="5.2" ry="3.7"/>
		<path class="st49" d="M242.7,55.6c2.2-2.6,7.2-6.4,20.7-5.2"/>
		<path class="st40" d="M264.5,51.5c-1.7-0.1-1.6-0.1-2.2,0c-0.6,0.1-1.1,0.8-1.2,1.2c-0.1,0.4-0.4,2.1-0.4,2.1
			c-0.1,0.3,0.1,0.6,0.6,0.8s0.8,0.2,0.8,0.2c0.2,0.1,0.8-0.1,1.1-0.9c0.3-0.8,1.2-2.2,1.6-2.5C265.4,51.8,264.5,51.5,264.5,51.5z"
			/>
		<path class="st40" d="M259.1,51c-1,0-1.4-0.2-2,0c-0.6,0.2-0.7,1.1-0.6,1.6c0,0.4,0.1,1.5,0.1,1.5c0,0.3,0.3,0.6,0.8,0.6
			c0.5,0,1.3,0.3,1.3,0.3c0.2,0,0.8-0.3,0.9-1.2c0.1-0.9,0.2-1.2,0.2-1.7C259.9,51.4,259.1,51,259.1,51z"/>
		<path class="st40" d="M253.9,51.4c-1,0.2-0.9,0-1.4,0.3c-0.5,0.3-0.8,0.7-0.7,1.1c0.1,0.4,0.1,1.6,0.1,1.6
			c0.1,0.3,0.4,0.5,0.9,0.4c0.5-0.1,1.3-0.1,1.3-0.1c0.2,0,0.7-0.3,0.6-1.1c0-0.9,0-0.7-0.1-1.2C254.8,51.6,253.9,51.4,253.9,51.4z"
			/>
		<line class="st22" x1="295.3" y1="106.2" x2="288" y2="106.2"/>
		<line class="st22" x1="307.4" y1="103.9" x2="286.8" y2="103.9"/>
		<line class="st22" x1="309.4" y1="101.7" x2="285.5" y2="101.7"/>
		<line class="st22" x1="310.6" y1="99.5" x2="284.2" y2="99.5"/>
		<line class="st22" x1="311.4" y1="97.3" x2="283" y2="97.3"/>
		<line class="st22" x1="311.6" y1="95.1" x2="281.8" y2="95.1"/>
		<line class="st22" x1="311.2" y1="92.8" x2="303.6" y2="92.8"/>
		<line class="st22" x1="310.3" y1="90.6" x2="303.7" y2="90.6"/>
		<line class="st24" x1="296" y1="72.8" x2="299.8" y2="68.7"/>
		<line class="st24" x1="304.9" y1="57.3" x2="307.6" y2="55.7"/>
		<line class="st24" x1="293.2" y1="45.6" x2="294.5" y2="43.4"/>
		<line class="st24" x1="283.5" y1="40.3" x2="284.7" y2="38"/>
		<line class="st24" x1="267.6" y1="35.9" x2="267.8" y2="32.7"/>
		<line class="st24" x1="258.7" y1="35.7" x2="258.6" y2="32.7"/>
		<line class="st24" x1="250.1" y1="36.5" x2="250" y2="33.5"/>
		<line class="st24" x1="241.3" y1="38.8" x2="240.1" y2="36.2"/>
		<line class="st24" x1="233.6" y1="43.5" x2="231.4" y2="41.2"/>
		<line class="st24" x1="227.6" y1="49.8" x2="224.7" y2="48.2"/>
		<line class="st24" x1="224.7" y1="56.3" x2="221.2" y2="55.7"/>
		<line class="st24" x1="224.5" y1="63.3" x2="221" y2="64.4"/>
		<line class="st24" x1="228" y1="70" x2="221.9" y2="73.8"/>
		<path class="st24" d="M217.1,82.7l2.7-1.8c1.2-0.8,3-1.4,4.2-1.4l7.8-1.1"/>
		<line class="st24" x1="263.8" y1="24.7" x2="263.9" y2="21.7"/>
		<line class="st24" x1="253" y1="25.4" x2="252.6" y2="22.4"/>
		<line class="st24" x1="242.1" y1="28" x2="241.3" y2="25.2"/>
		<line class="st24" x1="232.7" y1="32.3" x2="231.5" y2="29.7"/>
		<line class="st24" x1="223.6" y1="38.8" x2="221.7" y2="36.7"/>
		<line class="st24" x1="216.2" y1="47.3" x2="213.2" y2="45.7"/>
		<line class="st24" x1="211.5" y1="59.2" x2="207.8" y2="58.6"/>
		<line class="st24" x1="212.6" y1="70.2" x2="209.2" y2="71.2"/>
		<line class="st24" x1="288" y1="30.3" x2="289.1" y2="28.1"/>
		<line class="st24" x1="298.3" y1="36.1" x2="299.6" y2="33.9"/>
		<line class="st24" x1="315.8" y1="63.6" x2="318.3" y2="62.8"/>
		<line class="st24" x1="309.4" y1="65.5" x2="311.9" y2="64.7"/>
		<line class="st24" x1="310" y1="73.7" x2="312.3" y2="73.8"/>
		<line class="st24" x1="317.2" y1="73.4" x2="319.5" y2="73.5"/>
		<line class="st24" x1="315" y1="82.4" x2="317.5" y2="83.7"/>
		<line class="st24" x1="308.2" y1="79.8" x2="310.7" y2="81.1"/>
		<line class="st24" x1="312.6" y1="53.2" x2="315" y2="51.8"/>
		<path class="st50" d="M283,95c-1.1-2.1-0.1-4.1,0.7-4.7c-2.6-0.1-4.4-1.2-5.5-3.2c-1.5-2.6-0.3-10.4,4.5-12.2
			c5.8-2.1,9.3-2.2,15.1,3.9c1.4,1.2,8.1,6,5.5,16.1L283,95z"/>
		<g>
			<polygon class="st51" points="292.3,85.3 287.7,77.7 291.5,85.7 			"/>
			<polygon class="st51" points="292.5,85.7 292,85.9 297.5,82.6 286.2,88.5 286.6,89.2 291.8,86.1 296.4,93.6 			"/>
		</g>
		<polyline class="st52" points="290,82.6 285.3,82.2 282.7,79.6 		"/>
		<line class="st51" x1="285.2" y1="82.2" x2="282.1" y2="83.2"/>
		<line class="st51" x1="291.3" y1="83.6" x2="294.1" y2="78.1"/>
		<line class="st51" x1="292.6" y1="81" x2="295.4" y2="81"/>
		<path class="st24" d="M280.8,89.6c0.4-0.4,0.7-0.6,1.3-0.9c1.8-1,3.7-1,4.3,0c0.6,1-0.4,2.7-2.2,3.7c-0.6,0.4-1.1,0.5-1.7,0.6"/>
		<line class="st51" x1="293.9" y1="88.2" x2="299" y2="89.2"/>
		<line class="st51" x1="293.5" y1="88.8" x2="291" y2="91.6"/>
		<line class="st51" x1="294.5" y1="84.4" x2="300.3" y2="85.6"/>
	</g>
	<path id="_x3C_RO_Brain_x3E_" class="st53" d="M321.8,70.9c0-1.9-0.1-4-0.3-6.2c-0.1-1.1-1.8-2-3.1-1.9c1.4-0.4,2.2-2.8,2.1-3.7
		c-0.5-2.1-1.2-4.1-2.1-6.1c-0.5-1-2.4-1.7-3.7-1.3c1.2-0.8,1.4-3.1,1-3.9c-1-1.6-2.1-3.2-3.3-4.7c-0.7-0.9-2.6-1-3.8-0.4l0,0
		c0,0,0,0-0.1,0.1c1-1,0.6-3.4,0.1-4c-1.7-1.7-3.7-3.5-5.6-5c-0.9-0.7-2.5-0.9-3.4,0.1c0.7-1.2-0.5-2.8-1.3-3.3
		c-1.7-1.1-4.1-2.4-5.9-3.3c-1-0.5-2.7-0.5-3.4,0.7c0.5-1.3-1.1-2.7-1.8-3.1c-2.3-0.9-4.6-1.7-7-2.4c-1.4-0.2-3.3,0.1-4.1,2.1l0,0
		l0,0c0.2-1.2-0.3-3.2-1.7-3.6c-2-0.4-4-0.8-6-1c-0.6-0.1-1.3-0.2-1.9-0.2c-1.6,0.1-2.4,1.2-2.7,2c0.1-0.9-1-2.2-2.1-2.2
		c-2.2,0-4.5,0.1-6.7,0.3c-1.1,0.1-2.6,1-2.5,2.4c-0.4-1.4-2.3-1.6-3.2-1.5c-2.2,0.5-4.8,1.1-7,1.8c-0.9,0.3-1.2,1.4-1.1,2.6
		c-0.4-0.9-1.9-1.5-3.2-1.1c-2,0.8-3.9,1.6-5.8,2.6c-1,0.7-0.9,1.9-0.9,3c-1.2-1.1-2.4-1.2-3.4-0.6c-1.9,1.2-4.2,2.7-5.9,4.1
		c-0.8,0.6-1,2.1-0.5,3.5c-0.6-0.4-3-0.5-3.9,0.3c-1.5,1.5-3.1,3.3-4.4,4.9c-0.9,1.4-0.5,3-0.1,3.8c-0.6,0-2.8,0.4-3.4,1.3
		c-0.4,0.7-0.9,1.6-1.2,2.4c-0.6,1.3-1.3,2.7-1.8,4c-0.4,1.6,0.4,3.6,1,5.2c-1.1,0.4-2.7,2.2-2.7,2.9c-0.2,2.6,0,5.1,0.4,7.3
		c0.4,1.5,2.3,2.7,3.7,2.4c-0.8,0.6-2.2,2.8-1.6,4.3c1.4,3.1,3.3,5.6,5.2,7.3c1.2,1,3,0.7,4.3,0c-0.2,0.5-1.2,1.5,0.1,2.5
		c0.2,0,0.4,0.1,0.6,0.1l20.4,0c-1.2,1.7-3.7,8.2,2.2,12.5c6.6,4.8,16.9,3.2,23.7-2c1.8,2,4.2,2.9,6.2,2.1c0.2-0.1,0.4-0.2,0.6-0.3
		l10.1,17.8c1.6,2.2,1.4,4.2,1.4,4.8c0,0.6,0,0.6,0,0.6l8.8,0.3l0.1-6.2c-0.1-2.4-0.3-3.8-2-6.7l-11.4-20l0.1,0
		c2.9,5,11.8,20.7,11.8,20.7l4.3-2.9l8,0c7-0.6,12.2-10.1,8-16.1l0.5,0.4c1.2,0.8,3.5,2,5.8-0.8c0.6-0.8,1.4-2.1,2.2-3.7
		c0.4-0.7-0.3-1.8-1-2.3c0.9,0.3,2.3-0.6,2.5-1.1c0.7-2,1.3-4.4,1.6-7.1c0.1-0.9-1.1-1.9-2.2-2C320.5,73.4,321.8,71.6,321.8,70.9z"
		/>
	<path class="st54" d="M451.6,88.4L451.6,88.4l1.4,1.3L451.6,88.4z"/>
</g>
<g id="Muscle-Skeleton">
	<path class="st55" d="M263.1,489.8c0.2-3.8,0-8.1-0.4-12.9c-0.7,0.4-1.9,0.6-3.3,0.1c-0.5-0.2-1-0.5-1.5-0.8
		c-6.1-4.7-20.4-3.3-24.7-1c-0.4,0.3-0.8,0.4-1.5,0.4c-1.8,0-3-0.8-4-3.8s-3-42.1-3-44.1c-0.2-1.5-1.7-19.8-1-25.2
		c0.1-0.5,1.5-14.7,3.2-22.3l47.6,27.5c0,0-4.5,34-5.3,37.3c-0.4,1.8-1.8,10.9-3,18.2c0,2.1,0.1,4.8,0,7.3
		C266.3,470.6,265.1,483.1,263.1,489.8"/>
	<path class="st56" d="M249.3,474.6v-50.3h-10.2v50.3h0.2c-4.7,2-8,6.6-8,12c0,1.7,0.2,3.3,0.9,4.7c0.2,0.5,0.7,0.9,1.3,0.9h21.7
		c0.9,0,1.2-0.8,1.2-0.8c0.6-1.5,0.9-3.1,0.9-4.8C257.3,481.2,254,476.6,249.3,474.6z"/>
	<path class="st57" d="M238.5,508.1c2.4-1.9,3.2-5,1.6-7c-1.5-2-4.8-2.1-7.2-0.2c-2.4,1.9-3.2,5-1.6,7c0.7,0.9,1.7,1.4,2.9,1.5v76.5
		c-0.9,0.6-1.5,1.5-1.5,2.7c0,1.7,1.4,3.2,3.2,3.2c1.7,0,3.2-1.4,3.2-3.2c0-1-0.5-1.9-1.2-2.4v-77.7
		C238,508.4,238.3,508.2,238.5,508.1z"/>
	<path class="st57" d="M254.4,498.2c1.7-2.2,0.4-3.8-0.6-3.8h-16.9c-1.4,0.1-3.1,1.2-1.2,3.6l6.3,7.9v67.6c0,0-3.5,3.5-4.7,4.8
		c-1.2,1.3-2.2,2.2-2,3l-0.1,1.1c0,0.7,1.2,1.2,1.9,1.2h3.8l8.2,4.8c1.7,0.8,3.5-0.2,3.8-2l0.6-3.1c0.7-1.7,0.2-2.8-0.2-4.3l-3.4-10
		l-0.2,0.1v-62.7L254.4,498.2z"/>
	<ellipse class="st56" cx="244.3" cy="489.4" rx="5.7" ry="6.8"/>
	<path class="st55" d="M230.1,415.6c-2,8.8-0.2,31.8,5.5,50.8c1.2,2,0.8,4.5-0.5,6.2s-1.5,2.5-3.2,2.5s-3-0.8-4-3.8
		s-2.8-42.8-2.8-44.8S230.1,415.6,230.1,415.6z"/>
	<path class="st55" d="M270,404.9c-0.5,3.2-7.8,34.5-15.5,45.8c-7.8,11.2-4,16-3.2,17s4.2,7.2,8.2,8.8c4,1.5,5-1.8,5-3.5
		c0,0,4-25,4.8-28.2s5.2-37.2,5.2-37.2L270,404.9z"/>
	<path class="st55" d="M228.6,381.3c0,3.5-3,17.5-4.5,20.7c-1.5,3.2,0.3,24.5,0.5,26c1.7-6,14.5-29,12.7-41.8L228.6,381.3z"/>
	<path class="st55" d="M229.8,436.3c2.3-6,22.8-30.8,22-41.8l15,8.7c-0.5,1.5-19.8,31-21,32.5s-10.8,13-12.7,21.7L229.8,436.3z"/>
	<path class="st55" d="M232.5,383.3l5.7,3.5c-0.2,12.7,4.5,22.3,8.3,27.8c3.8,5.4,12.7,13.8,15.8,24.3c3.2,10.5,4.3,17.8,4,31.2
		c0,0-1.2,12.5-3.2,19.2c0.7-13.2-1.7-34.5-9.3-46c-7.2-10.8-11.1-19.3-15-27.5C235.3,408.4,231.1,393.6,232.5,383.3z"/>
</g>
<g id="Artery_Tibial">
	<path class="st58" d="M249.3,543.1c0.8,1,4.2,4.5,5.7,7.5c0.2-2.7-3.8-6.8-4.8-9.7c-0.9-2.5-1.2-6.1-1.1-8.1
		c1.1-3.8,2.5-7.7,3.9-11.8c4-11,2.7-19.3,1.5-25l0.2-0.3l-2.8,4.7c1.2,5.7,2.3,7.8-1.7,18.8s-7,22.7-7.7,29.5
		c-0.7,6.8-0.5,16.2,2.2,24.8c0.1,0.4,0.3,0.8,0.4,1.2c0.1,1.8-0.7,6.2-3.3,9.3c-2.6,3.2-5,7.4-6.9,13c0.8-1.9,4.9-8.8,6.4-10.4
		s4.6-6,4.8-8.5l0.6,1.8c2.8,8.4,5.7,14.9,1.8,23.1c4.2-9,2.3-16.3-0.3-25c-2.7-8.7-4-17.8-3.5-24.7c0.5-6.2,0.7-6.6,2.4-12.6
		l0.6-2.4C247.6,539.9,248.5,542.1,249.3,543.1z"/>
</g>
<g id="Liver_x2B_Gall_Bladder">
	<g>
		<g>
			<path class="st59" d="M229.7,330.2c-1.9-2.7-7-15,3.5-27.1c10.5-12.1,22.8-7.6,23.3-7.3c0.5,0.4,1,1,0.9,1.8
				c-0.2,0.5,0.7-1.4,4.4-1.2c3.7,0.2,14.2,5.8,14.9,7.5c0.7,1.8,3.2,4.5-3.2,6.3c-6.3,1.8-27.5,14.9-29.6,17
				C241.7,329.2,232.3,334,229.7,330.2z"/>
			<path class="st60" d="M251.5,314.4c-0.6-0.3-1.4-0.1-1.7,0.6c-0.3,0.6-0.1,1.4,0.6,1.7l4.5,2.2c0.6,0.3,1.4,0.1,1.7-0.6
				c0.3-0.6,0.1-1.4-0.6-1.7L251.5,314.4z"/>
			<path class="st61" d="M234.3,330.4c2.1-0.8,2.6-2.5,3.3-3.8c2.9-5.5,8.2-10.1,14.6-13.2c0.6-0.7,0.6-0.4,1-1.8"/>
			<path class="st61" d="M275.2,307.9c-1.3,0.7-1.7,0.9-2.8,0.8c-6.2,0-12.4,1.3-17.9,3.6c-0.7,0-1.2-0.1-1.5-1.3
				c-0.6-2.6,1.7-11,4.3-13.4"/>
			<path class="st62" d="M259.7,315.8c-1.1-0.9-3.8-2.4-5.3-2.9"/>
		</g>
	</g>
</g>
<g id="Pancreas">
	<path class="st63" d="M267.3,331.9c-1.4-2.6-1.3-8.1,3.9-10.3c6.4-2.8,5.4-1,11.8-2.6c5.1-1.2,14.6-5,16.8-7.1
		c3.3-3.3,8.1,2.1-1.4,9.5c-5.4,4.2-13.3,6.6-14.2,7.4c-0.9,0.8-2.8,2.2-4.3,4.4C278.8,334.8,270.9,338.6,267.3,331.9z"/>
</g>
<g id="Spleen">
	<g>
		<path class="st64" d="M308.8,305.1c1,6.3-2.1,12-6.7,13.6c-3.8,1.3-8.4-7.5-9.2-12c-1-6.3,0.5-10.8,5.3-11.6
			C303.1,294.4,307.8,298.8,308.8,305.1z"/>
		<path class="st64" d="M302.6,316.9c5.7-3.2,1-15.8,0-16.3c-1.2-1.7-5.2-4.7-8.2-1.8"/>
	</g>
</g>
<g id="Stomach">
	<path class="st65" d="M278.8,340.2c-15.8-4.2-13.3-12.5-12.5-15.2c0.8-2.7,5.4-5.7,9.7-3.2c3.2,1.8,2,2.3,9.7,3.3
		c14.7,1,19.7-9.5,20.3-18c0.7-8.5-6-13.5-12.2-13.3c-4.7,0.8-8.5,1.9-12.5,12c-1.5,3.8-5.5,7-10.8,9.2c-1.8,0.8-7,1.8-9.7,10
		c-0.8,5.7,1.7,14,11.7,17.2"/>
</g>
<g id="Intestine">
	<path class="st66" d="M295.7,339.2v1c-1.1,0-2.1,1.3-2.1,3s0.9,2.9,2.1,2.9c-1.1,0-2.1,1.3-2.1,2.9c0,1.6,0.9,3,2.1,3
		c-1.1,0-2.1,1.3-2.1,3s0.9,2.9,2.1,2.9c-1.1,0-2.1,1.3-2.1,2.9c0,1.6,0.9,3,2.1,3c-1.1,0-2.1,1.3-2.1,3s0.9,2.9,2.1,2.9
		c-1.1,0-2.1,1.3-2.1,2.9c0,1.6,0.9,3,2.1,3c-1.1,0-2.1,1.3-2.1,3c0,1.2,0.5,2.2,1.2,2.7c-0.9-0.2-2,0.4-2.8,1.4c-0.7,1-1,2.2-0.7,3
		c-0.5-0.7-1.6-1.2-2.8-1.2c-1.3,0-2.5,0.6-2.9,1.4c0.1-0.8-0.1-1.8-1-2.6c-1.2-1.1-3-1.5-3.8-0.6c0.4-1.1-0.4-2.4-1.9-3.1
		c-1.5-0.6-3-0.4-3.4,0.7c0-0.7-1-1.2-1.3-1.2c-5-0.2-10.1,4.1-8.6,12.9s6.8,12.2,7.7,13.5c0.5,0.2,1.4,1,2.4,0.1s1-1.6,0.6-2.5
		s-3-6.4-3.2-9.9c-0.1-3.1,0.7-3.6,1.6-3.6c1.1,1.1,3.2,1.4,4,0.6c-0.9,1.3-0.1,3.5,1.8,4.8c1.9,1.3,4.3,0.8,5.2-0.6
		c0.2,1.6,2.2,2.8,4.5,2.4c2.3-0.3,3.9-2.2,3.7-3.8c0.9,1.1,3.2,1.3,4.8-0.1c1.6-1.3,2.3-3.4,1.3-4.5c1.3,0.7,3,0.1,4.1-1.7
		c1-1.8,1.1-4.6-0.1-5.3l0,0c1.1,0,2.1-1.1,2.1-2.7c0-1.6-0.9-3-2.1-3c1.1,0,2.1-1.4,2.1-3c0-1.6-0.9-2.9-2.1-2.9
		c1.1,0,2.1-1.3,2.1-2.9s-0.9-3-2.1-3c1.1,0,2.1-1.3,2.1-3c0-1.6-0.9-2.9-2.1-2.9c1.1,0,2.1-1.3,2.1-2.9s-0.9-3-2.1-3
		c1.1,0,2.1-1.3,2.1-3c0-1.6-0.9-2.9-2.1-2.9c1.1,0,2.1-1.3,2.1-2.9s-0.9-3-2.1-3"/>
	<path class="st67" d="M299.8,340.9v37.3c0,7.2-4.8,12.3-10,12.5c-5.2,0.2-10.2-2.8-11.9-5.3"/>
	<path class="st66" d="M246.2,394.9c-1.7-0.5-2.7-2.4-3.1-3.2c1.3-1.1,2.1-2.8,2.1-4.6c0-1.4-0.5-2.7-1.3-3.7
		c0.7-0.5,1.1-1.5,1.1-2.7c0-1.6-0.9-3-2.1-3c1.1,0,2.1-1.3,2.1-3c0-1.6-0.9-2.9-2.1-2.9c1.1,0,2.1-1.3,2.1-2.9c0-1.6-0.9-3-2.1-3
		c1.1,0,2.1-1.3,2.1-3s-0.9-2.9-2.1-2.9c1.1,0,2.1-1.3,2.1-2.9s-0.9-3-2.1-3c1.1,0,2.1-1.3,2.1-3c0-1.6-0.9-2.9-2.1-2.9
		c1.1,0,2.1-1.3,2.1-2.9s-0.9-3-2.1-3v-1l-10.4-5.3v3.4c0,1.6,0.9,3,2.1,3c-1.1,0-2.1,1.3-2.1,3s0.9,2.9,2.1,2.9
		c-1.1,0-2.1,1.3-2.1,2.9c0,1.6,0.9,3,2.1,3c-1.1,0-2.1,1.3-2.1,3s0.9,2.9,2.1,2.9c-1.1,0-2.1,1.3-2.1,2.9s0.9,3,2.1,3
		c-1.1,0-2.1,1.3-2.1,3c0,1.6,0.9,2.9,2.1,2.9c-1.1,0-2.1,1.3-2.1,2.9c0,1.6,0.9,3,2.1,3c-1.1,0-2.1,1.3-2.1,3
		c0,1.2,0.6,2.4,1.3,2.8c-0.7,1-1,2.3-1,3.5c0,3.4,2.8,6.2,6.2,6.2c1.2,0,1.8-0.2,2.8-0.7l0.1,0c0.4,0.8,1.8,3.1,3.9,3.7
		c0.4,0.1,0.7-0.1,0.9-0.5C246.8,395.4,246.5,395,246.2,394.9z"/>
	<path class="st68" d="M284.2,342.1c-1.9,0-3.3,1.7-3,3.7c-0.3-2-2-3.7-4-3.7c-1.9,0-3.3,1.7-3.1,3.7c-0.3-2-2.1-3.7-4-3.7
		c-1.9,0-3.3,1.7-3,3.7c-0.3-2-2-3.7-4-3.7c-1.9,0-3.3,1.6-3.1,3.6c-0.3-2-2.1-3.7-4-3.7c-1.9,0-3.3,1.7-3,3.7c-0.3-2-2-3.7-4-3.7
		c-1.9,0-3.7,1.5-4.1,3.7l-2.6,12.2c-0.3,2,1.1,3.7,3,3.7c1.9,0,3.7-1.6,4-3.7c-0.3,2,1.1,3.7,3,3.7c1.9,0,3.8-1.6,4-3.7
		c-0.3,2,1.1,3.7,3.1,3.7c1.9,0,3.7-1.6,4-3.7c-0.3,2,1.1,3.7,3,3.7c1.9,0,3.8-1.7,4-3.7c-0.3,2,1.1,3.6,3.1,3.6
		c1.9,0,3.7-1.6,4-3.7c-0.3,2,1.1,3.7,3,3.7c1.9,0,3.8-1.6,4-3.7c-0.3,2,1.1,3.7,3.1,3.7c0.7,0,1.5-0.2,2.1-0.5
		c-1.1,0.6-1.7,1.9-1.5,3.4c-0.3-2-2.1-3.7-4-3.7c-1.9,0-3.3,1.7-3,3.7c-0.3-2-2-3.7-4-3.7c-1.9,0-3.3,1.7-3.1,3.7
		c-0.3-2-2.1-3.7-4-3.7c-1.9,0-3.3,1.7-3,3.7c-0.3-2-2-3.7-4-3.7c-1.9,0-3.3,1.6-3.1,3.6c-0.3-2-2.1-3.7-4-3.7c-1.9,0-3.3,1.7-3,3.7
		c-0.3-2-2-3.7-4-3.7c-1.9,0-3.6,1.8-4.1,3.7l-2.6,12.2c-0.3,2,1.1,3.7,3,3.7c1.9,0,3.7-1.6,4-3.7c-0.3,2,1.1,3.7,3,3.7
		c1.9,0,3.8-1.6,4-3.7c-0.3,2,1.1,3.7,3.1,3.7c1.9,0,3.7-1.6,4-3.7c-0.3,2,1.1,3.7,3,3.7c1.9,0,3.8-1.7,4-3.7
		c-0.3,2,1.1,3.6,3.1,3.6c1.9,0,3.7-1.6,4-3.7c-0.3,2,1.1,3.7,3,3.7c1.9,0,3.8-1.6,4-3.7c-0.3,2,1.1,3.7,3.1,3.7
		c0.7,0,1.4-0.2,2-0.6c-1,0.6-1.6,1.8-1.4,3.2c-0.3-2-2.1-3.7-4-3.7c-1.9,0-3.3,1.7-3,3.7c-0.3-2-2-3.7-4-3.7
		c-1.9,0-3.3,1.7-3.1,3.7c-0.3-2-2.1-3.7-4-3.7c-1.9,0-3.3,1.7-3,3.7c-0.3-2-2-3.7-4-3.7c-1.9,0-3.3,1.6-3.1,3.6
		c-0.3-2-2.1-3.7-4.1-3.7c-1.9,0-4.4,1.7-4.1,3.8l0.6,2.3H245c0.3,0.9,0.3,2.9-0.6,4.3l9.6,0c1.9,0,3.3-1.7,3.1-3.7
		c0.3,2,2,3.7,4,3.7c1.9,0,3.3-1.6,3.1-3.6c0.3,2,2.1,3.7,4,3.7c1.9,0,3.3-1.7,3-3.7c0.3,2,2,3.7,4,3.7c1.9,0,3.3-1.7,3.1-3.7
		c0.3,2,2.1,3.7,4,3.7c1.9,0,3.3-1.7,3-3.7c0.3,2,2,3.7,4,3.7c3.4,0,3.8-3.2,4.1-4.8l2.4-11.3c0.3-2-1.1-3.6-3-3.6
		c-1.9,0-3.8,1.6-4,3.7c0.3-2-1.1-3.7-3.1-3.7c-1.9,0-3.7,1.6-4,3.7c0.3-2-1.1-3.7-3-3.7c-1.9,0-3.8,1.7-4,3.7
		c0.3-2-1.1-3.6-3.1-3.6c-1.9,0-3.7,1.6-4,3.7c0.3-2-1.1-3.7-3-3.7c-1.9,0-3.8,1.6-4,3.7c0.3-2-1.1-3.7-3.1-3.7
		c-1.9,0-3.7,1.6-4,3.7c0.3-2-1.1-3.7-3-3.7c-0.4,0-0.9,0.1-1.4,0.3c0.8-0.7,1.1-1.7,1-2.9c0.3,2,2.1,3.7,4,3.7c1.9,0,3.3-1.7,3-3.7
		c0.3,2,2,3.7,4,3.7c1.9,0,3.3-1.6,3.1-3.6c0.3,2,2.1,3.7,4,3.7c1.9,0,3.3-1.7,3-3.7c0.3,2,2,3.7,4,3.7c1.9,0,3.3-1.7,3.1-3.7
		c0.3,2,2.1,3.7,4,3.7c1.9,0,3.3-1.7,3-3.7c0.3,2,2,3.7,4,3.7c3.4,0,3.7-3.3,4.1-4.8l2.4-11.4c0.3-2-1.1-3.7-3-3.7
		c-1.9,0-3.8,1.6-4,3.7c0.3-2-1.1-3.7-3.1-3.7c-1.9,0-3.7,1.6-4,3.7c0.3-2-1.1-3.7-3-3.7c-1.9,0-3.8,1.7-4,3.7
		c0.3-2-1.1-3.6-3.1-3.6c-1.9,0-3.7,1.6-4,3.7c0.3-2-1.1-3.7-3-3.7c-1.9,0-3.8,1.6-4,3.7c0.3-2-1.1-3.7-3.1-3.7
		c-1.9,0-3.7,1.6-4,3.7c0.3-2-1.1-3.7-3-3.7c-0.4,0-0.9,0.1-1.4,0.3c0.8-0.7,1.1-1.7,1-2.9c0.3,2,2.1,3.7,4,3.7c1.9,0,3.3-1.7,3-3.7
		c0.3,2,2,3.7,4,3.7c1.9,0,3.3-1.6,3.1-3.6c0.3,2,2.1,3.7,4,3.7c1.9,0,3.3-1.7,3-3.7c0.3,2,2,3.7,4,3.7c1.9,0,3.3-1.7,3.1-3.7
		c0.3,2,2.1,3.7,4,3.7c1.9,0,3.3-1.7,3-3.7c0.3,2,2.1,3.4,4,3.7c1.9,0.2,4.5-2.5,4.1-4.8c-0.1-1.6-0.2-4.7-4.4-6.6"/>
	<g>
		<path class="st69" d="M288.2,345.8c-0.3-2-2.1-3.7-4-3.7"/>
		<line class="st70" x1="288.7" y1="347.5" x2="288.3" y2="345.8"/>
	</g>
	<line class="st70" x1="257" y1="348.8" x2="256.6" y2="347.1"/>
	<line class="st70" x1="250" y1="348.9" x2="249.5" y2="347.2"/>
	<path class="st71" d="M246.4,352.5c0.8,0,1.5-0.3,2-0.7"/>
	<path class="st71" d="M246,355c0.2-1.4,1.1-2.7,2.4-3.3"/>
	<line class="st70" x1="285.3" y1="348.8" x2="284.8" y2="347.1"/>
	<line class="st70" x1="281.7" y1="347.4" x2="281.2" y2="345.8"/>
	<line class="st70" x1="271.1" y1="348.9" x2="270.7" y2="347.2"/>
	<line class="st70" x1="267.5" y1="347.5" x2="267.1" y2="345.8"/>
	<line class="st70" x1="278.2" y1="348.9" x2="277.8" y2="347.2"/>
	<line class="st70" x1="274.6" y1="347.5" x2="274.2" y2="345.8"/>
	<line class="st70" x1="253.4" y1="347.4" x2="253" y2="345.8"/>
	<line class="st70" x1="264.1" y1="348.8" x2="263.6" y2="347.1"/>
	<line class="st70" x1="260.5" y1="347.4" x2="260" y2="345.8"/>
	<line class="st70" x1="249.3" y1="358.2" x2="249.8" y2="356.5"/>
	<line class="st70" x1="252.9" y1="356.8" x2="253.4" y2="355.1"/>
	<line class="st70" x1="263.5" y1="358.2" x2="263.9" y2="356.5"/>
	<line class="st70" x1="267.1" y1="356.8" x2="267.5" y2="355.2"/>
	<line class="st70" x1="256.4" y1="358.2" x2="256.8" y2="356.5"/>
	<line class="st70" x1="260" y1="356.8" x2="260.4" y2="355.2"/>
	<line class="st70" x1="277.6" y1="358.2" x2="278" y2="356.5"/>
	<line class="st70" x1="281.2" y1="356.8" x2="281.6" y2="355.1"/>
	<line class="st70" x1="270.5" y1="358.2" x2="271" y2="356.5"/>
	<line class="st70" x1="274.1" y1="356.8" x2="274.6" y2="355.1"/>
	<line class="st70" x1="284.6" y1="358.2" x2="285.1" y2="356.5"/>
	<line class="st70" x1="288.2" y1="356.8" x2="288.7" y2="355.2"/>
	<line class="st70" x1="285.3" y1="367.7" x2="284.8" y2="366"/>
	<line class="st70" x1="281.7" y1="366.3" x2="281.2" y2="364.6"/>
	<line class="st70" x1="288.7" y1="366.3" x2="288.3" y2="364.6"/>
	<line class="st70" x1="271.1" y1="367.8" x2="270.7" y2="366.1"/>
	<line class="st70" x1="267.5" y1="366.4" x2="267.1" y2="364.7"/>
	<line class="st70" x1="278.2" y1="367.8" x2="277.8" y2="366.1"/>
	<line class="st70" x1="274.6" y1="366.4" x2="274.2" y2="364.7"/>
	<line class="st70" x1="257" y1="367.7" x2="256.6" y2="366"/>
	<line class="st70" x1="253.4" y1="366.3" x2="253" y2="364.6"/>
	<line class="st70" x1="264.1" y1="367.7" x2="263.6" y2="366"/>
	<line class="st70" x1="260.5" y1="366.3" x2="260" y2="364.6"/>
	<path class="st70" d="M246.9,371c0.8,0.1,1.5,0,2.1-0.4"/>
	<line class="st70" x1="250" y1="367.8" x2="249.5" y2="366.1"/>
	<g>
		<line class="st70" x1="249.3" y1="377" x2="249.8" y2="375.3"/>
		<line class="st70" x1="252.9" y1="375.7" x2="253.4" y2="374"/>
		<line class="st70" x1="263.5" y1="377.1" x2="263.9" y2="375.4"/>
		<line class="st70" x1="267.1" y1="375.7" x2="267.5" y2="374"/>
		<line class="st70" x1="256.4" y1="377.1" x2="256.8" y2="375.4"/>
		<line class="st70" x1="260" y1="375.7" x2="260.4" y2="374"/>
		<line class="st70" x1="277.6" y1="377" x2="278" y2="375.3"/>
		<line class="st70" x1="281.2" y1="375.7" x2="281.6" y2="374"/>
		<line class="st70" x1="270.5" y1="377" x2="271" y2="375.3"/>
		<line class="st70" x1="274.1" y1="375.7" x2="274.6" y2="374"/>
		<path class="st70" d="M246.6,373.9c0.2-1.4,1.1-2.7,2.4-3.3"/>
		<line class="st70" x1="284.6" y1="377.1" x2="285.1" y2="375.4"/>
		<line class="st70" x1="288.2" y1="375.7" x2="288.7" y2="374"/>
	</g>
	<path class="st70" d="M291.2,361c-0.5,0-1,0.1-1.4,0.3c1-0.7,1.8-1.8,2-3.1l0.5-1.7"/>
	<line class="st70" x1="285.3" y1="386.4" x2="284.8" y2="384.7"/>
	<line class="st70" x1="281.7" y1="385" x2="281.2" y2="383.3"/>
	<line class="st70" x1="288.7" y1="385" x2="288.3" y2="383.3"/>
	<line class="st70" x1="271.1" y1="386.4" x2="270.7" y2="384.8"/>
	<line class="st70" x1="267.5" y1="385.1" x2="267.1" y2="383.4"/>
	<line class="st70" x1="278.2" y1="386.4" x2="277.8" y2="384.8"/>
	<line class="st70" x1="274.6" y1="385.1" x2="274.2" y2="383.4"/>
	<line class="st70" x1="257" y1="386.4" x2="256.6" y2="384.7"/>
	<line class="st70" x1="264.1" y1="386.4" x2="263.6" y2="384.7"/>
	<line class="st70" x1="260.5" y1="385" x2="260" y2="383.3"/>
	<path class="st70" d="M291.3,379.7c-0.6,0-1.1,0.1-1.6,0.4l0,0c1.1-0.6,2.2-2,2.4-3.3l0,0l0.1-1.4"/>
	<g>
		<path class="st66" d="M299.7,329.6c-1.7,0-3.3,0.7-4.4,1.9c-0.1-1.1-1.4-1.9-2.9-1.9c-1.6,0-2.9,0.9-2.9,2.1
			c0-1.1-1.3-2.1-2.9-2.1c-1.6,0-3,0.9-3,2.1c0-1.1-1.3-2.1-3-2.1c-1.6,0-2.9,0.9-2.9,2.1c0-1.1-1.3-2.1-2.9-2.1c-1.6,0-3,0.9-3,2.1
			c0-1.1-1.3-2.1-3-2.1c-1.6,0-2.9,0.9-2.9,2.1c0-1.1-1.3-2.1-2.9-2.1c-1.6,0-3,0.9-3,2.1c0-1.1-1.3-2.1-3-2.1
			c-1.6,0-2.9,0.9-2.9,2.1c0-1.1-1.3-2.1-2.9-2.1c-1.6,0-3,0.9-3,2.1c0-1.1-1.3-2.1-3-2.1c-1.2,0-2.4,0.6-2.8,1.3
			c-1-0.7-2.3-1-3.5-1c-3.4,0-6.2,2.8-6.2,6.2c0,3.4,2.8,6.2,6.2,6.2c1.4,0,2.7-0.5,3.7-1.3c0.5,0.7,1.5,1.1,2.7,1.1
			c1.6,0,3-0.9,3-2.1c0,1.1,1.3,2.1,3,2.1c1.6,0,2.9-0.9,2.9-2.1c0,1.1,1.3,2.1,2.9,2.1c1.6,0,3-0.9,3-2.1c0,1.1,1.3,2.1,3,2.1
			c1.6,0,2.9-0.9,2.9-2.1c0,1.1,1.3,2.1,2.9,2.1c1.6,0,3-0.9,3-2.1c0,1.1,1.3,2.1,3,2.1c1.6,0,2.9-0.9,2.9-2.1
			c0,1.1,1.3,2.1,2.9,2.1c1.6,0,3-0.9,3-2.1c0,1.1,1.3,2.1,3,2.1c1.6,0,2.9-0.9,2.9-2.1c0,1.1,1.3,2.1,2.9,2.1
			c1.5,0,2.8-0.8,2.9-1.8c1.1,1.1,2.7,1.9,4.4,1.9c3.4,0,6.2-2.8,6.2-6.2S303.1,329.6,299.7,329.6z"/>
	</g>
	<path class="st71" d="M240.8,386.5"/>
	<line class="st67" x1="238.8" y1="336.3" x2="300.1" y2="336.3"/>
	<line class="st67" x1="238.8" y1="344.9" x2="238.8" y2="385.9"/>
</g>
<g id="Lungs">
	<path class="st72" d="M277.9,286.9l-0.1-51.6c0.1-3,2.6-6.1,6-7c3.4-0.9,14.6-3.3,24.1,22.3c5.8,15.5,6.6,33.3,7,39.3
		c0.3,6-1.9,15.5-10.5,13.6C293.8,301.3,279.4,293.7,277.9,286.9z"/>
	<path class="st73" d="M255.9,285.9l0.1-50.6c-0.1-3-2.5-6-5.8-6.8c-3.3-0.8-14.3-3.2-23.7,21.8c-5.7,15.2-6.5,32.7-6.8,38.5
		c-0.3,5.8,1.8,15.2,10.3,13.3C240.3,299.9,254.4,292.5,255.9,285.9z"/>
	<path class="st73" d="M257.9,189.3c0,0.6,0.1,1,0.9,2.3l2.8,4.8c0.2,0.5,0.8,1.9,0.9,2.8l0,32.8c-0.2,2.2,0.1,2.6-1.1,3.6l-6.8,4
		c-0.1,0.5-1.4,4.3,1,5.8l6-3.4c0.9-0.5,0.9-0.6,1.6-0.4l2.7-0.1l2.8,0.1c0.7-0.2,0.7-0.1,1.6,0.4l8,4.7c2.4-1.5,1.2-5.2,1-5.8
		l-8.7-5.2c-1.2-1-1-1.4-1.1-3.6l0-29.5c-0.1-3.1-1.1-5.2-1.9-6.9l-4-6.7"/>
	<path class="st17" d="M269.5,202.5c0,0.9-1.6,1.6-3.5,1.6s-3.5-0.7-3.5-1.6"/>
	<ellipse class="st73" cx="260.7" cy="189.2" rx="2.9" ry="1.3"/>
	<path class="st17" d="M269.5,220.5c0,0.9-1.6,1.6-3.5,1.6s-3.5-0.7-3.5-1.6"/>
	<path class="st17" d="M269.5,218c0,0.9-1.6,1.6-3.5,1.6s-3.5-0.7-3.5-1.6"/>
	<path class="st17" d="M269.5,215.4c0,0.9-1.6,1.6-3.5,1.6s-3.5-0.7-3.5-1.6"/>
	<path class="st17" d="M269.5,212.8c0,0.9-1.6,1.6-3.5,1.6s-3.5-0.7-3.5-1.6"/>
	<path class="st17" d="M269.5,210.3c0,0.9-1.6,1.6-3.5,1.6s-3.5-0.7-3.5-1.6"/>
	<path class="st17" d="M269.5,207.7c0,0.9-1.6,1.6-3.5,1.6s-3.5-0.7-3.5-1.6"/>
	<path class="st17" d="M269.5,205.2c0,0.9-1.6,1.6-3.5,1.6s-3.5-0.7-3.5-1.6"/>
</g>
<g id="Thyroid_Gland">
	<path class="st74" d="M262.5,202.2c-1.2,0.4-2,1.6-2.6,3.6c-0.4,1.6,1,3.9,2.6,3.8c1.3-0.1,2.1-0.9,4.3-0.8
		c1.9,0.2,3.8-1.4,1.9-3.2s-2.3-2.4-3.9-2.4S262.5,202.2,262.5,202.2z"/>
</g>
<g id="Adipose">
	<path class="st75" d="M271.4,388.4h20.8c2.8,0,5-2.3,5-5v-38.8c0-2.8-2.3-5-5-5h-20.8V388.4z"/>
	<path class="st75" d="M270.6,346.1c-1.3,1.1-0.1,3.1,0.3,5.2c0.6,3.7-1.2,5.3-0.4,8.1c0.8,2.8,1,4.7,1.1,6.6c0,0.8-0.6,1.9-0.7,2.6
		c-0.1,0.5-0.6,1.2-0.5,1.6c0.2,0.7,1.2,0.8,1.2,2c-1.7,4.8,0.6,5.8,0.7,9.6c-1.9,0.3,1.4,5,2.4,1.4c0.3-1.2,0.4-3.3,0-4.4
		c-0.9-3.2,0.6-4.6,0-6.6c-1.2-4,0.2-5-0.4-7c-0.2-0.6-0.7-0.8-0.8-1.5c0-0.2,0.3-1.6,0.3-2c0-0.6-0.1-1.1,0-1.7
		c0.1-0.5,0.5-1.1,0.5-1.4c0.1-1.7-1-3.2-1.2-5.1c1.4-0.3,1.2-5.8,1-7.3C273.8,344,270.8,342.5,270.6,346.1z"/>
	<path class="st75" d="M279.2,345.7c-0.8-0.1-1.5,0.5-1.5,1.3c0.1,0.5,0.2,1.1,0.4,1.6c0.2,0.6,0.1,0.9,0.1,1.7
		c-0.1,1.5,0.6,2.6,1.1,4c0.3,0.8,0.6,1.5,0.6,2.3c-0.1,0.7-0.3,1.3-0.3,2c0,1.1,0.8,2,0.6,3.2c-0.2,1.1-1.5,2.4-1.2,3.5
		c0.1,0.4,0.6,0.8,0.9,1.2c0.3,0.4,0.6,0.9,0.8,1.4c0.4,1.1,0.1,2.4,0.5,3.6c0.2,0.7,0.8,1.3,0.8,1.9c0.1,0.7-0.3,1.4-0.2,2.2
		c0.1,0.7,0.6,1.3,0.7,2c0.1,0.4-0.1,0.9-0.1,1.3c-0.1,0.6-0.2,1.5,0,2.2c0.1,0.5,0.6,1,0.8,1.5c0.1,0.3,0.1,0.7,0.4,0.8
		c0.2,0.1,1.1,0.2,1.4,0.1c0-0.4-0.2-0.8-0.2-1.1c-0.1-0.7,0-1.6,0-2.3c0.1-1.4-0.2-2.4-0.5-3.8c-0.3-1.4-0.6-2.8-0.5-4.2
		c0.1-1.5,0.1-2.9,0.1-4.4c0-0.9-0.2-1.4-0.4-2.2c-0.1-0.3,0-0.4,0-0.7c-0.1-0.8-0.7-1.6-1-2.4c-0.4-1.1,0.1-2.6-0.1-3.8
		c-0.1-1.1-0.1-2.3-0.2-3.4c-0.1-0.5-0.3-0.9-0.4-1.4c-0.2-0.8-0.1-1.6-0.1-2.4c0-1.1-0.5-2.1-0.5-3.1c0-0.3,0.1-0.6,0-0.9
		c-0.1-0.7-0.3-0.4-0.8-0.8c-0.1-0.1-0.2-0.4-0.3-0.5c-0.2-0.1-0.5-0.1-0.8-0.2"/>
	<path class="st75" d="M286.4,345.8c-0.5,0.3-1,1.1-1.5,1.4c0.1,0.4,0.3,0.8,0.6,1.1c0.1,0.2,0.3,0.4,0.5,0.6
		c0.4,0.5,0.3,0.6,0.3,1.3c0,1.3,0.3,2.5,0.8,3.7c0.1,0.3,0.3,0.6,0.4,0.9c0,0.4-0.3,0.6-0.4,1c-0.4,1.2,0.7,2.4,0.8,3.6
		c0.1,1.3,0.3,2.5,0.6,3.7c0.2,0.8,0.3,1.6,0.4,2.4c0.1,0.7,0.5,1.5,0.5,2.1c0,0.8-0.5,1.4-0.1,2.2c0.4,0.7,1,0.9,1.2,1.7
		c0.2,1,0.3,1.9,0.4,2.9c0,0.5,0.1,1.1,0.1,1.5c0.1,0.6,0.3,0.5,0.7,1.1c0.3,0.5,0,0.8-0.1,1.4c-0.2,0.8,0.1,1.5,0.5,2.2
		c0.2,0.5,0.6,0.9,0.7,1.4c0.1,0.4-0.1,1,0.1,1.3c0.2,0.3,0.3,0.5,0.6,0.1c0.5-0.8-0.3-2.1-0.4-2.9c-0.1-0.8,0.6-1.1,0.6-1.9
		c0.1-0.5-0.1-1.1-0.2-1.6c-0.1-0.5-0.2-0.9-0.4-1.4c-0.3-0.9-0.2-1.9-0.1-2.9c0-0.9,0.1-1.9,0.1-2.8c0-0.4,0-1-0.2-1.5
		c-0.1-0.4-0.3-0.4-0.5-0.8c-0.4-0.6-0.4-1.7-0.5-2.4c-0.2-1-0.5-1.9-0.7-2.8c-0.4-1.8-0.8-3.5-1.4-5.3c-0.3-0.9-0.6-1.7-0.6-2.7
		c0-0.8,0.2-1.5,0.1-2.2c-0.2-1.3-0.5-2.7-1-3.9c-0.2-0.6-0.6-1.2-0.7-1.9C286.9,346.6,286.9,346.1,286.4,345.8z"/>
	<path id="RO_Adipose_Visceral" class="st11" d="M271.4,388.4h20.8c2.8,0,5-2.3,5-5v-38.8c0-2.8-2.3-5-5-5h-20.8V388.4z"/>
</g>
<g id="Female">
	<path class="st76" d="M262.4,370.5c-1.1,0.2-3.5,0.2-6-1.2s-4.8-3.4-8.4-3c-3.3,0.4-5.8,4.1-4.3,7.8l3.2,5.8
		c0.1,0.1,0.2,0.1,0.3,0.1c0.1-0.1,0.2-0.2,0.1-0.3l-1.3-2.3c-0.1-0.3,0.6-0.6,0.7-0.4l1.6,2c0.1,0.1,0.2,0.1,0.3,0
		c0.1-0.1,0.1-0.2,0-0.3l-1.6-2.1c-0.2-0.3,0.3-0.7,0.5-0.6l1.9,1.8c0.1,0.1,0.2,0.1,0.3,0c0.1-0.1,0.1-0.2,0-0.3l-1.9-1.8
		c-0.2-0.3,0.2-0.7,0.5-0.6l2.1,1.5c0.1,0.1,0.2,0,0.3-0.1c0.1-0.1,0-0.2-0.1-0.3l-2.1-1.5c-0.2-0.1,0-0.8,0.3-0.7l2.3,1.2
		c0.1,0.1,0.2,0,0.3-0.1c0.1-0.1,0-0.2-0.1-0.3l-4.7-2.5c-0.7-0.3-1.1-1.1-1-2.2c0.1-0.9,1.1-1.9,2.3-2.3c2-0.5,3.7-0.1,5.8,1.3
		c2,1.4,5.4,2.6,7.8,2.3"/>
	<ellipse transform="matrix(0.3131 -0.9497 0.9497 0.3131 -186.7278 501.8916)" class="st77" cx="253.6" cy="380" rx="3" ry="4.1"/>
	<path class="st78" d="M257.6,380.8c0.5-0.9,2.1-3.7,4.5-4.4"/>
	<path class="st76" d="M278.7,370.5c1.1,0.2,3.5,0.2,6-1.2s4.8-3.4,8.4-3c3.3,0.4,5.8,4.1,4.3,7.8l-3.2,5.8
		c-0.1,0.1-0.2,0.1-0.3,0.1c-0.1-0.1-0.2-0.2-0.1-0.3l1.3-2.3c0.1-0.3-0.6-0.6-0.7-0.4l-1.6,2c-0.1,0.1-0.2,0.1-0.3,0
		c-0.1-0.1-0.1-0.2,0-0.3l1.6-2.1c0.2-0.3-0.3-0.7-0.5-0.6l-1.9,1.8c-0.1,0.1-0.2,0.1-0.3,0c-0.1-0.1-0.1-0.2,0-0.3l1.9-1.8
		c0.2-0.3-0.2-0.7-0.5-0.6l-2.1,1.5c-0.1,0.1-0.2,0-0.3-0.1c-0.1-0.1,0-0.2,0.1-0.3l2.1-1.5c0.2-0.1,0-0.8-0.3-0.7l-2.3,1.2
		c-0.1,0.1-0.2,0-0.3-0.1c-0.1-0.1,0-0.2,0.1-0.3l4.7-2.5c0.7-0.3,1.1-1.1,1-2.2c-0.1-0.9-1.1-1.9-2.3-2.3c-2-0.5-3.7-0.1-5.8,1.3
		c-2,1.4-5.4,2.6-7.8,2.3"/>
	<polygon class="st79" points="273.1,397.4 278.5,406.6 275.7,406.6 274.4,408.6 267.9,397.4 267.5,385.2 273.6,385.2 	"/>
	<path class="st76" d="M272.3,386.2c0.4-0.3,1.3-0.6,1.6-2.1c0.2-0.9,0.9-2.4,2.1-3.7c0.7-0.8,3.5-3.2,3.6-6.3
		c-0.2-6.3-7.5-6.5-9.1-6.5s-9,0.2-9.1,6.5c0.1,3.2,2.9,5.6,3.6,6.3c1.2,1.3,2,2.8,2.1,3.7c0.3,1.5,1.2,1.7,1.6,2.1"/>
	<ellipse transform="matrix(0.9497 -0.3131 0.3131 0.9497 -104.5256 109.1156)" class="st77" cx="287.5" cy="380" rx="4.1" ry="3"/>
	<path class="st78" d="M283.5,380.8c-0.5-0.9-2.1-3.7-4.5-4.4"/>
	<path class="st76" d="M268.7,386.2l0,5.5c0,0,0.1,0.6,0.6,1c0.2,0.1,0.6,0.5,0.6,0.7s-0.4,0.6-1.1,0.3s-1.2-0.7-1.4-1.9l-0.1-6.7
		C267.9,385.7,268.7,386.2,268.7,386.2z"/>
	<path class="st76" d="M272.3,386.3l0,5.5c0,0-0.1,0.6-0.6,1c-0.2,0.1-0.6,0.5-0.6,0.7s0.4,0.6,1.1,0.3s1.2-0.7,1.4-1.9l0.1-6.7
		C273.1,385.7,272.3,386.3,272.3,386.3z"/>
	<path class="st80" d="M259.6,273.1c0,11.4-9.3,20.7-20.7,20.7c-11.4,0-20.7-9.3-20.7-20.7c0-2.9,0.6-5.6,1.6-8"/>
	<ellipse class="st81" cx="236.3" cy="278.1" rx="6" ry="5.8"/>
	<circle class="st82" cx="236.1" cy="278.1" r="2.2"/>
	<path class="st83" d="M284.1,194.1l0-10c2.8-3.2,12.3-5.5,12.3-29c0-23-25.7-28.3-34.3-27.7c-4.2,0.3-18.3,1.2-25.8,10.1
		c0-2.3-2.9-16.5,18.5-14.8c8.3,0.7,7.5,5.2,16-2.3c3-2.7,10.7,1.3,11.7,3.3s4,6,9.3,7.3c5.3,1.3,10.3,7.7,9,11
		c-1.3,3.3-3,11.7-1.3,14.7c1.7,3,0.7,16.3-0.7,18c-1.3,1.7-1,13,0,14.7c1,1.7,1,10.3,1,10.3s-8.8,4.9-15.4-5.4"/>
</g>
<g id="Bladder">
	<ellipse class="st84" cx="273.3" cy="386.4" rx="9.3" ry="5.8"/>
	<ellipse id="_x3C_RO_Bladder_x3E_" class="st85" cx="273.3" cy="386.4" rx="9.3" ry="5.8"/>
</g>
<g id="Male">
	<circle id="_x3C_Prostrate_x3E_" class="st86" cx="273.3" cy="396.5" r="3"/>
	<g id="Testis">
		<path class="st87" d="M266.9,402.4v6.1c-2.1,1.2-3.6,3.9-3.6,7.2c0,4.3,2.6,7.8,5.8,7.8c1.3,0,2.5-0.6,3.5-1.5
			c0.7-0.7,2.8-1,3.7,0c1,1,2.2,1.5,3.5,1.5c3.2,0,5.8-3.5,5.8-7.8c0-3.2-1.5-6-3.6-7.2v-6.1"/>
		<ellipse class="st88" cx="279.8" cy="415.6" rx="4.4" ry="5.9"/>
		<ellipse class="st88" cx="269.1" cy="415.6" rx="4.4" ry="5.9"/>
	</g>
</g>
<g id="Heart">
	<g>
		<g>
			<path class="st89" d="M280.7,243.4v4.8c0,1.1-2.2,2.7-3,2.8c-1.7,0.2-3.1,0-3-2v-6.7"/>
			<path class="st90" d="M283.4,257.5l0.1,15.5c-1,6.9-9.8,10-18,3.6c-9.4-7.3-18.1-17.8-7.9-30c6.8-8.2,23.8-1.8,24.9,2.1
				c0,0,0.5,2.5,1,3.4c1,1.6,3,3.7,2.4,4.8s-2.1,0.1-2.1,0.1L283.4,257.5z"/>
			<path class="st91" d="M274.2,247v1.9c0,1.1-1.4,2-3,2c-1.7,0-3-0.9-3-2v-3.2c-0.2-1.6-0.6-4.8-4.7-5h-9.7l0-5.2h10.5
				c3.4-0.4,7.1,2.3,7.6,5.4c0.2-0.2,1.2-0.9,1.6-1"/>
			<path class="st92" d="M253.1,242.7v12.1c0,2,0.9,3.2,3.3,1.4c0.7-0.5,2.2-2.4,2.2-3.5l0-10.2"/>
			<ellipse class="st92" cx="255.8" cy="242.5" rx="2.7" ry="1.2"/>
			<path id="_x3C_Left_Ventricle_x3E__2_" class="st93" d="M280.9,259.7l0.4,11.5c0,1.6-1.6,3.6-4.9,1.6s-7.4-6.5-7.9-9.9
				s0.9-7,4.6-6.6s6.5,1.6,7,2S280.9,259.7,280.9,259.7z"/>
			<path class="st94" d="M259.6,260.3c1,0.3,2.1,1.4,2.5,2c0.4,0.7,2.1,1.9,3.1,1.9c-0.9-0.4-1.6-1.1-2.1-1.8
				c-1.1-2-2.7-2.7-3.4-3.2c0-0.2,0-0.3,0-0.5c0.2-2.2,0.4-1.4,0.6-5.1c0.1-2.3-1.6-4.6-1.6-4.6l-0.1,1.9c0.1,0.7,1,2.5,0.4,5.4
				c0,0.1-0.1,0.3-0.1,0.5l0-0.2c-0.2,0.6-1.7,3.4-3.8,4.2c1.2-0.2,2.9-1.4,3.6-2.7c-0.3,3.4-0.1,9.4,3.6,12.9
				C260.7,268.4,259.2,265.8,259.6,260.3z"/>
			<path id="_x3C_Coronary_x3E__2_" class="st94" d="M265.9,246.1c0.2,0.8,1.8,4.1,4.3,5.4c1.9,1,3.1,1.9,4.1,3.3
				c0.8,0.2,3.2,0.2,4.5-0.8c1.4-1,2.2-0.2,2.2-0.2c-1.5,0.2-2.1,0.9-2.6,1.2c-1.1,0.7-2.2,0.9-3.5,0.8c0.1,0.2,0.3,0.5,0.4,0.7
				c1.4,2.6,1.5,6.1,1.1,8.9c0,0,0,0.1,0,0.1c0.7,0.6,1.2,2.1,1,4.4c-0.1,1.1-0.2,1.8,1.6,4c-1.4-1.2-2.3-1.8-2.2-4.1
				c0-2.7-0.3-2.8-0.6-3.4l-0.2,0.4c-0.4,1.3-0.9,2.3-2.6,4.3c-1.4,1.6-1.1,3.7-1.1,3.7c-0.5-2.1,0-3,1.5-5.1
				c1.4-1.9,2.5-6.5,1.7-9.5c-0.7-2.6-1.6-4.1-2.8-5.2c0.2,0.9,0.7,2.9-0.6,4.7c-0.8,0.9-2.7,1.6-4.1,5.1c0.1-2.2,1.4-3.8,2.8-5
				s1.6-3.8,0.6-5.8l-0.2-0.2c-1-0.7-1.3-0.8-2.4-1.4c-2.8-1.7-3.9-4.2-4.2-4.9C264.4,246.7,265.2,245.8,265.9,246.1z"/>
		</g>
		<ellipse class="st95" cx="253.6" cy="238.1" rx="1.4" ry="2.7"/>
		<path id="_x3C_Aorta_x3E__2_" class="st89" d="M280.8,242.5c0-5.8-4.7-10.4-10.4-10.4c-5.8,0-10.4,4.7-10.4,10.4l0,6.5
			c0,2,1.4,2.2,3,2c0.8-0.1,3-1.7,3-2.8l0-5.8c0-2.4,2-4.3,4.3-4.3c2.4,0,4.3,1.9,4.3,4.3"/>
		<path class="st91" d="M271.3,250.9c2,0,2.9-1.3,3-2l0-2c-0.2-1.6,2.3-2.9,3.5-2.9l4.3,0l0-5.1l-5.2,0c0,0-2.9,0.1-4.9,2
			c0-0.6-0.5-1.5-0.5-1.5"/>
		<ellipse class="st95" cx="282.1" cy="241.5" rx="1.3" ry="2.6"/>
	</g>
	<path id="_x3C_RO_Heart_x3E_" class="st96" d="M283.5,252.2c-0.5-0.8-1-3.4-1-3.4c-0.2-0.7-0.9-1.4-1.8-2.1v-2.6l1.3,0v0
		c0.1,0,0.1,0,0.2,0c0.7,0,1.3-1.2,1.3-2.6s-0.6-2.6-1.3-2.6c-0.1,0-0.2,0-0.2,0v0l-1.8,0c-1.5-4-5.3-6.9-9.8-6.9
		c-3,0-5.8,1.3-7.7,3.4h-8.9v0c-0.1,0-0.1,0-0.2,0c-0.8,0-1.4,1.2-1.4,2.7c0,1.5,0.6,2.7,1.4,2.7c0.1,0,0.1,0,0.2,0h6.3
		c-0.1,0.6-0.2,1.2-0.2,1.8l0,2.1c-0.5,0.3-0.9,0.7-1.4,1.1l0-3.2l0,0c0,0,0,0,0,0c0-0.7-1.2-1.2-2.7-1.2c-1.5,0-2.7,0.6-2.7,1.2
		c0,0,0,0.1,0,0.1l0,0v12.1c0,0.4,0,0.8,0.1,1.1c-1.2,8.3,5.4,15.4,12.3,20.8c8.2,6.4,17,3.2,18-3.6l-0.1-15.5l0.4-0.5
		c0,0,1.5,1,2.1-0.1S284.4,253.7,283.5,252.2z M273.7,239.7c-0.6,0.3-1.3,0.7-1.8,1.2c0,0,0-0.1,0-0.1c0-0.1,0-0.2-0.1-0.4
		c-0.1-0.3-0.2-0.6-0.3-0.8c0-0.1-0.1-0.2-0.1-0.2v0c-0.2-0.5-0.5-0.9-0.8-1.3C271.8,238.2,272.9,238.8,273.7,239.7z M266,242.4
		c0-0.3,0-0.6,0.1-0.9c0.5,0.3,0.9,0.8,1.2,1.2c-0.4,0-0.9,0-1.3,0.1L266,242.4z"/>
</g>
<g id="TYPE">
	<text transform="matrix(1 0 0 1 358.7961 219.9301)"><tspan x="0" y="0" class="st97 st98 st99">Artery - Aorta</tspan><tspan x="0" y="13.2" class="st97 st98 st99">Artery - Coronary</tspan><tspan x="0" y="26.4" class="st97 st98 st99">Heart - Atrial Appendage</tspan><tspan x="0" y="39.6" class="st97 st98 st99">Heart - Left Ventricle</tspan></text>
	<text transform="matrix(1 0 0 1 358.7961 346.433)" class="st97 st98 st99">Adipose - Visceral (Omentum)</text>
	<text transform="matrix(1 0 0 1 64.0007 491.766)" class="st97 st98 st99">Adipose - Subcutaneous</text>
	<text transform="matrix(1 0 0 1 358.7961 36.5004)"><tspan x="0" y="0" class="st97 st98 st99">Caudate (basal ganglia)</tspan><tspan x="0" y="26.4" class="st97 st98 st99">Cerebellar Hemisphere</tspan><tspan x="0" y="39.6" class="st97 st98 st99">Substantia Negra</tspan><tspan x="0" y="52.8" class="st97 st98 st99">Hippocampus</tspan><tspan x="0" y="66" class="st97 st98 st99">Cerebellum</tspan></text>
	<text transform="matrix(1 0 0 1 144.6423 345.974)"><tspan x="0" y="0" class="st97 st98 st99">Uterus</tspan><tspan x="-37.5" y="13.2" class="st97 st98 st99">Fallopian Tube</tspan><tspan x="3.3" y="26.4" class="st97 st98 st99">Ovary</tspan><tspan x="-53.2" y="66" class="st97 st98 st99">Cervix - Ectocervix</tspan><tspan x="-57" y="79.2" class="st97 st98 st99">Cervix - Endocervix</tspan><tspan x="-1.3" y="92.4" class="st97 st98 st99">Vagina</tspan></text>
	<text transform="matrix(1 0 0 1 23.5051 622.5991)"><tspan x="0" y="0" class="st97 st98 st99">EBV-transformed</tspan><tspan x="18.7" y="13.2" class="st97 st98 st99">lymphocytes</tspan><tspan x="41.6" y="26.4" class="st97 st98 st99 st100">	</tspan></text>
	<text transform="matrix(1 0 0 1 427.405 493.268)" class="st97 st98 st99">Whole Blood</text>
	<text transform="matrix(1 0 0 1 412.8 417.933)" class="st97 st98 st99">Nerve - Tibial</text>
	<text transform="matrix(1 0 0 1 358.7966 183.7992)"><tspan x="0" y="0" class="st97 st98 st99">Esophagus - Mucosa</tspan><tspan x="0" y="13.2" class="st97 st98 st99">Esophagus - Muscularis</tspan></text>
	<text transform="matrix(1 0 0 1 358.7966 272.2655)" class="st97 st98 st99">Esophagus - Gastroesophageal Junction</text>
	<text transform="matrix(1 0 0 1 109.1091 302.599)"><tspan x="0" y="0" class="st97 st98 st99">Adrenal Gland</tspan><tspan x="-4.1" y="13.2" class="st97 st98 st99">Kidney - Cortex</tspan></text>
	<text transform="matrix(1 0 0 1 151.2932 262.5981)"><tspan x="0" y="0" class="st97 st98 st99">Lung</tspan><tspan x="-88.3" y="13.2" class="st97 st98 st99">Breast - Mammary tissue</tspan></text>
	<text transform="matrix(1 0 0 1 80.3996 184.5981)" class="st97 st98 st99">Minor Salivary Gland</text>
	<text transform="matrix(1 0 0 1 139.6335 209.266)" class="st97 st98 st99">Thyroid</text>
	<text transform="matrix(1 0 0 1 152.6355 289.0981)" class="st97 st98 st99">Liver</text>
	<text transform="matrix(1 0 0 1 94.4792 466.432)" class="st97 st98 st99">Muscle - Skeleton</text>
	<text transform="matrix(1 0 0 1 32.1838 387.224)" class="st97 st98 st99">Small Intestine - terminal ileum</text>
	<text transform="matrix(1 0 0 1 358.7966 333.2641)" class="st97 st98 st99">Spleen</text>
	<text transform="matrix(1 0 0 1 134.0974 331.5146)" class="st97 st98 st99">Pancreas</text>
	<text transform="matrix(1 0 0 1 32.4074 506.5981)" class="st97 st98 st99">Skin - Sun exposed (Lower Leg)</text>
	<text transform="matrix(1 0 0 1 304.8 424.516)"><tspan x="0" y="0" class="st97 st98 st99">Prostate</tspan><tspan x="0" y="13.2" class="st97 st98 st99">Testis</tspan></text>
	<text transform="matrix(1 0 0 1 107.6125 86.5981)"><tspan x="0" y="0" class="st97 st98 st99">Hypothalamus</tspan><tspan x="-0.9" y="13.2" class="st97 st98 st99">Pituitary Gland</tspan></text>
	<text transform="matrix(1 0 0 1 146.6418 453.432)" class="st97 st98 st99">Colon</text>
	<text transform="matrix(1 0 0 1 358.7961 360.5995)"><tspan x="0" y="0" class="st97 st98 st99">Skin - Not sun exposed</tspan><tspan x="0" y="13.2" class="st97 st98 st99">(Suprapubic)</tspan></text>
	<text transform="matrix(1 0 0 1 113.7292 521.6)" class="st97 st98 st99">Artery - Tibial</text>
	<text transform="matrix(1 0 0 1 122.0627 622.6)"><tspan x="0" y="0" class="st97 st98 st99">transformed</tspan><tspan x="8.6" y="13.2" class="st97 st98 st99">fibroblasts</tspan></text>
	<text transform="matrix(1 0 0 1 246.2605 114.766)" class="st97 st98 st99">Brain</text>
	<text transform="matrix(1 0 0 1 127.1154 114.1)" class="st97 st98 st99">Amygdata</text>
	<text transform="matrix(1 0 0 1 14.1916 60.6322)"><tspan x="0" y="0" class="st97 st98 st99">Nucleus accumbens (basal ganglia)</tspan><tspan x="11" y="13.2" class="st97 st98 st99">Anterior Cingulate Cortex (BA24)</tspan></text>
	<text transform="matrix(1 0 0 1 82.6545 46.516)" class="st97 st98 st99">Frontal Cortex (BA9)</text>
	<text transform="matrix(1 0 0 1 359.0461 169.766)" class="st97 st98 st99">Spinal cord (cervical c-1)</text>
	<text transform="matrix(1 0 0 1 143.7346 32.016)" class="st97 st98 st99">Cortex</text>
	<text transform="matrix(1 0 0 1 358.7961 49.266)" class="st97 st98 st99">Putamen (basal ganglia) </text>
	<line class="st101" x1="180.1" y1="27.8" x2="252.1" y2="27.8"/>
	<line class="st101" x1="180.1" y1="42.5" x2="218.8" y2="42.5"/>
	<line class="st101" x1="180.1" y1="57.6" x2="241.1" y2="57.6"/>
	<polyline class="st102" points="352.8,32.6 314.1,32.6 252.6,49.9 	"/>
	<polyline class="st101" points="352.8,32.6 314.1,32.6 252.6,49.9 	"/>
	<polyline class="st101" points="352.8,46.1 314.1,46.1 258,63.3 	"/>
	<line class="st101" x1="314.1" y1="60.1" x2="352.8" y2="60.1"/>
	<polyline class="st101" points="352.8,72.1 314.1,72.1 268,70.7 	"/>
	<polyline class="st101" points="351.5,84.3 293.5,84.3 269.3,77.1 	"/>
	<line class="st101" x1="308.3" y1="98.1" x2="352.8" y2="98.1"/>
	<polyline class="st101" points="352.8,167.1 314.1,167.1 276.5,179.3 	"/>
	<text transform="matrix(1 0 0 1 359.0461 116.1)" class="st97 st98 st99">Spinal cord (cervical c-1)</text>
	<line class="st101" x1="352.8" y1="113.4" x2="288" y2="113.4"/>
	<polyline class="st101" points="352.8,181.1 314.1,181.1 269.8,194.6 	"/>
	<polyline class="st101" points="352.8,194.1 314.1,194.1 273,205.6 	"/>
	<polyline class="st101" points="352.8,211.1 314.1,211.1 266.3,242.1 	"/>
	<polyline class="st101" points="352.8,231.3 314.1,231.3 271.5,252.6 	"/>
	<polyline class="st101" points="352.8,243.3 314.1,243.3 284,255.4 	"/>
	<polyline class="st101" points="352.8,256.8 314,256.8 279.3,264.1 	"/>
	<polyline class="st101" points="352.8,269.1 314.1,269.1 283.8,297.6 	"/>
	<polyline class="st101" points="352.8,283.1 314.1,283.1 291.7,304.2 	"/>
	<polyline class="st101" points="352.8,330.3 320.3,330.3 306.7,315.5 	"/>
	<polyline class="st101" points="352.8,358.6 314.1,358.6 273,372.9 	"/>
	<polyline class="st101" points="300,420.4 293,420.4 275.8,397.1 	"/>
	<polyline class="st101" points="300,433.9 293,433.9 281.3,417.6 	"/>
	<line class="st101" x1="378.3" y1="414.4" x2="407.3" y2="414.4"/>
	<polyline class="st101" points="180.1,70.3 210,70.3 217.3,77.4 	"/>
	<polyline class="st101" points="180.1,82.9 230.2,82.9 252.1,74 	"/>
	<polyline class="st101" points="180.1,96.6 218.8,96.6 246.8,81.3 	"/>
	<polyline class="st101" points="180.1,110.6 220.3,110.6 255.1,82.6 	"/>
	<line class="st101" x1="180.1" y1="180.3" x2="231.1" y2="180.3"/>
	<line class="st101" x1="180.1" y1="205.9" x2="259.5" y2="205.9"/>
	<line class="st101" x1="180.1" y1="259.6" x2="227" y2="259.6"/>
	<line class="st101" x1="180.1" y1="272.6" x2="218.8" y2="272.6"/>
	<polyline class="st101" points="180.1,285.9 218.8,285.9 251.6,298.6 	"/>
	<polyline class="st101" points="180.1,299.9 218.8,299.9 255.1,311.1 	"/>
	<polyline class="st101" points="180.4,313.7 230.4,313.7 246.1,321.1 	"/>
	<line class="st101" x1="180.1" y1="328.6" x2="268.1" y2="328.6"/>
	<polyline class="st101" points="180.1,343.8 243.3,343.8 267.8,368.9 	"/>
	<polyline class="st101" points="180.8,356.8 220.1,356.8 244.6,369.9 	"/>
	<polyline class="st101" points="180.1,370.4 218.8,370.4 251.8,380.1 	"/>
	<polyline class="st101" points="180.1,384.4 218.8,384.4 247.9,386.9 	"/>
	<polyline class="st101" points="180.1,397.1 218.8,397.1 265,387.1 	"/>
	<polyline class="st101" points="180.1,408.9 218.8,408.8 268.3,389.3 	"/>
	<polyline class="st101" points="180.1,422.4 218.8,422.4 268.3,393.3 	"/>
	<polyline class="st101" points="180.1,449.8 219.8,449.8 270.5,402.3 	"/>
	<line class="st101" x1="180.1" y1="462.9" x2="232.1" y2="462.9"/>
	<line class="st101" x1="180.1" y1="503.3" x2="218.8" y2="503.3"/>
	<line class="st101" x1="180.1" y1="488.9" x2="218.8" y2="488.9"/>
	<polyline class="st101" points="180.1,518.3 218.8,518.3 240.8,533 	"/>
	<polyline class="st101" points="273.3,356.5 313.7,343.6 352.8,343.6 	"/>
	<path class="st97" d="M216.3,328"/>
	<path class="st101" d="M216.6,343.5"/>
	<path class="st101" d="M215.8,411"/>
	<path class="st101" d="M216.3,423"/>
	<polyline class="st101" points="179.8,436.4 218.5,436.3 269.1,397.8 	"/>
	<text transform="matrix(1 0 0 1 358.3 286.766)" class="st97 st98 st99">Stomach</text>
	<text transform="matrix(1 0 0 1 139.7585 400.433)" class="st97 st98 st99">Bladder</text>
</g>
</svg>
