<?xml version="1.0" encoding="UTF-8"?>
<svg id="Layer_1" data-name="Layer 1" xmlns="http://www.w3.org/2000/svg" viewBox="0 0 4000.0000274 711.5639199">
  <defs>
    <style>
      .cls-1 {
        fill: #93c02d;
      }

      .cls-2 {
        fill: #13a5dc;
      }

      .cls-3 {
        fill: #003c6c;
      }

      .cls-4 {
        fill: #006aad;
      }

      .cls-5 {
        fill: #ffbf00;
      }

      .cls-6 {
        fill: #da216d;
      }
    </style>
  </defs>
  <rect class="cls-5" x="2400.2604352" width="32.2578961" height="711.5639199"/>
  <g>
    <path class="cls-3" d="M95.8568648,548.4410443c0,5.1566839-2.2345557,9.5112219-6.8755713,13.4073345-4.7556,3.953465-11.5738736,5.9588299-20.2829167,5.9588299-9.4539023,0-16.6732489-1.8907914-21.3715512-5.7296391-4.6410101-3.6669655-6.8755658-7.9641948-6.8755658-13.1208788V131.4379183H0v406.0022294c0,6.2452856,1.2032244,12.3187328,3.6096733,18.0483719,2.4637438,5.8442126,6.5317905,10.9436316,12.0895365,15.1262437,5.5004537,4.1253471,12.6625026,7.4485483,21.3142589,9.8549862,8.5944586,2.4064379,19.2515908,3.6096569,31.6276104,3.6096569,12.7197948,0,23.4915225-1.1459103,32.0859811-3.3232012,8.709054-2.2345557,15.7565075-5.5004483,20.9131805-9.6831041,5.2139707-4.2399207,8.9955316-9.2247224,11.2873851-14.8397443h0c2.2345557-5.5004483,3.3231902-11.5165868,3.3231902-17.7618724V131.4379183h-40.3939621v417.003126h.0000109Z"/>
    <path class="cls-3" d="M291.4667508,548.9567345c0,5.1566839-2.0626736,9.339296-6.2453075,12.891688-4.2972293,3.6096569-11.5738736,5.6150655-21.4861466,5.9015213-8.6517454,0-15.5846253-2.0053649-20.798596-6.0161385-5.0420885-3.8961563-7.4485264-8.2506943-7.4485264-13.3500696V170.2275557c0-3.3232012.3437862-6.7036672.9740282-9.9695816.6302638-3.0940104,1.8907914-5.7869259,3.8961563-8.3079811,1.9480782-2.4064379,4.8128977-4.3545161,8.5371719-5.7296391,3.8961563-1.4324098,9.0528403-2.177258,15.2981259-2.177258,6.9328581,0,12.3760196.9167414,16.1575805,2.6356287,3.7815609,1.7188983,6.4744983,3.7242632,8.136077,5.958819,1.6616006,2.2918644,2.7502241,4.9274931,3.2086058,7.9641948.5156684,3.3232012.7448592,6.5317851.7448592,9.5684868v100.6124703h40.3939731v-86.4029024c0-6.7036672-.5156465-13.4646431-1.604292-20.0537368-1.0886454-6.9328581-4.1253471-13.2354742-8.9382448-18.6786247-4.7556109-5.3858638-11.8030644-9.7976885-20.8558828-13.0635811-8.9382448-3.2085948-21.3142644-4.8128977-36.7842943-4.8128977-15.8137943,0-28.4763133,1.5470052-37.7583225,4.5837069-9.4539132,3.0940104-16.5586535,7.4485264-21.199669,12.8343902-4.6410155,5.3858638-7.6204305,11.7457667-8.9382448,18.8505069-1.2605276,6.7609759-1.8334828,13.6365472-1.8334828,20.397523v353.4614057c0,13.0062615,5.4431615,24.0644667,16.1575805,32.716234,10.714419,8.6517673,28.3617179,13.0635701,54.0877851,13.4646431,12.3760196,0,23.0331518-1.203219,31.6276104-3.6096569,8.6517454-2.4064379,15.8137943-5.7296391,21.3142644-9.8549862,5.5577569-4.2399207,9.6830822-9.339296,12.0895201-15.1262437h0c2.4064379-5.7296391,3.6096569-11.8030425,3.6096569-18.0483719v-104.2794139h-42.5139116v115.7960445h.1719259Z"/>
    <path class="cls-3" d="M633.2969961,415.7426257c-1.0886454-3.8961563-2.349173-7.8496213-3.7815828-11.7457776-1.4324098-3.8961563-3.2085839-8.3652678-5.2712575-13.1781874-3.8961563-9.5112219-8.5944586-18.5640184-13.9230247-26.8720213-5.2712575-8.1933856-9.8549862-15.2981259-13.6938339-21.2569558l-33.1746156-50.8218926c-5.1566839-7.9069081-9.3966046-15.0116483-12.490615-21.199669-3.0367017-6.0734253-5.6723305-13.4646431-7.735004-22.0591018-2.750246-9.8549862-4.2399207-18.5640403-4.3545379-25.7833759-.1718822-7.2766443-.2864994-15.9283897-.2864994-26.4136397v-26.1844489c0-2.9794149.2864994-6.2453075.7448373-9.5684868.4583816-2.9794149,1.604292-5.6723523,3.3804661-7.9069081,1.8334828-2.2918644,4.6983023-4.2972293,8.53715-6.0734144,3.8388477-1.7761851,9.339296-2.6356287,16.3294627-2.6356287,6.3025943,0,11.4019695.7448483,15.1262437,2.177258,3.552392,1.375123,6.3025943,3.3232012,8.0788121,5.6723523,1.8907914,2.4637466,3.151319,5.2712575,3.7242742,8.3652678.6875724,3.3232012.9740282,6.6463805.9740282,9.9695816v99.5811335h40.3939731v-84.9132496c0-6.7036672-.5156465-13.5792385-1.604292-20.3402144-1.1459103-7.1047621-4.1253471-13.4646431-8.9955316-18.9651023-4.8128759-5.3858638-11.9176598-9.7976885-21.1996471-13.0635811-9.1101052-3.2085948-21.772646-4.8128977-37.6437271-4.8128977-15.5273167,0-27.9033581,1.5470052-36.8415811,4.5837069-9.1101052,3.0940104-16.1575805,7.3912397-20.9705001,12.7770925-4.8701845,5.4431615-7.9068862,11.688469-8.9955316,18.621327-1.0313368,6.5317851-1.604292,13.2927609-1.604292,20.0537368v21.4861466c0,9.3966046.1718822,17.647277.5156465,24.4655615.3437644,6.9328581,1.7761741,15.2981259,4.2399207,24.8666345,2.4637466,9.4539132,5.0420667,17.7045857,7.6776954,24.4082529,2.6356287,6.8182626,7.0474753,14.7251707,13.0062615,23.5488202l34.3778345,52.9418529c3.4950833,5.2712575,6.5890937,9.9122949,9.3966046,13.9230247,2.6929374,3.8961563,5.3285661,7.9068862,7.735004,11.9176598,2.349173,3.8961563,4.4691115,8.0215035,6.3599029,12.2614242,1.8907914,4.2972293,3.6669655,9.0528403,5.3858747,14.0949069,2.0626736,6.9901667,4.0107299,13.1781874,5.7296391,18.3921362,1.6616006,4.9848017,2.4637466,11.0008966,2.4637466,18.0483719v96.888218c0,2.9793931-.2291908,6.2452856-.7448373,9.5684868-.4583816,3.0367017-1.5469833,5.8442126-3.2085839,8.3079592-1.6616006,2.4064379-4.2972293,4.4691115-7.8496213,6.1880207-3.6669655,1.7189092-8.8236494,2.6356287-15.3554345,2.6356287-6.5890937,0-11.7457776-.802146-15.4127431-2.4064379-3.6669655-1.604292-6.5890937-3.6669655-8.7663408-6.1307121-2.1772471-2.4637466-3.4950833-5.1566839-4.1253471-8.1933856-.6875724-3.2658925-.9740282-6.6464023-.9740282-9.9695598v-109.4361416l-40.3939731.6302638v94.8255444c0,6.7609759.6302638,13.5792604,1.8907914,20.1110454,1.3178362,6.8755494,4.2972293,13.1781874,8.938223,18.7932092,4.6409937,5.6150655,11.8603512,10.141442,21.371573,13.4073345,9.339296,3.2085839,22.1164104,4.8128759,38.0448001,4.8128759,15.5846253,0,28.0752403-1.6616006,37.0707719-4.8701845,9.1101052-3.2658925,16.1002719-7.6776954,20.7413092-13.0635701,4.6409937-5.4431396,7.6204305-11.5738517,8.7090322-18.3348276,1.0886454-6.4172115,1.604292-13.0635701,1.604292-19.824546v-84.397603c0-5.6150655-.2864994-10.7144408-.802146-15.240861-.4582505-4.4118029-1.2603965-8.6517236-2.3490419-12.6624534h0Z"/>
    <path class="cls-3" d="M789.2004705,170.342173v159.6277485h-57.0098915v-159.6277485c0-3.3232012.3437644-6.7036672.9740282-9.9695816.6302638-3.0367017,1.9480563-5.8442345,3.8961126-8.3079811,1.9480563-2.4064379,4.8128759-4.3545161,8.5371937-5.7296391,3.8961126-1.4324098,9.0528403-2.177258,15.2981259-2.177258,6.9329018,0,12.3760414.9167414,16.1576242,2.6356287,3.7242304,1.7188983,6.4745201,3.7242632,8.136077,5.958819,1.6615569,2.2918644,2.7502023,4.9847799,3.2085839,8.0215035.5156465,3.3232012.802146,6.5318069.802146,9.5685086h0ZM819.5675752,145.4755385c-4.4691115-5.2139707-11.4020133-9.5684977-20.5121184-12.8343902-8.9955753-3.2658925-21.4288817-4.8701954-37.0707719-4.8701954-15.9283897,0-28.7054604,1.5470052-38.0448001,4.5837069-9.5112219,3.0940104-16.6732707,7.4485264-21.3715293,12.8343902-4.6409937,5.4431506-7.6776954,11.7457667-8.9955316,18.8505069-1.2605276,6.7609759-1.8907914,13.6365472-1.8907914,20.4548098v396.4337645h40.3939294v-227.8104624h57.0098915v227.8677274h40.3939731V183.9787201c0-6.7609759-.5156465-13.5219517-1.604292-20.1110236-.9740282-6.9328799-3.8388477-13.1209006-8.3079592-18.3921581h0Z"/>
    <polygon class="cls-3" points="986.9303715 379.9323814 926.769161 130.4065815 890.5578 130.4065815 890.5578 580.985396 930.9517731 580.985396 930.9517731 275.3664461 986.4146375 493.7802821 986.4146375 580.985396 1027.3816094 580.985396 1027.3816094 130.4065815 986.9303715 130.4065815 986.9303715 379.9323814"/>
    <polygon class="cls-3" points="1056.5454514 152.4657051 1106.8516756 152.4657051 1106.8516756 580.985396 1147.2456487 580.985396 1147.2456487 152.4657051 1199.6718114 152.4657051 1199.6718114 130.9222499 1056.5454514 130.9222499 1056.5454514 152.4657051"/>
    <path class="cls-3" d="M1330.078453,170.342173v159.6277485h-57.0098915v-159.6277485c0-3.3232012.3437644-6.7036672.9740282-9.9695816.6302638-3.0367017,1.9480563-5.8442345,3.8961126-8.3079811,1.9480563-2.4064379,4.8128759-4.3545161,8.5371937-5.7296391,3.8961126-1.4324098,9.0528403-2.177258,15.2981259-2.177258,6.9329018,0,12.3760414.9167414,16.1576242,2.6356287,3.7815828,1.7188983,6.4745201,3.7242632,8.136077,5.958819,1.6615569,2.2918644,2.7502023,4.9847799,3.2085839,8.0215035.5729115,3.3232012.802146,6.5318069.802146,9.5685086h0ZM1360.4454703,145.4755385c-4.4691115-5.2139707-11.4020133-9.5684977-20.5121184-12.8343902-8.9955753-3.2658925-21.4288817-4.8701954-37.0707719-4.8701954-15.9283897,0-28.7054604,1.5470052-38.0448001,4.5837069-9.5112219,3.0940104-16.6732707,7.4485264-21.3715293,12.8343902-4.6982586,5.3858638-7.6776954,11.7457667-8.9955753,18.8505069-1.2605276,6.7609759-1.8907914,13.6365472-1.8907914,20.4548098v396.4337645h40.3939731v-227.8104624h57.0098915v227.8677274h40.3939731V183.9787201c0-6.7609759-.5156465-13.5219517-1.604292-20.1110236-.9740282-6.9328799-3.8388477-13.1209006-8.3079592-18.3921581h0Z"/>
    <path class="cls-3" d="M1624.1807506,548.9567345c0,5.1566839-2.0625861,9.339296-6.2452856,12.891688-4.3545817,3.6096569-11.573808,5.6150655-21.4861466,5.9588299-8.5944586,0-15.5846253-2.0053649-20.7986179-6.0161385-5.0421104-3.8961563-7.4484609-8.2506943-7.4484609-13.3500696V170.2848643c0-3.3232012.3437644-6.6463805.9741156-9.9695816.6301764-3.0940104,1.890704-5.7869259,3.8961126-8.3079811,1.9480563-2.4064379,4.8128759-4.3545161,8.5371063-5.7296391,3.8961126-1.4324098,9.0527528-2.177258,15.2982133-2.177258,6.9328143,0,12.3186891.9167414,16.1576242,2.6356287,3.7815828,1.7188983,6.4745201,3.7242632,8.1361644,5.958819,1.6616443,2.2918644,2.7502897,4.9847799,3.2085839,8.0215035.5156465,3.3804879.7448811,6.5890937.7448811,9.5684868v100.6124703h40.3938856v-86.5175197c0-6.7036672-.5156465-13.4646431-1.604292-20.0537368-1.0886454-6.9328581-4.1253471-13.2354742-8.938223-18.6786247-4.7555235-5.3858638-11.8030425-9.7976885-20.8559702-13.0635811-8.938223-3.2085948-21.3142644-4.8128977-36.7843599-4.8128977-15.8138598,0-28.4763133,1.5470052-37.7009483,4.5837069-9.4538695,3.0940104-16.5587409,7.4485264-21.1997346,12.8343902-4.6409937,5.3858638-7.6203431,11.7457667-8.938223,18.8505069-1.2031752,6.7609759-1.8335265,13.6365472-1.8335265,20.397523v353.4614057c0,13.0062615,5.4432271,24.0644667,16.1576242,32.716234,10.7143971,8.6517673,28.3617834,13.0635701,54.0304547,13.4646431,12.3760414,0,23.0330862-1.203219,31.6275448-3.6096569,8.651811-2.4064379,15.8138598-5.7296391,21.3142644-9.8549862,5.5577569-4.2399207,9.6831041-9.339296,12.0894545-15.1262437h0c2.4065254-5.7296391,3.6097006-11.8030425,3.6097006-18.0483719v-104.2794139h-42.513999v115.7960445h.172057Z"/>
    <path class="cls-3" d="M1816.1810124,176.0145034v118.8900111c0,5.6723523-.6875287,11.4592782-2.0054087,17.1889173-1.2605276,5.4431615-2.9793494,9.2247224-4.9274057,11.1728006-3.2085839,2.8648195-8.0788121,5.4431615-14.4959799,7.5631437-6.4745201,2.1772471-13.3499821,3.2658925-20.3975012,3.2658925h-14.0948632v-185.2965509h18.7932092c9.7404564,0,18.4494449,1.375123,25.8979057,4.0680385,4.8128759,1.4896965,7.7350477,3.9534431,9.0527528,7.5058351,1.4324098,4.0680604,2.1772908,9.3393178,2.1772908,15.6419121h0ZM1854.6841941,374.7756974c-1.3178799-6.5317851-5.0994627-13.5219517-11.287396-20.8558828-1.9480563-2.2918644-4.4117592-4.4118029-7.4484609-6.3025943-2.8648195-1.7761741-5.7296391-3.3232012-8.4225765-4.5837288-1.3178799-.6302638-2.5784075-1.1459103-3.7242304-1.6616006,1.890704-.8594546,3.953465-1.8334828,6.1307558-2.9221282,3.2085839-1.604292,6.4171678-3.4377747,9.396692-5.3858747,3.1512316-2.0053649,5.7296391-4.2399425,7.5058132-6.3599029,4.1826995-4.1826339,6.7609322-7.9069081,7.9642823-11.4592782,1.1459978-3.3804879,1.7188218-7.333931,1.7188218-11.8030644v-114.5927381c0-8.7663408-.5156465-16.9597265-1.604292-24.3509661-1.1459978-8.0787902-6.6464023-15.1835523-16.3866839-21.199669-5.4432271-3.2658925-11.5166305-5.6723414-17.9911507-7.1047512-6.302638-1.3751121-12.4905713-2.3491512-18.334915-2.9221172-5.7869914-.5156684-10.8862793-.802146-15.1263311-.802146h-67.3806116v449.0318312h40.3938856v-229.472063h12.9490403c6.0160511,0,11.4019258.5156465,16.0429195,1.4897184,4.5836413.9740282,9.6257517,2.8648195,14.8397443,5.4431396,4.9274057,2.8075109,7.9642823,6.8182845,9.396692,12.2041155,1.4897621,5.9015213,2.2346432,11.9176598,2.2346432,17.9337546v192.2866739h41.4825311l-.5156465-184.9527428c.0571775-8.0787247-.5729989-15.3553908-1.8335265-21.6579851h0Z"/>
    <path class="cls-3" d="M2007.4935707,548.4410443c0,5.1566839-2.2346432,9.5112219-6.8756368,13.4073345-4.7555235,3.953465-11.573808,5.9588299-20.2829713,5.9588299-9.4538695,0-16.6732707-1.8907914-21.3716168-5.7296391-4.6409937-3.6669655-6.8756368-7.9641948-6.8756368-13.1208788V131.4379183h-40.3938856v406.0022294c0,6.3025943,1.2031752,12.3760414,3.6097006,18.0483719,2.4637028,5.8442126,6.5318725,10.9436316,12.0894545,15.1262437,5.5004046,4.1253471,12.6624534,7.4485483,21.3142644,9.8549862,8.5944586,2.4064379,19.2515034,3.6096569,31.6275448,3.6096569,12.7198058,0,23.4915552-1.1459103,32.0860139-3.3232012,8.7089885-2.2345557,15.7565075-5.5004483,20.9131477-9.6831041,5.2139926-4.2399207,8.9955753-9.2247224,11.287396-14.8397443,2.2346432-5.5004483,3.3231137-11.5165868,3.3231137-17.7618724V131.4379183h-40.451238v417.003126h.0003497Z"/>
    <polygon class="cls-3" points="2139.3899745 557.8376489 2222.1259769 129.317958 2096.818798 129.317958 2096.818798 152.4657051 2172.2206945 152.4657051 2090.0005135 580.985396 2226.3085015 580.985396 2226.3085015 557.8376489 2139.3899745 557.8376489"/>
  </g>
  <g>
    <g>
      <path class="cls-3" d="M3184.9933609,297.2041349c-6.5084951,9.3222611-15.5877318,16.290224-27.2377102,20.9076861-11.6537756,4.6174621-25.2156719,6.9261932-40.6913848,6.9261932-15.6541838,0-29.5464413-3.6719456-41.6805697-11.0158368-12.136027-7.3400939-21.5228414-17.7825452-28.1604432-31.3235566-6.641399-13.5410114-10.0475368-29.2388636-10.2222105-47.0897595v-16.7534891c0-28.9274887,6.7458235-51.3502796,20.2450651-67.2683726,13.497343-15.9142958,32.468429-23.8733423,56.9151568-23.8733423,20.0495065,0,36.1840431,5.122497,48.407407,15.3674911,12.2214653,10.244994,19.6963618,24.777089,22.4246895,43.5924876h-25.3257923c-4.7484674-25.4985674-19.8729341-38.2497498-45.3734002-38.2497498-16.9718313,0-29.833134,5.9616904-38.5820096,17.8888684-8.7507742,11.9233808-13.1688804,29.1970938-13.2543186,51.8135447v15.709244c0,21.560814,4.9231411,38.7016231,14.771322,51.4186302,9.8481809,12.7170071,23.1689515,19.0736119,39.9661091,19.0736119,9.4969348,0,17.8072274-1.0518396,24.9289792-3.1555189,7.1236504-2.1074765,13.0131929-5.6617072,17.6743235-10.6588948v-43.0342911h-44.4487686v-20.7064316h69.6435556v70.4314861Z"/>
      <path class="cls-3" d="M3277.1474644,325.0380142c-19.3470143,0-35.0866364-6.3528076-47.2207648-19.0622202-12.1341284-12.7056153-18.2021419-29.6983315-18.2021419-50.9781486v-4.4845582c0-14.1561667,2.7036456-26.7972287,8.1109367-37.9231859,5.4091898-11.1221599,12.9695245-19.8254684,22.6867001-26.1137228,9.715277-6.2882543,20.2469638-9.4323815,31.5912631-9.4323815,18.5514894,0,32.9753626,6.1135806,43.2621264,18.3331472,10.2886625,12.2271612,15.433943,29.7249123,15.433943,52.4970506v10.1576572h-96.6838086c.3512461,14.0688298,4.4617746,25.4378114,12.3334843,34.0955528,7.8679124,8.6615387,17.8717807,12.9942067,30.0059091,12.9942067,8.6178703,0,15.9161944-1.7581291,21.8968711-5.2781845,5.978778-3.5162581,11.2113954-8.1754901,15.6959536-13.981493l14.9042259,11.6082086c-11.9594547,18.3787143-29.8976874,27.5680714-53.8146981,27.5680714ZM3274.1134576,197.0933036c-9.8500795,0-18.1167037,3.5846087-24.7979739,10.750029-6.6831688,7.1692175-10.8145823,17.212957-12.3980376,30.1388131h71.4890216v-1.8454659c-.7043908-12.3980376-4.0440766-22.0050928-10.0228546-28.8211656-5.9806767-6.8122755-14.0707285-10.2222105-24.2701554-10.2222105Z"/>
      <path class="cls-3" d="M3381.5487738,179.6828894l.789829,17.9382327c10.9038178-13.7194824,25.14922-20.5773249,42.7362066-20.5773249,30.159698,0,45.3734002,17.0154997,45.6373094,51.0464992v94.3086256h-24.4011607v-94.4415295c-.0892355-10.2867638-2.4397363-17.8926656-7.0571984-22.8177054-4.6155635-4.9250398-11.8037672-7.385661-21.5646112-7.385661-7.9153781,0-14.8624561,2.1074765-20.8412342,6.3300241-5.9806767,4.2225476-10.6399086,9.7589454-13.981493,16.6205852v101.6942866h-24.4011607v-142.7160326h23.0835132Z"/>
      <path class="cls-3" d="M3495.5385721,249.7232582c0-13.981493,2.747314-26.5580016,8.2438406-37.7257286,5.494628-11.1639297,13.1441982-19.7836986,22.9506093-25.8517122,9.8045125-6.0680135,20.9931244-9.1020203,33.5677343-9.1020203,19.4343512,0,35.1530883,6.7287359,47.1543128,20.1824104,12.0031231,13.4536745,18.0046847,31.3463402,18.0046847,53.6817942v1.7163593c0,13.8941561-2.6599771,26.3605443-7.9799314,37.3915702-5.3199543,11.0386203-12.9258561,19.6356057-22.8177054,25.7871588-9.8937479,6.1553504-21.2589322,9.2349242-34.0974514,9.2349242-19.3451157,0-35.0182858-6.7287359-47.0214089-20.1824104-12.0031231-13.4536745-18.0046847-31.2590033-18.0046847-53.4197836v-1.712562ZM3520.0726368,252.624361c0,15.8269589,3.670047,28.5363715,11.0120395,38.1168459,7.3419926,9.5880689,17.1692886,14.3802047,29.4799893,14.3802047,12.3999363,0,22.2462185-4.8604864,29.5464413-14.577662,7.2983241-9.7133783,10.9474862-23.3227403,10.9474862-40.8204914,0-15.6522852-3.715614-28.3389142-11.1449435-38.0560898-7.4331267-9.7133783-17.3021925-14.5738648-29.6128932-14.5738648-12.0467915,0-21.7620685,4.7921358-29.1496281,14.3764075-7.385661,9.5880689-11.0784915,23.303754-11.0784915,41.1546499Z"/>
      <path class="cls-3" d="M3674.9588717,179.6828894l.6588237,15.8269589c10.4633362-12.3107008,24.5777331-18.4660511,42.3412921-18.4660511,19.960271,0,33.5449508,7.6514689,40.7559381,22.9506093,4.7484674-6.8578426,10.9266013-12.3980376,18.5325031-16.616788,7.6059018-4.2225476,16.5978017-6.3338214,26.973801-6.3338214,31.3045704,0,47.2207648,16.5788154,47.7485832,49.7288517v95.6262731h-24.4011607v-94.1757217c0-10.199427-2.3315146-17.8281123-6.9907465-22.886056-4.6630292-5.0541464-12.4872731-7.5831183-23.4784278-7.5831183-9.0583518,0-16.5769168,2.7036456-22.5556948,8.1109367-5.9806767,5.4072911-9.4532664,12.686629-10.4196678,21.8304191v94.7035401h-24.5340647v-93.5187966c0-20.7519987-10.1557585-31.1260994-30.4691743-31.1260994-16.0054299,0-26.9529161,6.8160728-32.8424586,20.444421v104.2004749h-24.4011607v-142.7160326h23.0816146Z"/>
      <path class="cls-3" d="M3943.5429363,325.0380142c-19.3470143,0-35.0866364-6.3528076-47.2207648-19.0622202-12.1341284-12.7056153-18.2021419-29.6983315-18.2021419-50.9781486v-4.4845582c0-14.1561667,2.7036456-26.7972287,8.1109367-37.9231859,5.4091898-11.1221599,12.9695245-19.8254684,22.6867001-26.1137228,9.715277-6.2882543,20.2469638-9.4323815,31.5912631-9.4323815,18.5514894,0,32.9753626,6.1135806,43.2621264,18.3331472,10.2886625,12.2271612,15.433943,29.7249123,15.433943,52.4970506v10.1576572h-96.6838086c.3512461,14.0688298,4.4617746,25.4378114,12.3334843,34.0955528,7.8679124,8.6615387,17.8717807,12.9942067,30.0059091,12.9942067,8.6178703,0,15.9161944-1.7581291,21.8968711-5.2781845,5.978778-3.5162581,11.2113954-8.1754901,15.6959536-13.981493l14.9042259,11.6082086c-11.9594547,18.3787143-29.8976874,27.5680714-53.8146981,27.5680714ZM3940.5089296,197.0933036c-9.8500795,0-18.1167037,3.5846087-24.7979739,10.750029-6.6831688,7.1692175-10.8145823,17.212957-12.3980376,30.1388131h71.4890216v-1.8454659c-.7043908-12.3980376-4.0440766-22.0050928-10.0228546-28.8211656-5.9806767-6.8122755-14.0707285-10.2222105-24.2701554-10.2222105Z"/>
      <path class="cls-3" d="M3043.3697562,580.9187241v-191.365111h67.0317078c23.2173272,0,40.8289714,4.4459517,52.8349328,13.337855,12.0040695,8.8956871,18.0070502,21.930839,18.0070502,39.1016719,0,9.3800121-2.4121653,17.6362389-7.2289282,24.7762481-4.8205467,7.143793-11.5235283,12.3767727-20.1089448,15.7065067,9.811364,2.4556788,17.545428,7.4048744,23.1984082,14.8513705,5.6510883,7.4502799,8.4756866,16.5616429,8.4756866,27.337873,0,18.4005642-5.8705481,32.332474-17.6116443,41.7957294-11.7429881,9.4632554-28.4767934,14.2838022-50.2070916,14.4578564h-74.3911768ZM3082.8006177,469.7283108h29.1767943c19.889485-.3518923,29.8351735-8.2827134,29.8351735-23.792463,0-8.6724436-2.5181113-14.9156949-7.5562259-18.72597-5.0400065-3.814059-12.9916383-5.7173047-23.8548955-5.7173047h-27.6008463v48.2357377ZM3082.8006177,497.5921305v51.6524989h33.7778813c9.2854173,0,16.5370483-2.2135164,21.7511091-6.6367653,5.2121689-4.4270327,7.8210911-10.5378514,7.8210911-18.3362398,0-17.5227252-9.0697414-26.4184124-27.2073323-26.6794938h-36.1427492Z"/>
      <path class="cls-3" d="M3287.7211515,474.325614c-5.1705472-.7000009-9.7262287-1.0518932-13.6689365-1.0518932-14.3708293,0-23.7886792,4.8659522-28.2573336,14.590289v93.0547143h-37.9854543v-142.2099126h35.8816678l1.0518932,16.9551569c7.6224422-13.0540708,18.1811045-19.5848901,31.6740948-19.5848901,4.207573,0,8.1502808.5713521,11.8300152,1.7102725l-.5259466,36.5362632Z"/>
      <path class="cls-3" d="M3297.6535967,508.5007931c0-14.1097479,2.7148684-26.6832776,8.1483889-37.7243728,5.4316286-11.0373115,13.2527197-19.5811063,23.4613815-25.6276005,10.2067699-6.0464943,22.0575959-9.0697414,35.5524782-9.0697414,19.1894841,0,34.8505854,5.87244,46.9870875,17.6135362,12.1346102,11.7410962,18.9038081,27.6897653,20.3057018,47.8422237l.2629733,9.7243368c0,21.8173254-6.0900078,39.3211317-18.2681316,52.5076351-12.1800157,13.1902872-28.520307,19.7816471-49.0246576,19.7816471s-36.8673447-6.5724409-49.0908739-19.7173227c-12.2216373-13.141098-18.3343479-31.0157156-18.3343479-53.6238527v-1.7064887ZM3335.6371591,511.1948507c0,13.5156931,2.5408141,23.8492199,7.6243341,31.0005804,5.0797363,7.1513605,12.3540699,10.7270408,21.8173254,10.7270408,9.2002821,0,16.3838049-3.5302748,21.554352-10.5946082,5.1686553-7.0643334,7.7548748-18.3627263,7.7548748-33.8951787,0-13.2508279-2.5862195-23.5200302-7.7548748-30.8038234-5.1705472-7.2837932-12.442989-10.9237978-21.8173254-10.9237978-9.2892011,0-16.4746158,3.6210857-21.554352,10.8594734-5.0835201,7.2383877-7.6243341,18.4497535-7.6243341,33.6303135Z"/>
      <path class="cls-3" d="M3572.4474637,529.2662252l18.6635375-90.5574138h36.6686958l-36.2751818,142.2099126h-31.8065274l-26.9424671-89.5055205-26.944359,89.5055205h-31.6759867l-36.2751818-142.2099126h36.6705877l18.5311049,90.4249812,26.0248983-90.4249812h27.4684137l25.8924657,90.5574138Z"/>
      <path class="cls-3" d="M3718.4808947,541.6202952c0-4.6427087-2.3005435-8.3016323-6.9016305-10.9729871-4.5991951-2.6751386-11.9813668-5.0627092-22.146515-7.1664957-33.8232867-7.0946037-50.7330382-21.465433-50.7330382-43.1087041,0-12.6151514,5.2348716-23.1530028,15.7065067-31.6097704,10.4697432-8.4529838,24.1613824-12.6832596,41.0730258-12.6832596,18.0486719,0,32.4838256,4.2529784,43.307353,12.7513678,10.8197436,8.4983893,16.2324533,19.5394846,16.2324533,33.1195021h-37.9854543c0-5.4335205-1.753786-9.9248776-5.2556824-13.4702876-3.5056802-3.5491938-8.9827143-5.3237906-16.4292103-5.3237906-6.3983866,0-11.3494741,1.4454073-14.8532623,4.3362218-3.5056802,2.8908145-5.2556824,6.5724409-5.2556824,11.0410953,0,4.2037892,1.9902728,7.6016314,5.9783861,10.185959,3.9862213,2.5843276,10.7119057,4.8205467,20.1751611,6.7010897,9.4632554,1.8881105,17.4356981,4.010816,23.9211118,6.3756839,20.0635393,7.3594689,30.0981468,20.1108367,30.0981468,38.2465357,0,12.9708275-5.5659531,23.4632734-16.6921836,31.4773378-11.1281224,8.0178481-25.4970598,12.0286641-43.1087041,12.0286641-11.9189342,0-22.4984073-2.1264892-31.742203-6.3756839-9.2456876-4.2491947-16.4935347-10.0762292-21.7511091-17.4811036-5.2575743-7.4010906-7.8873074-15.396236-7.8873074-23.9854363h36.0141004c.3481086,6.7464952,2.8454091,11.9151505,7.4900096,15.5097497,4.6446006,3.5945992,10.8651491,5.388115,18.6635375,5.388115,7.2724418,0,12.7702867-1.3810829,16.4954266-4.1394648,3.723248-2.7621657,5.5867639-6.3756839,5.5867639-10.8443383Z"/>
      <path class="cls-3" d="M3840.466457,583.5484572c-20.8543511,0-37.8322108-6.3946028-50.9297952-19.191376-13.0994763-12.7892056-19.6492145-29.8351735-19.6492145-51.1265522v-3.6816264c0-14.2800184,2.7602738-27.0503051,8.2808215-38.3108601,5.5186557-11.2567712,13.3397469-19.9329986,23.4594896-26.0248983,10.1216346-6.0881159,21.6640819-9.1340658,34.6330175-9.1340658,19.4524575,0,34.7635582,6.1335214,45.9351942,18.4005642,11.171636,12.2708266,16.7583999,29.6611192,16.7583999,52.1784455v15.5097497h-90.5574138c1.2259475,9.2892011,4.9283847,16.739481,11.1054197,22.343272,6.1789269,5.6075748,13.9981261,8.4113622,23.4613815,8.4113622,14.6319107,0,26.06652-5.3010879,34.3038279-15.9032637l18.6635375,20.8978647c-5.6964938,8.0632536-13.4059632,14.3481266-23.1321919,18.8621864-9.7262287,4.5102761-20.5024588,6.7691979-32.332474,6.7691979ZM3836.1302352,466.7050637c-7.537307,0-13.6500176,2.5502736-18.3362398,7.6583882-4.6881141,5.1043309-7.6886585,12.407043-9.0016332,21.9119201h52.8349328v-3.0383823c-.1759462-8.4454163-2.4537869-14.9800193-6.8335223-19.603809-4.3835192-4.6200059-10.6040677-6.928117-18.6635375-6.928117Z"/>
      <path class="cls-3" d="M3999.4740808,474.325614c-5.1705472-.7000009-9.7262287-1.0518932-13.6689365-1.0518932-14.3708293,0-23.7886792,4.8659522-28.2573336,14.590289v93.0547143h-37.9854543v-142.2099126h35.8816678l1.0518932,16.9551569c7.6224422-13.0540708,18.1811045-19.5848901,31.6740948-19.5848901,4.207573,0,8.1502808.5713521,11.8300152,1.7102725l-.5259466,36.5362632Z"/>
    </g>
    <g>
      <rect class="cls-1" x="2730.8855681" y="518.650831" width="30.8546485" height="62.5299583"/>
      <rect class="cls-4" x="2772.2327947" y="518.650831" width="37.8413962" height="62.5299583"/>
      <rect class="cls-5" x="2690.0279739" y="518.650831" width="22.8885721" height="62.5299583"/>
      <rect class="cls-2" x="2607.2652795" y="518.650831" width="10.6414876" height="62.5299583"/>
      <rect class="cls-6" x="2648.5535413" y="518.650831" width="16.1561722" height="62.5299583"/>
      <path class="cls-3" d="M2889.9147454,184.6055323c1.6785893,1.9462552,4.8749728.7444378,4.8749728-1.8256695v-55.066201h-121.6132879c-47.1752024,0-89.2777659,18.6675071-114.5650074,59.1496159-31.0428666,49.6992316-23.0357263,112.8907133,15.6200538,153.4794376,0,0-67.1413613,107.1987939-67.189417,107.2744072-3.039118,4.8563884,6.3384172,16.2047171,20.9456017,25.345291,10.8103176,6.7661553,21.4998156,10.4517499,27.564443,9.9478669h158.5421678c9.799107,0,17.9971729,7.76599,18.1608599,17.5637148.1671742,10.009425-7.8965058,18.1768288-17.8674225,18.1768288h-4.3135293v62.5299718h4.3135293c44.3546952,0,80.3208454-35.9145222,80.4019022-80.2509733.0809717-44.3040879-36.7855634-80.5513214-81.0897364-80.5513214h-115.8773103l29.382734-46.9813211c11.8333083,3.7857886,23.9822107,5.7575176,36.131028,5.9552263,42.6394262.5931688,84.5688829-20.4324053,108.7879698-59.1669244,36.7225382-58.8507988,18.7361247-136.6351334-40.1148868-173.3979661-.3330089-.2077239-.6747358-.389974-1.008893-.5949549,10.3620176,3.1398011,20.4834379,7.6626916,30.0974241,13.6680574,10.9831267,6.8611823,20.7118087,15.3471995,28.8168039,24.7449139ZM2828.9536428,254.9353882c-.7455435,33.8638203-28.2760074,61.3976013-62.1397001,62.1472274-36.1937555.8012329-65.8068167-28.8115944-65.0061154-65.0069021.7490308-33.8638416,28.2815359-61.3952197,62.1453988-62.140742,36.1900131-.7967462,65.7972268,28.8107226,65.0004167,65.0004167Z"/>
    </g>
  </g>
</svg>