<svg xmlns="http://www.w3.org/2000/svg" width="100%" height="100%" viewBox="0 0 472.8 131.4">
  <path fill="#00467F" d="M155.9 129.1c-11.1 0-11.9-5.9-11.9-11.9v-20.3h6.1v23.4c0 3.1 1 6.5 5.7 6.5 5.1-.1 5.4-3.6 5.4-6.5v-21.3c0-3.2-.7-5.1-1.5-8.2-1.2-4.7-2.8-7.3-5.1-11.7l-6.1-11.7c-2.1-3.8-2.8-6.2-3.6-10.4-.8-4-.8-6.6-.8-10.7v-4.7c0-5.9.8-11.8 11.6-11.8 11.1 0 11.8 6 11.8 11.9v18.1h-6.2v-21.3c0-3-.7-6.3-5.4-6.3-5.1.1-5.7 3.5-5.7 6.3v6.3999999999999995c0 4.2.1 6.8 1 11.1.8 3.8 1.7 6.1 3.6 9.8l5.8 11.1c1.2 2.7 3.5 6.3 4.7 10.5 1.4 4.4 2.2 6.3 2.2 11.4v18.6c-.1 5.8-.8 11.6-11.6 11.7zM203.5 128.4h-6.1v-50.3h-10.9v50.3h-6.2v-86.6c0-6 .8-11.9 11.9-11.9 10.8 0 11.4 5.9 11.4 11.8v86.7zm-6.1-54.2v-35.7c0-2.9-.3-6.2-5.4-6.3-4.7 0-5.5 3.3-5.5 6.3v35.6h10.9zM234.1 89.6v-59.3h6.1v98.1h-6.1v-18.7l-11.1-52.6v71.3h-6.1v-98.1h5.5l11.7 59.3zM274.8 34h-9.1v94.4h-6.2v-94.4h-8.9v-3.6h24.2v3.6zM308.6 128.4h-6.1v-50.3h-10.9v50.3h-6.2v-86.6c0-6 .8-11.9 11.9-11.9 10.8 0 11.4 5.9 11.4 11.8v86.7zm-6.1-54.2v-35.7c0-2.9-.3-6.2-5.4-6.3-4.7 0-5.5 3.3-5.5 6.3v35.6h10.9zM364.1 96.9v22.3c0 5.4-2.8 9.9-11.5 9.9s-11.9-4.3-11.9-9.6v-77.7c0-6 .8-11.9 11.9-11.9 10.8 0 11.5 5.9 11.5 11.8v18.5h-6.2v-21.7c0-2.9-.3-6.2-5.3-6.3-4.8 0-5.7 3.3-5.7 6.3v83.2c0 2.5 2.2 4.8 5.7 4.8 3.6-.1 5.3-2.2 5.3-4.7v-24.9h6.2zM395 128.4v-41.5c0-2.9-.4-5.9-2.4-7.2-1.9-1.4-3.3-1.7-5.7-1.7h-2.8v50.4h-6.2v-97.8h11.1c1.7 0 6.2.2 9.1 2.4 3 2.2 3 5.2 3 8.7v26.2c0 1.8-.3 3.1-1.5 4.7-1.4 1.8-4.8 3.6-5.1 3.7.3.1 3 1.6 4.3 3.1 2.2 2.3 2.4 4.6 2.4 7.3v41.7h-6.2zm-2.5-94.2c-1.1-.5-2.8-.9-4.6-.9h-3.7v42h2.9c2.6 0 5.3-1.2 6.4-2.5 1-1 1.5-4.2 1.5-6.8v-26.3c0-2.8-.5-4.6-2.5-5.5zM420 121.8c0 2.5 1.8 4.7 5.4 4.7 3.5 0 5.3-2.3 5.3-4.8v-91.2h6.2v89.1c0 5.3-2.8 9.6-11.5 9.6s-11.6-4.5-11.6-9.9v-88.8h6.2v91.3zM464 34h-13.4v-3.7h21l-14.5 94h15.4v4h-23l14.5-94.3zM156.7 15.3c0 1.8-.1 3.5-1.4 5-1.2 1.5-3.1 2.1-5 2.1-1.8 0-3.7-.4-5-1.8-1.4-1.5-1.5-3.4-1.5-5.3v-11.8h2.3v11.8c0 1.1 0 2.6.7 3.6.8 1.1 2.3 1.4 3.6 1.4 1.2 0 2.5-.4 3.3-1.3.9-1.1.9-2.4.9-3.7v-11.8h2v11.8zM174.7 22.1h-2.3l-9.4-16.2v16.2h-2v-18.6h2.9l8.8 15.1v-15.1h2v18.6zM179.1 22.1v-18.6h2.3v18.6h-2.3zM192.5 22.1h-2.2l-6.3-18.6h2.4l5.2 15.3 5.1-15.3h2l-6.2 18.6zM213.3 22.1h-12v-18.6h11.8v2h-9.4v5.9h7.5v1.9h-7.5v6.8h9.7v2zM227.3 22.1l-3.4-8h-5.1v8h-2.3v-18.6h7c1.5 0 3 .2 4.2 1.1 1.2.9 2 2.5 2 4.1 0 2.2-1.3 4.2-3.5 4.8l3.7 8.6h-2.6zm-4.2-9.9c1.2 0 2.3-.1 3.2-1 .7-.7.9-1.5.9-2.4 0-1.1-.4-2-1.3-2.6-.8-.6-1.6-.6-2.6-.6h-4.6v6.6h4.4zM234.2 16.6c.8 2.6 2.9 3.8 5.5 3.8 1.1 0 2.5-.2 3.3-.9.7-.5 1.1-1.5 1.1-2.4 0-1.9-1.5-2.6-3.2-3l-3.1-.8c-1.2-.3-2.4-.6-3.4-1.5s-1.5-2.1-1.5-3.4c0-3.6 3.1-5.1 6.3-5.1 3.1 0 5.6 1.5 6.6 4.5l-2.1.6c-.4-2-2.6-3.3-4.6-3.3-1.8 0-4 .9-4 3s1.6 2.5 3.4 3l2.8.7c1.2.3 2.4.6 3.4 1.4 1.2.9 1.7 2.2 1.7 3.7 0 1.7-.7 3.2-2.1 4.2-1.4 1-3.2 1.4-4.8 1.4-3.8 0-6.3-1.7-7.5-5.3l2.2-.6zM250.1 22.1v-18.6h2.3v18.6h-2.3zM262.8 22.1h-2.3v-16.5h-5.3v-2h12.8v2h-5.3v16.5zM277.1 14.3v7.8h-2.3v-7.8l-6.2-10.8h2.7l4.9 8.6 5-8.6h2.1l-6.2 10.8zM292.4 13c0-4.6 2.3-9.7 7.6-9.7 5.2 0 7.6 4.8 7.6 9.3 0 4.5-2.3 9.8-7.6 9.8s-7.6-4.8-7.6-9.4zm12.9-.3c0-1.7-.3-3.6-1.1-5.1-.8-1.5-2.3-2.5-4-2.5-4.1 0-5.3 4.5-5.3 7.8 0 3.2 1.3 7.5 5.2 7.5 4 .1 5.2-4.5 5.2-7.7zM311.2 22.1v-18.6h11.4v2h-9v5.9h7.5v1.9h-7.5v8.8h-2.4zM345.7 16.3c-.9 3.5-3 6.1-6.9 6.1-5.4 0-7.6-5.2-7.6-9.8 0-4.8 2.4-9.4 7.7-9.4 3.7 0 5.9 2.5 6.7 5.9l-2.2.4c-.7-2.4-1.8-4.4-4.6-4.4-4 0-5.1 4.4-5.1 7.6 0 1.5.2 3.3.9 4.6.8 1.7 2.2 3 4.1 3 2.8 0 4.2-2.1 4.8-4.6l2.2.6zM361.9 22.1h-2.4l-1.9-5.4h-6.9l-1.7 5.4h-2l6-18.6h2.7l6.2 18.6zm-7.6-16.1l-2.9 8.9h5.7l-2.8-8.9zM375.3 22.1h-11v-18.6h2.3v16.5h8.6v2.1zM378 22.1v-18.6h2.3v18.6h-2.3zM384.9 22.1v-18.6h11.4v2h-9v5.9h7.5v1.9h-7.5v8.8h-2.4zM397 13c0-4.6 2.3-9.7 7.6-9.7 5.2 0 7.6 4.8 7.6 9.3 0 4.5-2.3 9.8-7.6 9.8s-7.6-4.8-7.6-9.4zm12.8-.3c0-1.7-.3-3.6-1.1-5.1-.8-1.5-2.3-2.5-4-2.5-4.1 0-5.3 4.5-5.3 7.8 0 3.2 1.3 7.5 5.2 7.5 4 .1 5.2-4.5 5.2-7.7zM426.7 22.1l-3.4-8h-5.1v8h-2.3v-18.6h7c1.5 0 3 .2 4.2 1.1 1.2.9 2 2.5 2 4.1 0 2.2-1.3 4.2-3.5 4.8l3.7 8.6h-2.6zm-4.2-9.9c1.2 0 2.3-.1 3.2-1 .7-.7.9-1.5.9-2.4 0-1.1-.4-2-1.3-2.6-.8-.6-1.6-.6-2.6-.6h-4.6v6.6h4.4zM446.2 22.1h-2.3l-9.5-16.2v16.2h-1.9v-18.6h2.9l8.8 15.1v-15.1h2v18.6zM450.6 22.1v-18.6h2.3v18.6h-2.3zM470.2 22.1h-2.4l-1.9-5.4h-6.9l-1.7 5.4h-2l6-18.6h2.7l6.2 18.6zm-7.6-16.1l-2.9 8.9h5.7l-2.8-8.9zM109.3 67.3c-.1-.1-1-1.1-2.8-3 .1-.8.2-1.8.3-3l.2-2-.8.4c-.3.1-1.1 1-2 2.1-2-2.2-4.7-5-7.9-8.3v-8.7c6.2 4.5 11.2 8.2 11.2 8.2.3.2.7-.3.3-.6-2.2-1.7-6.4-4.8-11.5-8.5v-4.9c0-.6 0-1.9-.6-1.5-1.2.8-6.5-.2-6.6-.2l-1.4.3c-4.7-3.5-9.5-7-13.6-10-1-.7-1.4-.3-.4.5.7.6 6.5 4.9 13.1 9.7-2.1.4-3.8.4-5.3.3-2.4-2.5-4.9-5.1-7.7-7.9-.8-.8-1.4-.3-.6.5.1.1 2.9 3.1 6.9 7.2-1.3-.1-2.5-.4-3.7-.5-.7-1-1.5-2-2.1-3-1.3-1.7-1.4-.6-.7.5.4.6.9 1.4 1.6 2.4h-2.5c-.1-.4-.2-.7-.4-1-.5-1.3-1.4-1.8-.8.4.1.3.2.5.2.8-.5.1-1.2.3-1.9.7-.2-1.4-.5-2.7-.7-4-.3-1.4-.9-1.3-.7.2.2 1.4.4 2.8.7 4.2-.9.5-1.8 1.1-2.3 2 0-2.4-.1-4.7-.1-6.9 0-2.3-.6-1.4-.7 0v6.3c-.6-.8-1.7-1.4-2.7-1.9l.6-3.7c.2-1.5-.5-1.6-.7-.2-.2 1.2-.4 2.4-.7 3.6-.8-.3-1.5-.4-1.9-.4l.2-.6c.6-2.2-.3-1.8-.7-.4-.1.3-.2.6-.3 1-.9 0-1.8 0-2.6.1.7-1 1.2-1.8 1.6-2.4.8-1.1.6-2.2-.7-.5-.7.9-1.4 1.9-2.1 3-1.3 0-2.4.1-3.4.1 3.8-4 6.4-6.7 6.5-6.9.8-.8.2-1.3-.6-.5-2.6 2.6-5 5.1-7.2 7.4-3.7.2-4.9.3-6.1.4 6.8-5 12.8-9.4 13.5-10 1-.8.6-1.2-.4-.5-4.3 3.2-9.4 6.9-14.3 10.5h-1.5c-1.2 0-4.1.1-4.9 0-.3 0-.8-.2-1-.2-.6 0-.7.4-.7 1v5.2c-4.9 3.6-9.1 6.7-11.2 8.3-.4.3 0 .8.3.6 0 0 4.9-3.6 11-8.1v8.7c-8.5 8.9-12.9 13.7-13 13.8-.6.6-.1 1 .4.5 1.8-1.7 6.8-6.8 12.4-12.7v13.3c-4.6 7.3-7.8 12.8-7.9 12.8-.7 1.1-.6 1.7.2.8.2-.2 3.4-5.2 7.7-11.9v8.2c-1.1.1-2.6.4-3.1 1.1-.6.8-.4 1.5-.5 2.6-.1.7-.2 1.7-.4 2.2-.3.9-1.1 1.5-1.6 2s-.8 1.3-1.1 2c-.5 1.2.2 3 1 4.3.4.7 1.2 1.5 2 1.6 3 .5 3.4-1.6 3.8-2.7 0-.1 0-.1.1-.2 0 2 .1 3.1.1 3.2 0 .1 1.5 0 3.8-.1-.5 1.6-.9 2.5-.9 2.6-.5 1.9.4 1.2.6.5l1.1-3.1c2-.1 4.5-.2 7-.3.5.8 1.6 2 2 2.8l.5.9.3.6c.4.7.7 1.3 1.1 1.8-.3 1.7-.5 2.7-.5 2.9-.6 2.6-.1 2.8.6.4 0-.1.2-1 .5-2.4.3.4.6.9 1 1.4.8 1.1 2.5 2.2 6.5 3.9 1.5.7 3.7 1.1 6.1 1.2.1 2 .6 1.5.7 0 3.1.1 6.6-.4 10-1.5 1.8-.9 3.1-1.9 3.9-2.8v.1c.7 2.4 1.2 2.2.6-.4 0-.1 0-.2-.1-.4.5-.6.7-1 .7-1.1.2-.4 2-4.2-.2-7l-.1-.1-.2-.1-.4-.3c4 .2 8.3.4 11.2.5l.9 2.4c.2.7 1.2 1.3.6-.5 0 0-.3-.7-.7-1.9 1.8.1 2.9.1 2.9 0v-4.1c2.5-.4 3.3-1.1 4.9-2.5 1.9-1.7 3.1-4 3-6.3.1.2.2.3.2.3.8.9.9.3.2-.8 0 0-.3-.4-.7-1.1-.4-1.3-1.1-2.4-2-3.3-.9-1.5-2-3.3-3.3-5.4 1.3-.2 2.7-.6 3.8-1 1.2-.5 3-1.9 3.8-4.1l.5-.2c.1-.2.2-.5.2-.7l2.6 2.6c.5.4 1.1 0 .5-.6zm-5.8-4.8c-.7.8-1.4 1.6-2 2.3-.2-.8-.4-2.4-.6-3.5-.2-.9-.4-1.6-.7-2.2 1.2 1.2 2.3 2.3 3.3 3.4zm-7.3-7.6c.9.9 1.7 1.8 2.5 2.6v.4c.3 3-.3 5.4-.7 6.8-.4 1.4-.8 2-1.5 2.3l-.4.2c.1-4.6.1-8.8.1-12.3zm-2.3-15.4c.1-.6 1.1-.8 1.3.3.2.6.1 14.3 0 27.8-.4.1-.8.1-1.2.1h-.1c0-13.7-.1-27.9 0-28.2zm-1.9 0c0-.4 1-.6.9.3.1.2-.1 14.1-.2 27.5l-.5-.2c0-.2-.1-.4-.1-.4 0-1.4.6-1.6 0-2.3-.1-.2-.4-.3-.7-.4.3-12.7.5-24.3.6-24.5zm-2.5-.6c.2-.8 1-.2 1 .1 0 .3-.1 12.5-.2 25-.3.1-.7.1-1.1.2.1-7.3.2-15.8.3-25.3zm-.2 25.7h.2s1.3-.4 1.7-.1c.5.4.3 2.1.3 2.7v.6c0 .1.1.2.1.4.2.5.7.7.7.9-.3-.1-.5-.2-.8-.2-.4-.1-.8-.2-1.1-.2-.4-.1-.7-.1-1.1-.1h-.9c-.8.1-1.5.2-2 .5-.2.1-.4.2-.6.4 0 0-.1 0-.1.1-.2.1-.3.3-.5.5-.3.4-.5.9-.7 1.4-.1-.5-.7-1.1-.7-1.5 0-1.6 1-2.7 1.7-3.3.2-.2.5-.4.7-.5.1-.1.2-.1.2-.1l.5-.3c.1 0 .2-.1.2-.1.2-.1.3-.2.5-.2.1 0 .1 0 .2-.1.7-.6 1.2-.7 1.5-.8zm3.1 5.3l.2.1v3.6c-.5 0-.8.1-1.2.2 0-1.4 0-2.8.1-4.3.2.1.4.2.7.3l.2.1zm-2.1-.7v5.1l-.2.1c-.2.1-.5.2-.8.3v-5.7l1 .2zm-1.9-.1v5.9c-.2 0-.3.1-.4.1-1.5.1-2.4-.5-2.6-.9-.1-.2-.2-.4-.4-.7-.1-.3-.2-.9-.2-.9 0-.8.4-1.3 1.2-2.2.6-.7 1.4-1.2 2.4-1.3zm-21.3-27.3c.3-2.8 7.8-3.8 9.1-3.5 1.2.3 3.3.7 4.2.8 0 0 4.2 1 8-.4v25.5c-.7.2-2.3.6-3.4 1.5-1.2 1-2 2.2-2 3.8 0 1.1.4 2.1.9 3.5.3.8.5 1.7.6 1.7.7 1.1.5 2.1.7 3.1.3 1.6 1.3 1.9 1.7 2l1.4.3v1.9h-.3c-2.5-.2-3.4-.6-4.9-1.3l-1.7-1c-3-1.4-7-1.3-9-.4-1.1.4-1.7.8-2.3 1.5l-.1.4.1.3c.2.6.7 1.2.9 1.7.2.4.1 1.4.1 1.7 0 .8-.7 1.6-.9 1.8h.1c-.7.4-1 1.3-1.1 2.5-.8.4-1.4.7-2 1.1-.1-.1-.4-48.4-.1-48.5zm7.7 49c.1.3.3.6.6.8.2.3.5.5.9.7.3.2.7.5 1.1.7l.5.3c.3.1.5.3.8.5-.3 0-.5 0-.8.1l-1.2.1c-.3 0-.5 0-.7.1-.7.1-1.3.1-2.3-.1-.3 0-.6-.1-1-.2-.6-.1-1-.4-1.4-.8-.4-.4-.8-.9-1-1.4-.2-.4-.3-.6-.3-.9l-.1-.8c0-.4.1-.8.1-1.1.1-.3.1-.5.3-.7v-.1c.1-.2.3-.3.4-.4l.2-.1c.3-.1.5-.1.8-.1h1l.9.1h.1l1.3.3-.2.5c-.1.2-.2.5-.2.7-.1.2-.1.5-.1.7 0 .4.1.8.3 1.1zm.4-1.3c0-.4.2-.9.4-1.4.2 0 .3 0 .5-.1 1 .3 2 .6 3 1l-3.9.5zm7.6.7c1.3.4 2.7.6 4.2.8-3.3.1-7.3.3-10.7.5-.4-.3-.6-.5-.8-.8 2.4-.2 5-.3 7.3-.5zm-6.3 4.8c0 .5-.1.9-.5 1.2-2.2 1.8-4 2.2-8.2 1.6l-1.2-.2v-2.4c1.1 0 2.3-.3 3.5-1.2.1 0 .5-.1 1-.1.4.3.9.5 1.5.6 2.2.6 2.5.6 3.9.5zm-7.3-4l-.9-.4.9-.4c-.1.3-.1.6 0 .8zm-2.6.1c2 .1 3.1 2 2.9 2.2-1.4 1.6-4.4 1.7-5.7.1-.2-.3 1.1-2.2 2.8-2.3zm-3 .9c.4.1-.4.4-.4.4-.9-.2-2.7-.3-4.8-.5l-.1-.2c0-.1-.1-.2-.1-.4 2.4.2 4.4.4 5.4.7zm-5.8-1.9c-.1-.4-.3-.7-.6-1.1 2.6.4 6.7 1.1 7.6 1.8-.5.2.1-.1-.7.5-.7-.5-3.2-.8-6.3-1.2zm4.2 2.7c.3 0 1 0 .7.6 0-.1-1.4-.1-3.6-.1l-.3-.6c1.6 0 2.7 0 3.2.1zm.8 1.3c1.1.4 1.8.8 2.9 1v2.2c-.8-.3-1.6-.6-2.4-1.1 0 0-1-.5-2.3-1.1-.6-.3-1.1-.7-1.5-1.2 1.8 0 2.9.1 3.3.2zm-19-54.7c0-.4 0-.5.6-.5 8 .1 20.4-2.9 21.6 2.9 0 .2.3 37.1.1 48.5-2.7-1.1-4.8-1.5-9.4-2.1l-.8-1.1c-.9-1.3-1.1-1.8-1.8-2.3l-1.7-1.6c-.9-.7-2-1.8-2.2-2-2.5-1.7-4.7-2.5-6.5-2.9.2-23-.1-36.3.1-38.9zm-1.5.7c0-1.2.7-1.2.6-.3.1 1.3 0 14-.3 38.3-.3-.1-.6-.1-.9-.1.2-14.1.6-36.1.6-37.9zm-2.3-.3c-.1-.6.6-.9.7-.1.1.3-.2 23.4-.3 38.3l-.9.1c0-15.1.4-38.1.5-38.3zm-2.6-.3c.1-.8 1.2-.4 1.2.5-.1 16.1-.3 29.3-.4 38.4l-.3.1h-.6l.1-39zm-3.3 53.5c-.6.5-1.2.7-2 .6-.5 0-1.5-1.2-2-2.4-.2-.5-.2-1.1-.1-2 0-.3 0-.5.1-.7.1-.3.3-.6.5-.8.3.4.9.8 1.5 1.1l1.2.7c.7.5 1.7.8 2.4.9-.3.8-.7 1.9-1.6 2.6zm1.4-3.5c-.2 0-1 .1-2.2-.5l-1.1-.6c-.6-.8-.9-1.2-.9-1.4 0 0 0-.1.1-.1.6-.5 3-.5 4.5-.3v2.8c-.1.1-.3.1-.4.1zm1.9 3.7c-.1-.4-.2-2.8-.1-3.3v-3.2c.3 0 .6 0 .9.1 0 3.7.1 5.7.4 5.8.2.1 3.9.1 8.4.1v.1s.2.3.3.4l.1.3c-5.3-.1-9.9-.2-10-.3zm8.1-2.6c.1.2.3.4.5.7-3.6-.1-6.3-.3-6.4-.4-.1-.1-.1-1.6-.2-4l.9.2c0 1.9.1 3.1.1 3.2.3.1 2.3.2 5.1.3zm-3.9-3c.3.1.6.3 1 .5 0 0 0 .1.1 0 .6.3 1.2.8 1.8 1.3-1.7 0-2.9 0-2.8.1-.2-.2-.1-.9-.1-1.9zm40.4 10.1c0 .3 0 .6-.1.9v.2c-.1.3-.1.6-.2 1l-.3.9c0 .1 0 .1-.1.2-.1.3-.2.6-.4.9-.2.3-.3.6-.5.8-.8 1.1-1.9 1.8-4.7 3.1-.8.3-1.6.5-2.3.7l-.4.1c-.6.2-1.3.3-1.9.4h-.3c-.7.1-1.3.2-2 .2h-.1c-.7 0-1.4.1-2 0-.7 0-1.3-.1-1.9-.1h-.3c-.3 0-.7-.1-1-.2l-.6-.1-.7-.2-1.2-.4c-3.7-1.7-6.2-2.9-7.3-4.4l-.9-1.4-.6-.9c-.3-.6-.6-1.1-1-1.7l-.6-.7-.5-.9c-.3-.6-.7-1.3-1.1-1.9-.1-.2-.3-.4-.4-.7 0-.1-.5-1-.5-1v-.1l-.3-.4c-.2-.3-.3-.5-.5-.7-.2-.3-.3-.5-.5-.7-.3-.5-.6-.9-.8-1-.1-.1-.2-.2-.3-.2-.2-.2-.4-.4-.7-.6-.3-.2-.7-.5-1.2-.7-.4-.2-.9-.5-1.4-.7l-.9-.4-1.2-.5-.9-.3c-.5-.1-.9-.3-1.3-.3l-.9-.2c-.4 0-.7-.1-1-.1h-.3c-1.9.1-2.2-.1-2.8-.1h-.4c-.1 0-.3 0-.5.1l.3-.7c.2-.6.1-1.5.2-2.3.1-.9.4-2.1.9-2.5.1-.1.3-.3.5-.3.1 0 .1 0 .2-.1l.5-.1h1.5999999999999999l.8-.1h.2l.7-.2c.7-.2 1.4-.3 2.1-.4.4-.1.9-.1 1.3-.1.6 0 1.3 0 1.9.2l1.2.3c.1 0 .1 0 .2.1.4.1.8.3 1.2.5.1 0 .2.1.2.1.4.2.9.5 1.3.8l.2.1c.5.3 1 .7 1.5 1.1h.1c.1.1.8.6 1.4 1.1l2.3 1.8c.5.4 1.4 1.8 2.2 2.9l.6.9c.5.7.9 1.7 1.2 2.6 0 .1.1.2.1.4.1.3.2.6.4.9l.3.6.4.7.4.6.4.5s0 .1.1.1c.1.1.3.3.5.4l.1.1.6.4 1.3.7c.5.3 1.1.6 1.7.9 0 0 .1 0 .1.1.6.3 1.3.5 2 .7l.9.2c.1 0 .2 0 .2.1 4.6.6 8.4 0 9.9-1.6.5-.6.8-1.3.7-2h.3c1.5-.1 2-.2 2.9.5 1 .6 1.7 1.2 1.7 2.1zm12.7-4.1c-.4-.1-8.8-.4-15.5-.5-.4-.2-.9-.5-1.4-.7 6.6.1 13.7.1 15.9 0 0-.1.1-.6.1-1.4l1.1-.2c-.1 1.4-.1 2.4-.2 2.8zm6.8-15.3c.6.8 1.1 1.8 1.2 2.9.4 2.2.3 4.1-1.5 5.7l-.7.6-.4.3c-.1.1-.2.1-.2.2l-.4.3-.2.1-.4.3-.2.1c-.1.1-.3.2-.4.2l-.2.1-.5.2c-.1 0-.1 0-.2.1l-.6.2h-.2l-.7.2-.9.1-1.3.2c-.5.1-.9.1-1.4.1-.6.1-1.2.1-1.8.1h-1.9000000000000001c-.6 0-1.1-.1-1.6-.1h-.1c-2.8-.3-5.3-1-7.2-1.9l-1.4-.6-1.2-.5c-1-.4-1.9-.7-2.9-.9h-.2l-1.1-.2h-.3c-.4 0-.8-.1-1.1 0 .2-.6.4-1.4.4-2v-.4c-.1-.4-.3-.9-.5-1.4-.2-.4-.3-.7-.5-1.2.4-.5.6-.9 1.4-1.2 1.6-.6 5.1-1 7.9.3l2.1.9c1.5.7 2.7 1.4 5.4 1.6l1.5.1c.3 0 .6 0 .9.1h2.3c.5 0 1 0 1.4-.1.4 0 .8-.1 1.1-.1.4 0 .7-.1 1-.1.5-.1.9-.2 1.3-.3.1 0 .1 0 .2-.1.4-.1.7-.2 1-.3 2.7-.9 3.1-2.6 3.1-3.6zm-12.3 2.2c.3 0 .7.1 1 0v1.9c-.3 0-.6 0-1-.1v-1.8zm2.1 1.9v-2.2h.1c.3-.1.7-.3 1.1-.6v2.8c-.4.1-.8 0-1.2 0zm2.5.1v-3.8l1.2-1c0 1.6 0 3.2-.1 4.7-.3 0-.6.1-1.1.1zm6.6-4.5c.1.6.3 2.6-2.3 3.5l-2.1.7v-5.3c.9-.6 2-.7 4.3.9.1 0 .1.1.1.2zm-.4-1.8l-1.2-.2h-1.2000000000000002c-.3 0-.5 0-.8.1-.3 0-.5.1-.7.2-.4.1-.7.3-1 .5-.4.2-.7.5-1.1.9-.1 0-.1.1-.1.1-.5.5-.9.7-1.3.9-.4.2-.7.3-1.1.4h-.1l-.3.1-.8.3c-.6.2-1.3.3-1.9.2-.2 0-.4-.1-.7-.2-1.1-.5-1.7-1.5-1.8-1.9-.1-.7.1-.8-.1-1.9.3.1.7.2 1.1.2h1.7c.2 0 .4-.1.6-.2l.9-.4h.1c.4-.3.9-.5 1.5-.7.2-.1.5-.1.8-.2h2.2c.6 0 1.3-.1 2.1.1.1 0 .2 0 .4.1.1 0 .2 0 .3.1l.4.1c.1 0 .1 0 .2.1l.6.3.2.1.5.3.2.1c0 .1.2.3.4.5zm-6.1-2.5v-3c.4.2.9.4 1.3.5v2.6l-1.3-.1zm5.5 1.2c-1.7-1.2-2.4-1.2-3.3-1.1v-2.3c.4.1.7.1 1.1.1.8 1.2 1.6 2.3 2.2 3.3zm6.5-12.7c-.2 1.1-.4 2-.6 2.7-.1.2-.2.5-.2.7l-.2.4c-.8 2-1.7 3.6-4.8 4.6-.4.1-.8.2-1.1.2h-1c-.4 0-.8-.1-1.2-.2l-.5-.1-.6-.1-.3-.1c-1.3-.4-2.3-1.1-2.6-1.8v-.1l-.1-.3v-.1c.4.1.9.2 1.5.2.4 0 .8 0 1.3-.1.3 0 .7-.1 1-.2l.2-.1c1-.3 2.1-.8 2.7-2.7.3-.9.4-3.8.5-5.4.9 2 1.4 5.5 1.4 5.9l.2 1.1s.4-.4.7-.9c.9-1.2 1.5-2.1 2.1-2.8.2-.3.4-.5.5-.7l.7-.8h.1l.7-.6c-.3.4-.3.9-.4 1.3zm-59.9 27.4zM34.9 36.4c-.5.3-.8-.2-.2-.5 1.2-.7 20.3-9.3 21.8-10 .9-.4 1.4.2.5.7-.1 0-20.9 9.2-22.1 9.8zM56.6 24.4s.3.3-.1.4c-.5.2-6.5.5-6.9.5-.2 0-1.8.1-2.2.1-1.1-.1-.3-.4.2-.4 1.9-.4 8.4-.9 9-.6zM97 36.3c.5.3.8-.2.2-.5-1.2-.7-20.3-9.3-21.8-10-.9-.4-1.4.2-.5.6 0 .1 20.9 9.3 22.1 9.9zM75.9 24.4s-.3.3.1.4c.5.1 6.4.4 6.7.4.2 0 1.7.1 2.2.1 1.1-.1.3-.3-.2-.4-.6-.2-8-.9-8.8-.5zM55.9 114.2l-.1.2c-.2 0-.3 0-.4.3l-1.6 5.9c-.1.3 0 .4.2.4l-.1.2-2.3-.6v-.2c.3.1.4 0 .5-.2l1.2-4.4c-.2 0-.7 0-.9.2l-.2-.1.4-1.7.2.1c0 .2.1.2.3.3.3.1.5-.1.6-.4 0-.2 0-.3-.2-.3v-.2l2.4.5zM59.1 118.1c-.7-.3-1.1-1-1.1-1.6.1-1 1.3-1.8 3.3-1.6 2.2.2 3.2 1.1 3.1 2.1-.1.6-.6 1.3-1.4 1.4.9.4 1.4 1.1 1.3 1.9-.1 1.2-1.4 2-3.6 1.8-2.2-.2-3.4-1.3-3.3-2.4.2-.8.8-1.4 1.7-1.6zm1.8 2.9c.9.1 1.8-.2 1.9-1 .1-.7-.7-1.2-1.7-1.3-.9-.1-1.8.2-1.9 1-.1.8.7 1.2 1.7 1.3zm.3-3.2c1.1.1 1.6-.2 1.6-.8 0-.6-.4-1-1.5-1.1-1.1-.1-1.6.2-1.6.8 0 .5.4 1 1.5 1.1zM70.7 116.9l-.2-.1c0-.4-.7-.8-1.6-.7-1.3.1-2 1.2-1.9 2.4.5-.5 1.3-1 2.1-1 1.6-.1 2.9.6 3 2.4.1 1.2-1 2.4-3 2.5-2.4.1-3.5-1.4-3.6-3.2-.1-2.2 1-4 3.5-4.2 1.2-.1 2.1.4 2.4.4.1 0 .2 0 .2-.1l.1.1-1 1.5zm-.3 3c0-.7-.8-1.3-1.7-1.2-.9 0-1.6.7-1.5 1.4 0 .8.8 1.3 1.7 1.2.9-.1 1.5-.7 1.5-1.4zM74.2 117.7c-.7 0-1.4-.5-1.6-1.1-.3-1 .5-2.1 2.5-2.7 2.1-.6 3.4-.1 3.7.9.2.6-.1 1.4-.8 1.8 1 0 1.7.5 1.9 1.3.3 1.2-.6 2.4-2.7 3-2.2.6-3.7 0-4-1.1-.1-.7.2-1.5 1-2.1zm1.8-1c1-.3 1.4-.8 1.2-1.3-.2-.5-.7-.8-1.7-.5-1 .3-1.4.8-1.2 1.3.1.6.7.8 1.7.5zm.9 3.2c.9-.3 1.6-.9 1.4-1.6-.2-.7-1.1-.8-2-.6-.9.3-1.6.9-1.4 1.6.2.7 1.1.8 2 .6zM41.2 83.9l1.9.7c.1 0 .1 0 .2-.2h.1l-.6 1.5h-.1v-.3l-2.9-1.1v-.1c.2 0 .2 0 .2-.1l1.5-4.1c0-.1 0-.1-.1-.2v-.1l1.2.4v.1c-.1 0-.2 0-.2.1l-1.2 3.4zM46.7 85.8c0-.1 0-.2-.1-.3l-1-.6-.4.7 1.7 1c.1 0 .1 0 .2-.2h.1l-.8 1.4h-.1c.1-.1.1-.2 0-.2l-2.6-1.5.1-.1c.1.1.2 0 .2-.1l2.2-3.7c0-.1.1-.1-.1-.2l.1-.1 2.6 1.5c.1 0 .1 0 .2-.2h.1l-.8 1.4h-.1c.1-.2.1-.2 0-.3l-1.7-1-.4.7 1 .6c.1.1.2 0 .3-.1h.1l-.8 1.3zM47.8 88.9c.2 0 .3 0 .3-.1l2.4-2.5-.7-.7s-.1 0-.3.1h-.1l1.1-1.2h.1c-.1.2-.1.2-.1.3l2.1 2.1s.1 0 .3-.1l.1.1-1.2 1.1c.1-.2.2-.2.1-.3l-.8-.7-2.4 2.5c-.1.1-.1.1 0 .2l-.1.1-.8-.9zM51.2 93.7c.2.1.2.1.3 0l3.2-1.4-.4-.9c0-.1-.1-.1-.3 0v-.1l1.5-.7v.1c-.2.1-.2.1-.2.2l1.2 2.7c0 .1.1.1.3 0v.1l-1.5.7v-.1c.2-.1.2-.2.2-.2l-.5-1-3.2 1.4c-.1 0-.1.1-.1.2h-.1l-.4-1zM54.8 100.1c-.1 0-.1.1 0 .2l-.1.1-.7-1 .1-.1c.1.1.2.1.2 0l1.4-1-.9-1.3-1.4 1c-.1 0-.1.1 0 .2l-.1.1-.7-1 .1-.1c.1.1.2.1.2 0l3.5-2.5c.1 0 .1-.1 0-.2l.1-.1.7 1-.1.1c-.1-.1-.2-.1-.2 0l-1.2.9.9 1.3 1.2-.9c.1 0 .1-.1 0-.2l.1-.1.7 1-.1.1c-.1-.1-.2-.1-.2 0l-3.5 2.5zM59 101.5c0-.1 0-.2-.1-.3l-.9-.7-.5.7 1.6 1.1c.1 0 .1 0 .3-.2h.1l-.9 1.3h-.1c.1-.1.1-.2 0-.2l-2.4-1.8.1-.1c.1.1.2 0 .2 0l2.5-3.5c0-.1.1-.1 0-.2l.1-.1 2.4 1.8c.1 0 .1 0 .2-.1h.1l-1 1.3h-.1c.1-.2.1-.2.1-.3l-1.6-1.1-.5.6.9.7c.1.1.2 0 .3-.1h.1l-.9 1.2zM61.1 104.2c0 .1 0 .1.1.2v.1l-1.2-.4v-.1c.2 0 .2 0 .2-.1l1.3-4.1c0-.1 0-.1-.1-.2v-.1l2.1.7c.8.3 1.1.9.7 1.9-.3.8-.7 1.1-1.3 1.2l.2 1.7c0 .1 0 .2.1.2v.1l-1.2-.4v-.1c.1 0 .1 0 .2-.1 0-.1-.2-1.5-.2-1.7l-.6-.2-.3 1.4zm.8-2.4l1 .3c.3.1.5-.1.6-.3.1-.3.1-.5-.3-.6l-1-.3-.3.9zM67.6 103.9c-.1-.1-.1-.2-.2-.2l-1.1-.1-.1.9 1.9.1c.1 0 .1 0 .1-.3h.1l-.1 1.6h-.1c0-.2 0-.2-.1-.2l-3-.2v-.1c.1 0 .2-.1.2-.2l.3-4.3c0-.1 0-.2-.2-.2v-.1l3 .2c.1 0 .1 0 .1-.3h.1l-.1 1.6h-.1c0-.2 0-.3-.1-.3l-1.9-.1-.1.8 1.1.1c.1 0 .2-.1.2-.2h.1v1.5zM70.8 100.8c0-.1-.1-.1-.2-.1v-.1l2.2-.7c.6-.2 1.2 0 1.5.9.2.5 0 .9-.3 1.1.4 0 .8.3 1 .9.2.7.1 1.4-.8 1.7l-2.2.7v-.1c.1-.1.1-.1.1-.2l-1.3-4.1zm1.4 1.2l.8-.2c.5-.1.6-.2.5-.6-.1-.4-.3-.4-.7-.2l-.8.2.2.8zm.6 2l1-.3c.4-.1.5-.3.4-.7-.1-.4-.3-.5-.7-.4l-1 .3.3 1.1zM78.2 100.9c-.1-.1-.2-.1-.3-.1l-1 .5.4.8 1.7-.9c.1 0 .1-.1 0-.3h.1l.7 1.4h-.1c-.1-.1-.1-.2-.2-.1l-2.7 1.4-.1-.1c.1-.1.1-.1.1-.2l-2-3.9c0-.1-.1-.1-.2-.1l-.1-.1 2.7-1.4c.1 0 .1-.1 0-.3h.1l.7 1.4h-.1c-.1-.2-.2-.2-.2-.2l-1.7 1.1.4.7 1-.5c.1-.1.1-.2.1-.3h.1l.6 1.2zM76.5 84.9l2 .5c.1 0 .1 0 .2-.2h.1l-.4 1.6h-.1v-.3l-3.1-.8v-.1c.2 0 .2 0 .2-.1l1-4.2c0-.1 0-.1-.1-.2v-.1l1.2.3v.1c-.1 0-.2 0-.2.1l-.8 3.4zM79.3 86.9v-.1c.1 0 .2 0 .2-.1l1.6-4c0-.1 0-.1-.1-.2v-.1l1.1.5v.1c-.1 0-.2 0-.2.1l-1.6 4c0 .1 0 .1.1.2v.1l-1.1-.5zM85.3 87.1l-.7-.2c-.1 0-.1 0-.1.2h-.1l.3-1.3h.1v.2l1.7.5v.1c-.1 0-.1 0-.1.1l-.4 1.4v.30000000000000004c-.6.3-1.3.4-2.1.2-1-.3-1.7-1.3-1.2-2.9.4-1.6 1.6-2.2 2.5-1.9.4.1.5.2.9.5.2.1.3.3.4.4 0 0 .1 0 .1-.1l.1.1-.7 1-.1-.1v-.1c0-.2-.5-.6-.9-.7-.6-.1-1.2.2-1.4 1.1-.3 1 .2 1.6.7 1.7.3.1.6.1.9 0l.1-.5zM91.2 89.3c0 .1 0 .1.2.2v.1l-1.2-.1v-.1c.2 0 .2-.1.2-.2l.1-1.7-1.6-.1-.1 1.7c0 .1 0 .1.2.2v.1l-1.2-.1v-.1c.2 0 .2-.1.2-.2l.3-4.3c0-.1 0-.1-.2-.2v-.1l1.2.1v.1c-.1 0-.2.1-.2.2l-.1 1.5 1.6.1.1-1.5c0-.1 0-.2-.2-.2v-.1l1.2.1v.1c-.2 0-.2.1-.2.2l-.3 4.3zM94.3 89.2v-.1c.1 0 .2-.1.1-.2l-.5-3.4-1 .2c-.1 0-.1.1-.1.3h-.1l-.3-1.6h.1c.1.2.1.2.2.2l2.9-.5c.1 0 .1-.1.1-.3h.1l.3 1.6h-.1l-.1-.2-1 .2.5 3.4c0 .1 0 .1.2.1v.1l-1.3.2zM33.5 101.1l-.1.1c-.2-.1-.3-.1-.5 0l-3.8 3.9 1.4 1.4c.3.3.4.3.6.2l.2.2-1.2 1.2-.1-.1c.1-.2 0-.3-.2-.6l-4.1-3.9c-.3-.3-.4-.3-.6-.2l-.2-.2 1.2-1.2.2.2c-.2.2-.1.3.2.6l1.4 1.4 3.8-3.9c.2-.2.2-.3 0-.5l.1-.1 1.7 1.5zM24.9 96.6l2.2-1.6c.2-.1.2-.3 0-.6l.2-.1 1.5 2.1-.2.1c-.2-.3-.3-.3-.5-.2l-5 3.5c-.2.1-.2.2 0 .6l-.2.1-1.4-2.1.2-.1c.2.3.3.3.5.2l1.9-1.3-2.1-2.9-1.9 1.3c-.2.1-.2.3 0 .6l-.2.1-1.5-2.1.2-.1c.2.3.3.3.5.2l5-3.5c.2-.1.2-.3 0-.6l.2-.1 1.5 2.1-.2.1c-.2-.3-.3-.3-.5-.2l-2.2 1.6 2 2.9zM21.3 86.8l-1.6-3.5c-.2-.4-.2-.5-.5-.4l-.1-.2 1.5-.7.1.2c-.2.1-.2.3 0 .6l2.5 5.5-.2.1c-.2-.4-.3-.4-.5-.3l-5.5 2.4c-.2.1-.3.2-.1.7l-.2.1-2.4-5.3c-.2-.4-.2-.5-.5-.4l-.1-.2 1.5-.7.1.2c-.1.1-.1.3 0 .6l1.5 3.3 1.6-.7-.9-2c-.2-.3-.3-.5-.5-.4l-.1-.2 1.5-.7.1.2c-.1.1-.1.3 0 .6l.9 1.9 1.9-.7zM10.5 68.6h.2c.1.3.1.4.4.4l4-.1c.9 0 1.5-.7 1.5-1.9s-.7-1.8-1.6-1.8l-4 .1c-.2 0-.3.1-.3.4h-.2l-.1-2.4h.2c.1.3.1.4.4.4l4-.1c1.6-.1 2.7.9 2.8 3.4.1 2.5-.9 3.5-2.6 3.6l-4 .1c-.2 0-.3.1-.3.5h-.2l-.2-2.6zM17.6 60.9h-.2c0-.3-.1-.4-.3-.4l-6-.9c-.2 0-.3 0-.4.3h-.2l.4-2.7h.2c0 .2 0 .3.1.3.2 0 4.3-2.2 4.9-2.3l-4.2-.7c-.2 0-.3 0-.4.3h-.2l.4-2.2h.2c0 .3.1.4.3.4l6 .9c.3 0 .3 0 .4-.2h.2l-.5 2.3h-.2c0-.2 0-.3-.1-.3-.2 0-4 2.2-5.3 2.6l4.6.7c.2 0 .3 0 .4-.3h.2l-.3 2.2zM19.5 51.2l-.2-.1c.1-.5.1-.6-.2-.6l-5.8-1.9c-.2-.1-.3 0-.5.4h-.1l.9-2.7.2.1c-.1.5-.1.6.2.6l5.8 1.9c.2.1.3 0 .5-.4l.2.1-1 2.6zM22 44.6l-.2-.1c.1-.2.1-.4 0-.5-.1-.1-4.7-.2-6.5-.4-.3 0-.6 0-.7.1l-.2-.1 1-2.1.2.1c-.1.3-.1.4.1.4.2.1 3.6.2 5.2.4-1.2-1.3-3.4-3.8-3.6-3.9-.1 0-.1 0-.3.3l-.2-.1 1-2 .2.1c-.1.3.1.4.3.7 1.6 1.8 4.1 4.6 4.4 4.7.1.1.2 0 .3-.2l.2.1-1.2 2.5zM25.7 36.1l2.3-3.1c.2-.3.3-.4.1-.6l.1-.2 1.3 1-.1.2c-.2-.1-.3 0-.5.3l-3.6 4.8-.2-.1c.2-.4.2-.5 0-.6l-4.8-3.7c-.2-.1-.3-.1-.6.3l-.1-.1 3.5-4.7c.2-.3.3-.4.1-.6l.1-.2 1.3 1-.1.2c-.2-.1-.3 0-.5.3l-2.2 2.9 1.4 1.1 1.3-1.7c.2-.3.3-.4.1-.6l.1-.2 1.3 1-.1.2c-.2-.1-.3 0-.5.3l-1.3 1.7 1.6 1.1zM31 31.4l-.1-.1c.2-.2.2-.3 0-.5l-4.1-4.5c-.2-.2-.3-.2-.5 0l-.1-.1 3.1-2.8c1.4-1.2 2.7-1.4 3.5-.5.7.8.7 1.7 0 2.8l2.3.7c.7.2.9.3 1.2.1l.1.1-1.8 1.6-.2-.2c.1-.1.2-.3.1-.4 0-.1-.1-.1-.4-.2l-2.5-.7-1.1 1 1.6 1.8c.2.2.3.2.5 0l.1.1-1.7 1.8zm-1.2-4.4l1.4-1.3c.8-.7.8-1.2.4-1.7-.4-.4-1-.4-1.7.3l-1.4 1.3 1.3 1.4zM37.9 23l.2-.1v.1c.2.4 1.6 0 2.4-.5 1.3-.8 1.5-1.4 1.2-2-.8-1.3-4.8 2.3-6.1.1-.6-.9-.2-2.3 1.6-3.4.8-.5 1.4-.7 1.9-.8.5-.1.8-.1.9-.2.2-.1.2-.2.2-.3h.1v2.1h-.2s-.1-.1-.1-.2c-.2-.3-1-.3-2.2.4-.8.5-.9 1-.7 1.4.7 1.2 4.7-2.4 6.2 0 .6 1 .1 2.5-2.1 3.9-.7.4-1.3.6-1.8.8-.5.1-.8.1-1 .3-.1 0-.1.2-.1.3h-.2l-.2-1.9zM46.3 20.8l-.1-.2c.4-.2.5-.3.4-.5l-2.3-5.6c-.1-.2-.2-.3-.7-.1l-.1-.2 2.6-1 .1.2c-.4.2-.5.3-.4.5l2.3 5.6c.1.2.2.3.7.1l.1.2-2.6 1zM53.1 18.4v-.2c.2-.1.3-.2.2-.4l-1.3-5.4-2 .5c-.4.1-.5.2-.5.4l-.2.1-.4-1.7.2-.1c.1.2.2.2.6.1l5.5-1.4c.4-.1.5-.2.5-.4l.3.1.4 1.6-.2.1c-.1-.3-.3-.3-.6-.2l-2 .5 1.3 5.3c.1.2.2.3.5.2v.2l-2.3.7zM64.2 16.6l-2.5.2v-.2c.3-.1.4-.2.4-.4l-.1-2.4-2.8-3.5c-.1-.1-.2-.2-.4-.3v-.2l2.6-.2v.2c-.3 0-.4.1-.4.2s1.2 1.5 1.9 2.3c.4-.8 1.5-2.3 1.5-2.6 0-.1-.1-.2-.4-.2v-.2l2.5-.2v.2c-.2.1-.3.1-.4.3l-2.3 3.9.2 2.4c0 .2.1.3.4.3l-.2.4zM84 12.3c2.4.8 3.3 2.8 2.6 4.8-.7 1.9-2.6 3-5 2.2-2.4-.8-3.3-2.8-2.6-4.8.6-1.9 2.5-3 5-2.2zm-2 5.9c1.4.5 2.5-.1 3-1.6s0-2.7-1.4-3.1c-1.4-.5-2.5.1-3 1.6-.6 1.5-.1 2.6 1.4 3.1zM86.9 21.3l.1-.2c.4.2.5.2.6 0l2.9-5.3c.1-.2.1-.3-.3-.6l.1-.2 5.1 2.8c.3.2.4.2.6 0l.2.1-.8 1.4-.2-.1c.1-.2 0-.3-.3-.5l-3.2-1.7-.9 1.5 2 1.1c.3.2.5.2.6 0l.2.1-.8 1.4-.2-.1c0-.2 0-.3-.4-.5l-2-1.1-1.2 2.2c-.1.2-.1.3.3.6l-.1.2-2.3-1.1zM110.7 32.7l-2 .2-.1-.2s.1 0 .1-.1c.4-.3.2-1.2-.4-1.9-1-1.2-2.2-1.5-3.6-.3-1.1.9-1.2 2.4-.3 3.5.6.7 1.5 1 1.9.7 0 0 .1-.2.2-.2l.2.1-.2 2h-.2c0-.1 0-.2-.1-.3-.3-.3-1.3-.1-2.7-1.7-1.6-1.9-1.3-4.1.2-5.4 1.9-1.6 4.2-.8 5.6.8.5.6.7 1.1.8 1.5.1.4.1.7.2.8l.3.2.1.3zM106.4 38.1l.2-.1c.1.2.3.2.5.2l6.3-.7c.3 0 .4 0 .5-.1.1 0 .1-.1 0-.4l.2-.1 1.3 2.4-.2.1c-.1-.2-.3-.3-.4-.2-.1 0-.1.1-.4.4l-3.8 4.8c-.2.2-.2.3-.1.5l-.2.1-1.1-2 .2-.1c.1.2.2.2.3.2.1 0 .1-.1.2-.2l.8-1.1-1.5-2.6-1.2.1c-.1 0-.2 0-.2.1-.1.1-.2.2 0 .4l-.2.1-1.2-1.8zm4.9 3l2-2.3-3 .4 1 1.9zM117.2 44.7c.2-.1.3-.2.2-.6l.2-.1.9 2.6-.2.1c-.2-.4-.3-.5-.5-.4l-5.2 1.8 1.2 3.5c.1.4.2.5.5.4l.1.2-1.6.6-.1-.2c.2-.1.2-.3 0-.6l-1.9-5.5.2-.1c.2.3.3.4.5.3l5.7-2zM113.3 54.2h.2c.1.5.2.5.5.5l5.9-1.2c.2 0 .3-.1.2-.6h.2l.5 2.7h-.2c-.1-.5-.2-.5-.5-.5l-5.9 1.2c-.2 0-.3.1-.2.6h-.2l-.5-2.7zM114.2 59h.2c.1.4.2.5.4.5l6-.4c.2 0 .3-.1.3-.6h.2l.4 5.8c0 .3.1.5.3.5v.2l-1.6.1v-.2c.2-.1.2-.2.2-.5l-.3-3.6-1.8.1.2 2.3c0 .4.1.5.3.5v.2l-1.6.1v-.2c.2-.1.2-.2.2-.6l-.2-2.3-2.5.2c-.2 0-.3.1-.3.6h-.2l-.2-2.7zM121.3 71.9c-.3 2.5-2.1 3.8-4.1 3.5-2-.3-3.5-1.9-3.1-4.4.3-2.5 2.1-3.8 4.1-3.5 2 .3 3.4 1.9 3.1 4.4zm-6.1-.7c-.2 1.5.6 2.4 2.2 2.6 1.6.2 2.6-.5 2.8-2 .2-1.5-.6-2.4-2.2-2.6-1.6-.2-2.6.5-2.8 2zM113.1 77.2l.2.1c-.1.3 0 .4.2.5l5.7 2c.2.1.3 0 .5-.3l.2.1-1.4 3.9c-.6 1.7-1.7 2.5-2.8 2.1-1-.3-1.5-1.2-1.3-2.4l-2.4.6c-.7.1-.9.2-1.1.5l-.2-.1.8-2.3.2.1c0 .2-.1.3.1.4.1 0 .1 0 .5-.1l2.5-.6.5-1.4-2.3-.8c-.2-.1-.3 0-.5.3l-.2-.1.8-2.5zm3.2 3.3l-.6 1.8c-.3 1-.1 1.5.4 1.7.6.2 1-.1 1.4-1.1l.6-1.8-1.8-.6zM109.8 86.3l.2.1c-.1.3-.1.4.1.5l5.2 3c.2.1.3.1.5-.1l.2.1-1.4 2.4-.2-.1c.1-.2.1-.3 0-.3-.2-.1-4.8.6-5.4.4l3.7 2.1c.2.1.3.1.5-.1l.2.1-1.1 2-.2-.1c.1-.3.1-.4-.1-.5l-5.3-3c-.2-.1-.3-.1-.5.1l-.2-.1 1.2-2.1.2.1c-.1.2-.1.3 0 .4.2.1 4.6-.6 5.9-.5l-4.1-2.3c-.2-.1-.3-.1-.5.1l-.2-.1 1.3-2.1zM104.5 94.6l.1.1c-.3.4-.3.5-.1.7l4.7 3.8c.2.1.3.1.6-.2l.1.1-1.8 2.2-.1-.1c.3-.4.3-.5.1-.7l-4.7-3.8c-.2-.1-.3-.1-.6.2l-.1-.1 1.8-2.2zM101.7 98.1l.1.1c-.2.2-.1.4 0 .5l2.2 5.9c.1.2.1.4.2.4.1.1.1.1.4-.1l.1.1-2 1.9-.1-.1c.2-.2.2-.3.1-.4l-.5-.3-5.6-2.5c-.2-.1-.3-.1-.5 0l-.1-.1 1.7-1.5.1.1c-.1.2-.2.2-.1.3 0 0 .1.1.2.1l1.2.5 2.2-2-.4-1.1c0-.1-.1-.2-.1-.2-.1-.1-.2-.1-.4.1l-.1-.1 1.4-1.6zm-1.7 5.4l2.8 1.3-1.2-2.8-1.6 1.5z"/><circle fill="#00467F" cx="15.4" cy="76.2" r="1.1"/><path fill="#00467F" d="M36 107.2c-.6 0-1.1.5-1.1 1.1 0 .6.5 1.1 1.1 1.1.6 0 1.1-.5 1.1-1.1 0-.6-.5-1.1-1.1-1.1zM49.5 114.9c-.6 0-1.1.5-1.1 1.1 0 .6.5 1.1 1.1 1.1.6 0 1.1-.5 1.1-1.1 0-.6-.5-1.1-1.1-1.1zM82.2 114.4c-.6 0-1.1.5-1.1 1.1 0 .6.5 1.1 1.1 1.1.6 0 1.1-.5 1.1-1.1 0-.6-.5-1.1-1.1-1.1zM93.7 107.8c-.6 0-1.1.5-1.1 1.1 0 .6.5 1.1 1.1 1.1.6 0 1.1-.5 1.1-1.1.1-.7-.4-1.1-1.1-1.1z"/><circle fill="#00467F" enable-background="new" cx="99.6" cy="25.1" r="1.1"/><circle fill="#00467F" cx="73.3" cy="13.6" r="1.1"/><g fill="#00467F"><path d="M51.7 81.9h1.5c.2 0 1.3.1 1.8.2.2 0 .4.6.1.6-1.6-.1-1 0-2.6-.2-1.5-.1-.8-.6-.8-.6zM57.6 82.2c.4-.1 4.9.6 5.2.9 0 0 .2.1.1.4-.3.5-1.1-.4-4.2-.5-.7-.1-1.7 0-1.6-.5 0-.1.3-.3.5-.3z"/></g><path fill="#00467F" d="M48.4 46.8c-.2.2-.2.8-.3 1 0 .1-.6 0-.6-.1 0 0 .2-1.2.3-1.5h1.2c.1-.2-.3-1.4-.3-1.4-.2.1-.4 1.5-.4 1.5h-.5s.4-2.6.8-2.6c.1 0 .4-.1.5.1.1.3 1.1 3.6 1.1 3.9-.2.1-.7.3-.7 0 0 0 0-.7-.2-.9-.2-.1-.7-.2-.9 0z"/><g fill="#00467F"><path d="M51.8 56.4c-.1.4-1.1.2-1.8.2-1.7 0-3.5.2-3.5-.2-.1-.7 2-.4 2.8-.4 1.2 0 2.7-.3 2.5.4zM54.3 56.3c-.2.3-.7.3-1.3.2-.2 0-.3 0-.4-.2 0-.4.6-.4 1.4-.4.3.1.4.2.3.4zM57.5 56.5c-.2.1-2 .3-2.1-.1-.1-.4.7-.5 1.5-.4.9-.1.8.4.6.5zM63.6 57.7c-.2.2-2.2-.8-3.1-1-.7-.2-1.2 0-1.7-.1-.4-.1-.2-.5.2-.6 1.1-.3 5 1.3 4.6 1.7z"/></g><g fill="#00467F"><path d="M50.7 59.5c-.1.4-1.1.2-1.8.2-1.6 0-2.4 0-2.4-.5 0-.4.9-.1 1.7-.1 1.2 0 2.7-.3 2.5.4zM55 59.5c-.1.4-1.1.2-1.8.2-1.6 0-1.7 0-1.7-.2-.1-.3.2-.4 1-.4 1.2 0 2.7-.2 2.5.4zM57.9 59.6c-.2.3-.7.1-1.4.1-.2 0-.3 0-.4-.2 0-.4.7-.4 1.5-.4.2 0 .4.3.3.5zM63.7 60.9c-.1.5-1-.4-2-.6-.7-.2-2.1-.3-2.7-.3-.4-.1-.4-.5 0-.5 2-.4 4.8.9 4.7 1.4z"/></g><g fill="#00467F"><path d="M63.9 64.1c0 .7-1.4-.2-2.3-.3-.7-.1-1.9-.2-2.9-.1-.4 0-.4-.6 0-.6.9-.2 5.2.5 5.2 1zM57.2 63.3c-.2.3-.9.2-1.5.2-.2 0-.4-.1-.4-.3 0-.4.4-.4 1.2-.4.8-.1.8.3.7.5zM51.2 63.1c-.2.3-1.3.2-1.9.1-1.6-.3-3 .5-3-.2 0-.5 1.6-.4 2.4-.4 1.2 0 2.9-.2 2.5.5zM54.2 63.1c-.2.4-.7.3-1.3.3-.2 0-.4 0-.4-.2 0-.5.7-.5 1.5-.5.1.1.3.2.2.4z"/></g><g fill="#00467F"><path d="M55.7 42.6c.1.4-1.1.2-2 .3-1.7.2-1.8.4-1.7 0 .4-.7 3.7-.9 3.7-.3zM56.6 42.9c-.1-.1-.2-.2 0-.4.7-.5 1.7-.1 1.9.1.2.3-.1.5-.3.5-.2-.1-1.3 0-1.6-.2zM63.4 44.6c-.2.2-1.4-.6-2-.9-1-.3-2-.3-2-.8 0-1 4.9.8 4 1.7z"/></g><g fill="#00467F"><path d="M55.3 49.7c-.1.2-1 0-1.7.1-.8 0-1.3.2-1.4-.3 0-.4.8-.3 1.6-.3.9 0 1.8-.1 1.5.5zM56.2 49.8c-.3-.1-.2-.3 0-.5.8-.1 1.8 0 2 0 .3.1.2.5-.1.5-1.7 0-1.5.1-1.9 0zM63.4 51.3l-1.7-.5c-.7-.2-1-.2-1.2-.4-.3-.1-.1-.5 0-.6.2 0 3.7.9 2.9 1.5zM60 49.8c-.1.6-.6.3-.9.3-.2-.1-.2-.3-.1-.4.2-.3.9-.1 1 .1z"/></g><g fill="#00467F"><path d="M53.3 46.4c.2.5-.7.5-.9.5-.1-.1-.2-.3-.1-.4.2-.3.9-.3 1-.1zM54.6 46.7c-.1-.1-.2-.3 0-.5.7-.3 2.6-.1 2.8 0 .5.3.2.6 0 .6-1.1-.2-2.5 0-2.8-.1zM61.8 47.5c-.2.2-1.5-.3-2.2-.4-.7-.1-1.2-.2-1.2-.4 0-.5 1.1-.4 2.1-.2.9.2 1.8.5 1.3 1zM63.5 47.9c-.1.6-.6.3-.8.2-.1-.1-.3-.4-.1-.5.2-.3 1 .1.9.3z"/></g><g fill="#00467F"><path d="M46.8 52.3c1-.2 1.7 1 .2.8-.5-.1-.6-.2-.6-.4.1-.1.1-.3.4-.4zM54.1 52.8c-.1.4-2.3.3-2.9.3-1.7 0-2.3 0-2.4-.3 0-.4.9-.4 1.7-.4.8 0 3.8-.3 3.6.4zM57.6 53c-.1.2-.3.1-1 .1s-1.2 0-1.3-.3c0-.4.7-.4 1.5-.4.9.1 1 .4.8.6zM61.7 53.8c-.5.4-.8-.2-1.6-.4-.7-.1-1.3-.1-1.9-.2-.4-.2-.2-.6.1-.7 2.1 0 3.9.9 3.4 1.3zM63.3 54.5c-.1.4-.4.5-.8.2-.1-.1-.3-.4-.2-.5.2-.3.9-.1 1 .3z"/></g><g fill="#00467F"><path d="M63.2 67.3c-.2.5-1.7-.3-2.8-.3h-1.3c-.4-.1-.4-.6 0-.6 1.3-.2 4.4.3 4.1.9zM56 66.6c-.2.3-.6.2-1.3.1-.2 0-1.1.3-1.4 0-.1-.5 1.1-.6 1.6-.5.9-.1 1.2.2 1.1.4zM51.6 66.6c-.2.3-2.4 0-3.1-.1-1.2 0-2 .4-2-.3.2-.4 2.3-.2 2.8-.2 1.1.1 2.6 0 2.3.6zM58.2 66.3c.2.5-.7.5-.9.5-.1-.1-.2-.3-.1-.4.2-.3.8-.2 1-.1z"/></g><g fill="#00467F"><path d="M71.1 42.8c1 0 1.1.2 1 .6-.1.2-1.3.1-1.6.1-1.2 0-1.7.7-2.1.6-.5-.1-.2-.5.3-.8.4-.2 1.3-.5 2.4-.5zM73.6 42.7s1.4.1 1.6.2c.4.2.3.5.2.6-.1.1-2-.1-2-.2-.1-.1-.2-.1-.2-.3-.1-.2 0-.3.4-.3zM85.6 42.9c.4.1.5.7.2.8-1.4.2-1.7.1-1.7-.1-.5-.8 1.4-.7 1.5-.7zM80.5 43.2s1.6 0 2 .1c.2 0 .4.3.1.6-.1.2-2.2.2-2.4-.5 0 .1 0-.2.3-.2zM76.9 43.1s1.4.1 1.8.2c.2 0 .5.3.3.5-.1.2-2.2.2-2.4-.5.1 0 0-.2.3-.2z"/></g><g fill="#00467F"><path d="M73.3 46.5c.2-.4 1.4-.3 1.7-.1 0 0 .1.2-.1.4-.7.3-1.7 0-1.6-.3zM76.8 46.7c.4-.3 1.9 0 1.4.6-.1.1-1.1.2-1.5 0-.1-.1-.3-.3.1-.6zM81.8 46.9c.5.7-1.3.6-1.5.6-.2 0-.6-.1-.7-.3 0-.6 1.8-.7 2.2-.3zM85.7 46.6c.3.9-1.2.7-1.4.7-.2 0-.6 0-.7-.3-.1-.5 1.9-1 2.1-.4zM71.1 45.8c.4 0 1.2 0 1.2.4-.3.5-1.8.4-2.2.5-1.4.2-1.7.7-2.1.6-.5-.1-.2-.5.3-.8.5-.1 1.8-.6 2.8-.7z"/></g><g fill="#00467F"><path d="M77.7 49.9c.1.3-.1.4-.1.4-.1.2-1.5.1-1.7-.4 0-.1 0-.5.4-.4.4.2 1.4-.2 1.4.4zM79.2 49.7c.1 0 2.5 0 1.9.7-.1.1-.3.2-.5.2-.6 0-1.6-.1-1.8-.2-.1-.1-.1-.3 0-.5.1-.1.2-.2.4-.2zM82.5 49.7c1.8.3 3.1-.2 3.2.2.2.4 0 .5 0 .5-.2.2-3.6.3-3.7-.3 0-.3.3-.4.5-.4zM74.6 49.6c.4.6-.9.5-1 .5-.2 0-.5-.1-.5-.3-.1-.6 1.2-.7 1.5-.2zM70.6 49.1c.4 0 .9-.2 1.2.3-.3.6-1.1.3-2.2.5-1.4.2-1.4.6-1.7.3-.3-.3 0-.5.5-.7.5-.2 1.2-.3 2.2-.4z"/></g><g fill="#00467F"><path d="M72.5 52.7c.2 0 .6.1.9.3.2.2.1.4 0 .5-1.7.2-1.6-.2-1.6-.2-.2-.7.5-.7.7-.6zM85.7 52.9c.8.4-.5.8-1.4.6-.1 0-.2-.1-.3-.2-.1-.5 1.4-.5 1.7-.4zM76.1 52.7c.4.1.4.7 0 .8-.1 0-1.7.3-1.8-.2 0-1 1.6-.7 1.8-.6zM83.4 53.1c.1.5-.4.5-.8.4-.6 0-2.3.2-2.2-.3.1-.3.7-.2 1-.2.5-.2 1.9-.2 2 .1zM79.2 53.5c-.2.4-1.9.2-1.6-.4.1-.2 1.8-.5 1.6.4zM69.7 52.4c.4 0 1.1 0 1.2.5-.5.4-1.1.1-2.2.4-1 .2-1.2.4-1.2-.1 0-.4 1.2-.8 2.2-.8z"/></g><g fill="#00467F"><path d="M72.2 56s1.4-.2 1.8.1c.1.1.4.3.2.6-.2.2-2.2.2-2.2-.4 0 0-.1-.2.2-.3zM75.6 56.3c.5-.2 2.1.2 1.4.8-.1.1-1.3 0-1.6-.3-.1-.1-.2-.3.2-.5zM78.7 56.4c.4-.1 1.8.2 1.2.7-.1.1-1 .2-1.3-.1-.1-.1-.3-.5.1-.6zM82.6 56.6c-.5.1-1.2.2-1.2.5.1.3.4.2 1.4.2.5 0 2 .2 2.4.1.4-.1.4-.5.3-.5-.9 0-1.6-.4-2.9-.3zM69.9 56c.4 0 1.1-.2 1.1.4-.4.5-1 .3-2.1.6-1 .2-1.2.4-1.2-.2-.1-.4 1.2-.8 2.2-.8z"/></g><path fill="#00467F" d="M72.6 60.1h.8c.4 0 .2.5.2.6 0 .1-.7.2-1.2.1-.2 0-.7-.1-.7-.5.1-.3.6-.2.9-.2zM75.3 60.1c.1 0 2.3 0 1.7.6-.1.1-.3.2-.4.2-.6 0-1.5-.1-1.7-.2-.1-.1-.1-.2 0-.4.1-.1.2-.2.4-.2zM78.7 60.2c.4-.2 1.8.4 1.3.8-.1 0-1.2 0-1.5-.3-.1 0-.3-.3.2-.5zM81.7 60.5c.1 0 2.5 0 1.9.7-.1.1-.3.2-.5.2-.6 0-1.6-.1-1.8-.2-.1-.1-.1-.3 0-.5 0-.1.2-.2.4-.2zM69.7 59.9c.5 0 1.2-.2 1.2.4-.4.5-.8.3-1.9.5-1 .2-1.2.4-1.2-.2.1-.4.9-.6 1.9-.7zM84.7 60.7c.4-.1 1.8.2 1.2.7-.1.1-1 .2-1.3-.1-.1-.1-.3-.5.1-.6zM76.7 63.9c.1 0 2.3 0 1.7.6-.1.1-.3.2-.4.2-.6 0-1.5-.1-1.7-.2-.1-.1-.1-.2 0-.4.1-.1.3-.2.4-.2zM80.3 64.2c.7-.1 1.9.1 1.8.7-.1.4-.5.1-.7.1-.5 0-2 .2-1.8-.4 0-.3.5-.3.7-.4zM83 65c0 .4 1.7.9 1.7.3-.1-.3-1.6-1.2-1.7-.3zM74.9 63.8s-1.2-.3-1.7-.2c-.1 0-.3.3-.2.5.1.2 2 .4 2-.1.1.1.1-.1-.1-.2zM70.4 63.6c.4 0 1.9 0 1.9.6-.2.5-1.4 0-2.9.2-1 .1-1.2.4-1.2-.2 0-.4 1.2-.6 2.2-.6zM74 67.1c.5-.2 2.2.2 1.5.8-.1.1-1.4 0-1.8-.2 0-.1-.1-.4.3-.6zM77.5 67.6c.4-.1 1.8.2 1.2.7-.1.1-1.1 0-1.4-.2-.1-.2-.2-.4.2-.5zM81.7 68.2c.4.7-1.1.5-1.3.5-.2 0-.5-.1-.5-.4.1-.6 1.6-.5 1.8-.1zM82.7 68.7c0 .4 1 .7 1 .1-.1-.2-.9-.9-1-.1zM68.5 67.3c.1 0 4-.6 3.9.1 0 .1.2.3-2 .4-.5 0-2.1.3-2.3.2-.1-.1-.3-.4.4-.7zM72.8 73.7s1.4-.1 1.8.2c.1.1.4.3.2.6-.1.2-2.2.2-2.1-.4-.1-.1-.2-.3.1-.4zM76.7 74.2c.1 0 2.3.1 1.7.7-.1.1-.3.2-.4.2-.6 0-1.5-.1-1.6-.3-.1-.1-.1-.2 0-.4 0-.2.1-.2.3-.2zM80.6 75.3c-.6-.1-1.5-.4-1.3-.7.2-.3.8.1 1 .1 1.2-.2 1.4.8.3.6zM83.8 75.6c-.6 0-1.6-.2-1.5-.6.1-.3.6 0 .8-.1 1.6-.5 1.8.7.7.7zM71.1 73.9c.1.4-.5.3-1.5.3s-1.7.8-2 .2c-.1-.2.1-.4.7-.6.5-.2 2.7-.3 2.8.1zM73.5 70.4c.1 0 1.7 0 1.3.6-.1.1-.2.2-.3.2-.4 0-1.1-.1-1.2-.2-.1-.1-.1-.2 0-.4 0-.2.1-.2.2-.2zM76 70.6c.4-.2 2.7.2 2 .9-.1 0-1.9-.1-2.2-.4-.1 0-.2-.3.2-.5zM81 71.2c.4 0 2.1.3 2 .8 0 .1-.6.1-.9 0-.9-.2-1.4-.4-2.1-.4-.3 0-.3-.3-.2-.5 0 0 1 .1 1.2.1zM71.8 70.7c.1.6-.8.3-1.9.3-1 0-1.7.7-2 .1-.1-.2.1-.4.7-.6.5-.1 3.2-.2 3.2.2zM82.6 77.6c.1 0 2.5.1 1.8.8-.1.1-.3.2-.5.2-.6 0-1.6-.2-1.8-.3-.1-.1-.1-.3 0-.5.1-.1.3-.2.5-.2zM80.9 78.1c-.2.4-1.9.1-1.6-.5.1-.2 1.9-.4 1.6.5zM76.6 77.1c.1 0 2.3.1 1.7.7-.1.1-.3.2-.4.2-.6 0-1.5-.2-1.6-.3-.1-.1-.1-.2 0-.4 0-.2.2-.2.3-.2zM74.5 76.9c.4.7-.9.5-1 .4-.2 0-.5-.1-.5-.3-.1-.5 1.2-.6 1.5-.1zM70 76.7c.4 0 1.2-.2 1.1.4-.3.5-1 .3-2.1.6-1 .2-1.2.4-1.2-.2 0-.5 1.1-.8 2.2-.8zM68.3 80.1s1.2-.4 1.8-.2c.2 0 .3.2.2.5-.5 0-1.8.2-2 .4-.1 0-.3-.5 0-.7z"/><g fill="#00467F"><path d="M53.9 69.6c.6-.1 2.1.6.5.7-.1 0-1 0-1.1-.1-.6-.5.4-.6.6-.6zM52.1 70c0 .3-1.7.3-3 .2-1.6-.1-2.6.1-2.6-.4.1-.6 1.6-.2 2.4-.2 1.2.1 3.2-.4 3.2.4zM61.3 70.5c-.1.6-2.4-.2-3.5-.2-.8 0-1.4-.1-1.5-.1-.4-.1-.4-.6 0-.6.8-.1 5 .5 5 .9zM63.4 71.8c-.2.3-.5 0-1-.2-.2-.1-.5-.2-.4-.5.3-.4.8-.1 1 .1.4.2.5.4.4.6z"/></g><g fill="#00467F"><path d="M59.2 77.2c0 .5-2.5-.2-3.5-.3h-2.1c-.4-.1-.4-.6 0-.7 1.2-.1 5.7.3 5.6 1zM52.2 76.7c0 .3-1.6.2-3 .1-2.5 0-2.7-.1-2.6-.5.2-.6 1.6-.4 2.4-.4 1.1.1 3.2 0 3.2.8zM63.5 78.5c-.2.3-1-.3-1.7-.4-.2 0-1-.1-.9-.4 0-.4.6-.4 1.4-.2.8.2 1.4.7 1.2 1z"/></g><g fill="#00467F"><path d="M61.2 74.1c-.2.8-1.1-.1-3.5-.2-.8 0-1.4-.1-1.5-.1-.4-.1-.4-.6 0-.6 1.2-.3 5.1.3 5 .9zM54.1 72.9c.6-.1 2.1.6.5.7-.1 0-1 0-1.1-.1-.6-.5.4-.6.6-.6zM52.1 73.2c0 .6-2.7.2-3.3.2-1.6-.1-2.2.2-2.3-.5.1-.6 1.6-.2 2.4-.2 1.2 0 3.2-.3 3.2.5zM62.7 74.4c.6.2 1.6 1.5.1.9-.1 0-.9-.4-.9-.6-.3-.7.7-.3.8-.3z"/></g><g fill="#00467F"><path d="M63.2 86.3c.1 0 .4 0 .2.4-.2.3-4.4-.4-4.6-.4-.4-.1-.4-.2-.4-.5.1-.2.4-.2.5-.2.1 0 4.2.6 4.3.7zM56.9 85.8c-.2.2-2 .3-1.9-.2 0-.5.5-.2 1.3-.2s.8.2.6.4z"/></g><path fill="#00467F" d="M70.3 85.7c.4 0 .7-.3.7.3-.1.4-.6.2-1.7.5-1 .2-1.3.5-1.1-.1-.1-.2 1.1-.6 2.1-.7zM70.3 82.7c.4 0 .8-.2.8.4-.2.3-.8.1-1.9.4-1 .2-1.2.5-1.1 0-.1-.4 1.2-.8 2.2-.8zM46.7 43.1s-.1.3-.1.8v4.7h.1c-.1-.1-.1-3-.1-3v-1.8c.1-.4.1-.7.1-.7.9-.2 3.4-.5 4-.2.2.1.2.9.2 1.9 0 1.5-.1 3.4-.2 3.6-.1.1-.9.2-1.9.3.9 0 1.8-.1 1.9-.3.1-.2.2-2.1.2-3.6 0-1-.1-1.8-.2-1.9-.6-.3-3.1 0-4 .2zm0 0zm.1 5.6c.3.1 1.2.1 2.1 0h-2.1zM46.7 42.8c-.3.1-.4.2-.3 2.7v3.2c.1.5.6.5 1.2.4l.9-.1h.9c1.6 0 1.9 0 2.1-.4v-1l-.1-2c.1-2.8-.2-2.9-.4-3-.9-.4-3.7 0-4.3.2zm3.9.4v2.4000000000000004l.1 2.1v.5c-.3 0-1.4.1-1.4.1h-.9l-.9.1h-.6c.1 0 .1-.8.1-1.1v-3.9c1.1-.2 3.1-.4 3.6-.2zM125.5 62.1c-.5-3.2-.6-5.9-.7-8.1-.1-2.3-.1-3.9-.6-4.9v.1l-4.8-11.8c-1-3.5-9.3-13.2-9.8-13.7-1-1.5-6.6-5.8-8.2-6.6-.1 0-6.2-4.3-6.2-4.3-2.5-1.8-6.7-3.5-10.1-4.5l-4-1.4c-5-1.7-12.7-1.9-13.8-1.8h-2.8c-.9-.1-8.7.1-13.4 1.9l-2.9 1c-3.7 1-7.1 2.1-9.7 3.9 0 0-6.9 4.9-7.2 5.1-1.6.8-8.9 6.1-9.8 7.5l.1-.1c-.4.5-7.9 9.4-8.9 12.9l-4.9 11.9v-.1c-.5 1-.4 3-.5 5.2-.1 2.2-.3 4.6-.8 7.8-.4 2.5-.1 4.8.2 7.5.3 2.7.4 5.9.9 8.3.4 2 1 3.8 1.1 5.1.7 3.2 2.3 7.5 3.1 8.6.6.9 1.7 2.5 1.7 2.5 1 1.3 2.1 2.9 2.9 4.1.7 1.1 1 1.9 1.5 2.9.8 1.4 1.5 2.6 2.3 3.8.8 1.1 1.7 2.1 2.9 3.1.3.2 2.9 2 4.2 2.8 1.5 1 2 1.3 2.3 1.6l.9.9c2.5 2.6 4.4 4.5 6.1 5.5.6.4 2.3.8 2.8.8s1-.1 1.4-.3c.7-.4 1.1-1.1 1.4-2.1 0-.1.4-.9.7-1.7.6.1 1.2.8 1.8 1.3l-.3 1.2c-.3 1-.1 2 .6 2.9 2.7 3.5 12.8 4.9 21.6 4.6 9.1.3 20.5-2.4 22-5.9.3-.7.2-1.3-.4-1.9-.2-.2-.3-.4-.4-.5.1-.1.1-.2.3-.3.4-.2.9-.1 1.2-.1.4.7.8 1.4 1.2 2.2.2.3.5.5.9.6 2.6.4 11.1-7 11.2-7.1.3-.3 1.9-1.6 3.3-2.6 1.2-.8 2.3-1.5 2.6-1.8 2.3-1.9 4-4.1 5.6-6.8 1.1-2 2.4-4.2 4.4-6.9l.2-.2c1.8-2.5 4.3-7.3 4.7-10.9.1-1.3.5-3 .9-5.1.8-5 2-11 1.2-16.1zm-80.5 53.3c-.4-.4-1-.8-1.7-1 1.8-4.3 2.6-6.3 2.8-7.3v-.6000000000000001l-.3-.7c-.2-.4-.8-1.2-.8-1.8 0-.9.3-.7.7-.7.4 0 2.1.4 3.3 1 .9.4 1.6 1.3 1.9 1.7.1.2.1.5-.1.7-.2.2-.4.3-.9.5s-1.4.9-1.6 1c-1.1.4-1.8 2.2-2.8 5.4 0 .1 0 .1-.1.2-.1.3-.2.7-.3 1.1-.1.2-.1.3-.1.5zm-1-10.4c-.6-.3-1.2-.6-2-1.2-1.2-.9-4.2-3.3-5.6-4.1-.9-.5-1-1-2.1-2.2-.9-1-1.9-2-2.7-2.6-1.1-.8-3.1-3.8-3.7-4.9-2.2-3.6-5.8-10.7-6.6-17.7-.1-.9-.1-3.2-.1-5.3 0-1.8 0-3.3-.1-4 .1-1.4.5-5.2.8-6.2.3-.7.5-2.2.8-3.4.2-1 .5-2.6.7-3.1 0-.1 1-2.9 1.7-4.2l3.2-6c0-.1 1.7-3.5 2.9-4.7l1.2-1.3c1.3-1.4 2.7-2.9 4-3.9 2.1-1.6 5.3-3.8 8.1-5.1l3.9-1.9c1.4-.7 2.1-1.1 3.3-1.4.1 0 7.8-2.5 13-2.8-.5 1.1-.8 2.1-1 2.6 0 0-1.2.2-2.8.3-.9 0-3.6.5-3.6.5 1.9 2.9 3.5 4.6 4.3 5.4 0 0-.9 5.4-.9 6.1.1 0 3-1.5 3.9-2 .9-.5 2-.9 2.2-.9.1 0 2.7 1.1 3.3 1.5 1.5.9 2.5 1.4 2.8 1.5v-.1s-1.4-5.8-1.4-6.1c0 0 .7-.7 1.2-1.3.8-1 1.6-1.6 2.1-2.2.5-.6 1.5-1.7 1.5-1.8-.1 0-6.3-.8-6.6-.9 0 0-.6-1.4-1.1-2.6 1.3.1 2.1.2 3.5.4h.1c3.8.6 8 2.2 9.8 2.9 0 0 1.5.6 1.7.7.1 0 2.7 1.1 2.7 1.1 1.8.9 3.3 1.9 4 2.4l.9.7c1.9 1.3 6.1 4.1 6.8 5.2l1.1 1.4c.6.8 1 1.8 1.3 2.6.6 1.5 2 3.1 3.3 4.8.9 1.1 1.8 2.2 2.3 3.1 0 0 1.7 2.4 2.1 4.6.4 2.8 1.1 7 1.5 8.3 2 6.8 1.4 10.3.6 13.9-.2 1.1-.8 2.6-.9 3.7-.1 1.2-.3 2.6-1.1 4.2-.3.6-.9 2-1.1 2.8-.4 1.3-.8 2.6-1.5 3.6-.3.4-.8 1.2-1.6 2.4-1.7 2.8-4.4 7-6.7 9.8-.7.9-2.7 2.5-4.3 3.7-1 .8-1.8 1.5-2.2 1.9-.6.6-1.9 1.6-3 2.4l.1-.3c0-.2 0-.3-.1-.5-.1-.3-.4-.8-1.2-1-.8-.2-1.7.1-2.8.6-.8.3-1.7.8-3 1.9-.5.4-1.2 1.2-1 1.8.2.4.6.8 1.1 1.1-2.7.8-5.3 1.6-6.3 1.8-.6.1-2.8.8-4.2 1-1.6.3-3.2.5-4 .6-3.3.1-8-1.1-9-1.6-2.3-.9-5.3-2-7.2-2.5 0 0 .1 0 .1-.1.8-.3 1.3-.8 1.5-1.4.1-.3.1-.9-.5-1.5-.6-.7-1.5-1.4-2.4-1.8-.2-.1-2.3-.9-3.2-.9-.7 0-1-.1-1.3.1-.4.2-.5.6-.5 1-.3.3-.2.7 0 1.1zm22.3-79.9c-.7-.5-2.1-3.1-2.1-3.1.1-.3 2.1-4.8 2.1-4.8.2.8.1 2.4.1 4-.1 1.5-.2 3.1-.1 3.9zm-7.8-1.8c.7.2 2.7.8 2.7.8 1.5.6 2.8 1.1 4.4 1.5-.2.5-.7 1.4-.7 1.4s-3.4 5.3-3.6 5.6c0 0 1-5.4 1-5.5-.3-.3-2.3-2-3.8-3.8zm14.1 1.6c0 .2-1.3 1.7-1.3 1.7-.2 0-4-.9-4.5-1.1 0 0 1.5-2.9 2.1-3.2l5.5.6c-.4.2-2 .6-3.5 1.1l-3.2 1.2s4.4-.2 4.9-.3zm-1.3 7.8c-.4-.1-4.2-2.2-4.2-2.2-.1-.1-.7-4.1-.6-4.8l4.8 7zm16 86.2c-.9 2.2-10.4 5.8-19.8 5.5-9.9.3-19.6-1.2-21.7-3.9-.3-.4-.5-1.4-.5-1.8 0-.2 0-.4.1-.6l.5-1.6.1-.2v-.1c.9-3.1 1.9-6.6 2.7-6.8.7 0 .7-.4 4.5 1 1.4.7 8.8 2.9 10.4 3 1.2.1 5.3 0 7-.3 1.4-.2 2.5-.6 3-.7 1.3-.1 8.3-2.2 9.6-2.6 0 0 .1 0 .1.1.3.3.5 1.1.8 1.8l.2.6c.1.4.3.9.4 1.4l.1.4.4 1.1c.1.2.2.4.2.5.1.3.3.6.5.9l.3.5c.1.1.1.2.2.4l.9 1.2c.1.1.1.1 0 .2zm.3-3.1c-.2.1-.4.2-.5.3-.4-.6-.7-1.3-.9-2l-.1-.3c-.1-.3-.2-.6-.3-.8l-.2-.6-.1-.4c-.5-1.7-.9-3-1.8-3.3h-.6000000000000001c-1.1.1-2.3-.4-2.4-.8 0-.1.1-.5.2-.6 1.1-1 1.6-1.6 2.3-1.9.5-.2 1.7-.8 2.9-.5.3.1.3.5.3.5v.1c0 .4-.5 1.2-.8 1.7-.6.5-.9 1.1-.9 1.7 0 1 .7 2.1 1.8 3.7.5.8 1.2 1.8 1.9 3.1-.2-.2-.5-.1-.8.1zm35.3-38.1c-.4 2.1-.8 3.8-.9 5.2-.5 4.9-2.3 7.3-4.5 10.3l-.2.2c-2 2.7-3.3 5-4.5 7.1-1.5 2.7-2.7 4.8-4.9 6.5-.3.2-1.4 1-2.6 1.7-2.2 1.4-3.6 2.4-3.9 2.7-2.1 2-9.1 7.2-10.2 6.8-1.5-2.9-2.8-5-3.7-6.5-1.1-1.7-1.6-2.5-1.6-3.1 0-.3.2-.6.5-.8.3-.2 3.1-2.4 4.4-3.6l2.8-2c1.7-1.4 4.5-4.5 5.3-5.5 2.3-2.9 3.6-5 5.4-7.8.7-1.1 1.9-3 2.1-3.4.8-1.1 1.2-2 1.6-3.3.2-.7.7-1.6 1-2.2.8-1.7 1.1-3.8 1.3-5.1.1-1 .1-1.4.3-2.5.4-1.9 1.2-4.7 1.2-7.5 0-2.3-.4-4.1-1.3-7.2-.4-1.2-1.1-5.6-1.6-8.3-.4-2.4-2-5.5-2-5.7-.6-1-1.7-2-2.7-3.2-1.3-1.6-2.4-3.3-2.9-4.6-.4-1-1.2-1.9-1.8-2.8l-1-1.3c-.8-1.2-3.6-3.3-6.5-5.3l-1-.5c-.7-.6-2.6-1.6-4.6-2.6l-2.4-1.4-1.7-.7c-1.8-.7-6.5-2.2-8.2-2.5h-.1c-1.9-.3-3.4-.6-5.9-.7-.1-.3-.2-.6-.3-.8-.2-.5-.8-1.7-1.1-2.4-.4.3-1.1 1.7-1.8 3.2-5.3.4-12.6 2.4-13 2.5-1.3.4-2.1.8-3.5 1.5l-5.6 2.8c-3.7 1.7-5.6 3.4-6.7 4.2-1.4 1.1-2.4 1.8-3.8 3.3l-1.2 1.3c-1.3 1.4-3.8 6.2-3.8 6.3l-2.2 3.7c-.7 1.3-2.9 6.9-3 7-.2.6-.5 1.6-.7 2.8-.3 1.2-.7 2.3-.8 3-.3 4.4-.6 6.4-.6 7v.1c.1.6-.2 2.3-.2 3.6.1 2.2.1 4.4.1 5.4.4 4.1 2.8 11 5.1 14.8.1.2 1.8 3.8 6 8.7.6.7 2.2 2.1 3.1 3.1 1.1 1.2 1.5 1.8 2.5 2.4l3.8 2.5c1.4 1 2.8 2 4.2 2.8 0 .1 0 .2-.1.4v.1l-.2.6-.1.2c-.1.2-.2.5-.3.8 0 0 0 .1-.1.1-.1.3-.2.6-.4.9l-.1.3c-.1.3-.2.6-.4.9l-.2.5c-.1.2-.2.4-.2.6-.1.1-.1.3-.2.5l-.2.4c-.2.5-.4.9-.5 1.3 0 0 0 .1-.1.1l-.1.1c-.6 1.4-.8 1.8-.8 2-.2.7-.4 1.1-.8 1.4-.5.3-1 .5-2 .1-1.4-.5-2.5-1.7-3.8-2.9l-3-2.9-1.5-1.3c-.3-.3-1.2-1-3.4-2.4l-1.5-.9c-.5-.4-1.7-1.6-1.8-1.7-2.2-1.7-2.6-3-4.1-5.7-1.1-2-2.8-5-3.3-5.6l-1.3-1.7c-2.2-3-3.9-5.3-4.5-10.3-.1-1.3-.6-2.5-1.1-4.6-.2-.9-.3-2.5-.5-3.6-.3-3.9-1-8.4-.3-12.3.5-3.3.5-5.4.5-7.6.1-2 .1-3.6.5-4.3l.2-.7 4.2-11.1c.5-1.6 3.8-7.1 5.1-8.9 1.3-1.8 4.7-5.5 4.7-5.5.6-1.1 6.3-5 8.1-5.9l7.3-5.1c2.4-1.7 7-3.2 10.4-4.2l2.5-1c4.7-1.6 11.7-2.2 12.6-2.1h3c1-.1 9.2.5 13.9 2.1l3 .7c3.4 1.1 7.4 2.6 9.8 4.4l7.8 5.2c-1-.5 6.6 3.7 8.1 6.4.1.1 8.4 10.6 9.3 13.8l4.3 10.5c.4.7.5 2.9.6 5 .1 2.2.5 5.2 1 8.5.8 4.9-.7 10.5-1.7 15.2z"/><g fill="#00467F"><path d="M63.1 80.5c-.1.5-2.4-.4-3.5-.5-.8 0-2.7-.1-2.8-.1-.4-.1-.6-.5-.2-.6 1.2-.2 6.6.6 6.5 1.2zM52 79.5h-2.4c-2.5 0-2.7 0-2.6-.3.2-.6 1.6-.2 2.4-.3 1.2.1 2.6-.2 2.6.6zM53.5 79.4c.2-.2 1.7-.3 1.6.2 0 .4-.2.3-1 .2-.9 0-.8-.2-.6-.4z"/></g><g fill="#00467F"><path d="M66.1 2.9c-.7 0-1.2-.6-1.2-1.2 0-.7.5-1.2 1.2-1.2s1.2.6 1.2 1.2c0 .7-.5 1.2-1.2 1.2zM61.8 3c-.7 0-1.2-.5-1.3-1.1 0-.7.4-1.2 1.1-1.3.7 0 1.2.5 1.3 1.1.1.7-.4 1.3-1.1 1.3zM57.5 3.4c-.7.1-1.3-.4-1.3-1-.1-.7.4-1.3 1-1.3.7-.1 1.3.4 1.3 1 .2.6-.3 1.2-1 1.3zM53.3 4.1c-.7.1-1.3-.3-1.4-.9-.1-.7.3-1.3.9-1.4.7-.1 1.3.3 1.4.9.2.7-.3 1.3-.9 1.4zM49.1 5.1c-.7.2-1.3-.2-1.5-.8-.2-.6.2-1.3.8-1.5.6-.2 1.3.2 1.5.8.2.7-.2 1.3-.8 1.5zM44.9 6.4c-.6.2-1.3-.1-1.5-.7-.2-.6.1-1.3.7-1.5.6-.2 1.3.1 1.5.7.3.6 0 1.3-.7 1.5zM40.9 8c-.6.3-1.3 0-1.6-.6-.3-.6 0-1.3.6-1.6.6-.3 1.3 0 1.6.6.3.6 0 1.3-.6 1.6zM37 9.8c-.6.3-1.3.1-1.6-.5-.3-.6-.1-1.3.5-1.6.6-.3 1.3-.1 1.6.5.3.6.1 1.3-.5 1.6zM33.3 11.9c-.6.4-1.3.2-1.6-.4-.3-.6-.2-1.3.4-1.6.6-.3 1.3-.2 1.6.4.3.5.1 1.3-.4 1.6zM29.6 14.3c-.5.4-1.3.3-1.7-.3-.4-.5-.3-1.3.3-1.7.6-.4 1.3-.3 1.7.3.4.6.3 1.3-.3 1.7zM26.2 16.9c-.5.4-1.3.3-1.7-.2-.4-.5-.4-1.3.2-1.7.5-.4 1.3-.3 1.7.2.4.5.3 1.3-.2 1.7zM22.9 19.7c-.5.5-1.2.4-1.7-.1s-.4-1.2.1-1.7 1.2-.4 1.7.1c.4.5.4 1.3-.1 1.7zM19.9 22.8c-.5.5-1.2.5-1.7.1-.5-.5-.5-1.2-.1-1.7.5-.5 1.2-.5 1.7-.1.5.5.5 1.2.1 1.7zM17 26.1c-.4.5-1.2.6-1.7.2-.5-.4-.6-1.2-.2-1.7.4-.5 1.2-.6 1.7-.2.6.4.6 1.1.2 1.7zM14.4 29.5c-.4.5-1.1.7-1.7.3-.5-.4-.7-1.1-.3-1.7.4-.6 1.1-.7 1.7-.3.6.4.7 1.1.3 1.7zM12.1 33.1c-.3.6-1.1.7-1.6.4-.6-.3-.8-1.1-.4-1.6.4-.6 1.1-.7 1.7-.4.4.3.6 1 .3 1.6zM10 36.9c-.3.6-1 .8-1.6.5-.6-.3-.8-1-.5-1.6.3-.6 1-.8 1.6-.5.5.2.8 1 .5 1.6zM8.1 40.8c-.3.6-1 .9-1.6.6-.6-.3-.9-.9-.6-1.6.3-.6 1-.9 1.6-.6.6.2.9.9.6 1.6zM6.5 44.8c-.2.6-.9.9-1.5.7-.6-.2-1-.9-.7-1.5.2-.6.9-1 1.5-.7.6.2 1 .8.7 1.5zM5.3 48.9c-.2.6-.8 1-1.5.8-.6-.2-1-.8-.8-1.5.2-.7.8-1 1.5-.8.6.2.9.8.8 1.5zM4.3 53.1c-.1.7-.8 1.1-1.4.9-.7-.1-1.1-.7-.9-1.4 0-.6.7-1 1.3-.9.7.1 1.1.7 1 1.4zM3.5 57.4c-.1.7-.7 1.1-1.3 1-.7-.1-1.1-.7-1-1.3.1-.7.7-1.1 1.3-1 .7 0 1.1.6 1 1.3zM3.1 61.7c0 .7-.6 1.2-1.3 1.1-.7 0-1.2-.6-1.1-1.3 0-.7.6-1.2 1.3-1.1.7 0 1.2.6 1.1 1.3zM3 66c0 .7-.5 1.2-1.2 1.2s-1.2-.5-1.2-1.2.5-1.2 1.2-1.2 1.2.5 1.2 1.2zM3.2 70.3c0 .7-.4 1.2-1.1 1.3-.7.1-1.2-.4-1.3-1.1 0-.7.4-1.2 1.1-1.3.7-.1 1.2.4 1.3 1.1zM3.7 74.6c.1.7-.4 1.3-1 1.4-.7.1-1.3-.3-1.4-1-.1-.7.4-1.3 1-1.4.7-.1 1.3.3 1.4 1zM4.4 78.8c.1.7-.3 1.3-.9 1.4-.7.1-1.3-.3-1.4-.9-.2-.6.3-1.3.9-1.4.7-.1 1.3.3 1.4.9zM5.5 83c.2.6-.2 1.3-.8 1.5-.6.2-1.3-.2-1.5-.8-.2-.7.2-1.3.8-1.5.6-.2 1.3.2 1.5.8zM6.8 87.1c.2.6-.1 1.3-.7 1.5-.6.2-1.3-.1-1.5-.7-.2-.6.1-1.3.7-1.5.6-.2 1.3.1 1.5.7zM8.5 91.1c.3.6 0 1.3-.6 1.6-.6.3-1.3 0-1.6-.6-.3-.6 0-1.3.6-1.6.6-.3 1.3 0 1.6.6zM10.4 95c.3.6.1 1.3-.5 1.6-.6.3-1.3.1-1.6-.5-.3-.6-.1-1.3.5-1.6.5-.3 1.2-.1 1.6.5zM12.5 98.7c.4.6.2 1.3-.4 1.7-.6.4-1.3.2-1.7-.4-.4-.6-.2-1.3.4-1.7.6-.3 1.4-.1 1.7.4zM14.9 102.3c.4.5.3 1.3-.3 1.7-.5.4-1.3.3-1.7-.3-.4-.5-.3-1.3.3-1.7.6-.4 1.3-.2 1.7.3zM17.6 105.7c.4.5.4 1.3-.2 1.7-.5.4-1.3.4-1.7-.1-.4-.5-.4-1.3.2-1.7.5-.5 1.3-.4 1.7.1zM20.5 108.9c.5.5.4 1.2 0 1.7-.5.5-1.2.5-1.7 0s-.4-1.2 0-1.7c.5-.5 1.2-.5 1.7 0zM23.6 111.9c.5.5.5 1.2.1 1.7s-1.2.5-1.7.1c-.5-.5-.5-1.2-.1-1.7s1.2-.5 1.7-.1zM26.9 114.7c.5.4.6 1.2.2 1.7-.4.5-1.2.6-1.7.2-.5-.4-.6-1.2-.2-1.7.4-.5 1.1-.6 1.7-.2zM30.4 117.3c.6.4.7 1.1.3 1.7-.4.5-1.1.7-1.7.3-.6-.4-.7-1.1-.3-1.7.4-.5 1.1-.7 1.7-.3zM34 119.6c.6.3.8 1.1.4 1.6-.3.6-1.1.8-1.6.4-.6-.3-.8-1.1-.4-1.6.3-.6 1-.7 1.6-.4zM37.8 121.6c.6.3.8 1 .5 1.6-.3.6-1 .8-1.6.5-.6-.3-.8-1-.5-1.6.3-.5 1-.8 1.6-.5zM41.7 123.4c.6.3.9.9.6 1.6-.3.6-.9.9-1.6.7-.6-.3-.9-1-.7-1.6.4-.6 1.1-.9 1.7-.7zM45.8 125c.6.2 1 .9.8 1.5-.2.6-.9 1-1.5.8-.6-.2-1-.9-.8-1.5.1-.7.8-1.1 1.5-.8zM49.9 126.2c.7.2 1 .8.9 1.5-.2.6-.8 1-1.5.9-.7-.2-1-.8-.9-1.5.2-.7.9-1.1 1.5-.9zM54.1 127.1c.7.1 1.1.7 1 1.4-.1.7-.7 1.1-1.4 1-.7-.1-1.1-.7-1-1.4.2-.7.8-1.1 1.4-1zM58.4 127.8c.7.1 1.1.7 1 1.3-.1.7-.7 1.1-1.3 1.1-.7-.1-1.1-.7-1.1-1.3.1-.8.7-1.2 1.4-1.1zM62.7 128.1c.7 0 1.2.6 1.1 1.2 0 .7-.6 1.2-1.2 1.2-.7 0-1.2-.6-1.1-1.3 0-.6.5-1.1 1.2-1.1zM67 128.2c.7 0 1.2.5 1.2 1.2s-.5 1.2-1.2 1.2-1.2-.5-1.2-1.2.6-1.2 1.2-1.2zM71.3 127.9c.7-.1 1.2.4 1.3 1.1.1.7-.4 1.2-1.1 1.3-.7.1-1.2-.4-1.3-1.1 0-.6.5-1.2 1.1-1.3zM75.6 127.4c.7-.1 1.3.3 1.4 1 .1.7-.3 1.3-1 1.4-.7.1-1.3-.3-1.4-1-.1-.7.3-1.3 1-1.4zM79.9 126.6c.7-.2 1.3.2 1.4.9.1.6-.2 1.3-.9 1.4-.7.2-1.3-.3-1.4-.9-.2-.6.2-1.3.9-1.4zM84 125.4c.6-.2 1.3.2 1.5.8.2.6-.1 1.3-.8 1.5-.6.2-1.3-.2-1.5-.8-.2-.6.2-1.3.8-1.5zM88.1 124c.6-.2 1.3.1 1.5.7.2.6-.1 1.3-.7 1.5-.6.2-1.3-.1-1.6-.7-.1-.5.2-1.2.8-1.5zM92 122.4c.6-.3 1.3 0 1.6.6.3.6 0 1.3-.6 1.6-.6.3-1.3 0-1.6-.6-.2-.6 0-1.3.6-1.6zM95.9 120.4c.6-.3 1.3-.1 1.6.5.3.6.1 1.3-.5 1.6-.6.3-1.3.1-1.6-.5-.3-.6-.1-1.3.5-1.6zM99.6 118.2c.6-.4 1.3-.2 1.7.4.4.6.2 1.3-.4 1.7-.6.4-1.3.2-1.7-.4-.3-.6-.1-1.3.4-1.7zM103.2 115.7c.5-.4 1.3-.3 1.7.2.4.5.3 1.3-.2 1.7-.5.4-1.3.3-1.7-.2-.5-.5-.4-1.3.2-1.7zM106.5 113c.5-.4 1.2-.4 1.7.1.4.5.4 1.3-.1 1.7-.5.4-1.3.4-1.7-.1-.5-.5-.4-1.2.1-1.7zM109.7 110.1c.5-.5 1.2-.5 1.7 0s.5 1.2 0 1.7-1.2.5-1.7 0-.5-1.2 0-1.7zM112.7 107c.4-.5 1.2-.5 1.7-.1s.6 1.2.1 1.7c-.4.5-1.2.5-1.7.1-.5-.5-.6-1.2-.1-1.7zM115.4 103.6c.4-.5 1.1-.6 1.7-.2.5.4.6 1.1.2 1.7-.4.5-1.2.6-1.7.2-.5-.4-.6-1.2-.2-1.7zM117.9 100.1c.4-.6 1.1-.7 1.7-.3.6.4.7 1.1.3 1.7-.4.6-1.1.7-1.7.3-.5-.4-.6-1.2-.3-1.7zM120.2 96.4c.3-.6 1.1-.8 1.6-.5.6.3.8 1 .5 1.6-.3.6-1.1.8-1.6.4-.7-.2-.9-.9-.5-1.5zM122.2 92.6c.3-.6 1-.8 1.6-.6.6.3.9 1 .6 1.6-.3.6-1 .9-1.6.6-.7-.3-.9-1-.6-1.6zM123.9 88.6c.3-.6.9-.9 1.6-.7.6.2.9.9.7 1.6-.3.6-.9.9-1.6.7-.6-.2-.9-.9-.7-1.6zM125.4 84.6c.2-.6.9-1 1.5-.8.6.2 1 .9.8 1.5-.2.6-.9 1-1.5.8-.7-.2-1-.9-.8-1.5zM126.5 80.4c.2-.7.8-1 1.4-.9.6.2 1 .8.9 1.4-.2.7-.8 1-1.5.9-.5-.1-.9-.7-.8-1.4zM127.4 76.2c.1-.7.7-1.1 1.4-1 .7.1 1.1.7 1 1.4-.1.7-.7 1.1-1.4 1-.7-.1-1.1-.7-1-1.4zM128 71.9c.1-.7.6-1.1 1.3-1.1.7.1 1.1.6 1.1 1.3-.1.7-.7 1.1-1.3 1.1-.7-.1-1.2-.6-1.1-1.3zM128.3 67.6c0-.7.6-1.2 1.2-1.2.7 0 1.2.6 1.2 1.2 0 .7-.6 1.2-1.2 1.2-.7 0-1.2-.5-1.2-1.2zM128.3 63.3c0-.7.5-1.2 1.1-1.2.7 0 1.2.5 1.2 1.1 0 .7-.5 1.2-1.2 1.2-.6 0-1.1-.5-1.1-1.1zM128 59c-.1-.7.4-1.2 1.1-1.3.7-.1 1.2.4 1.3 1.1.1.7-.4 1.3-1.1 1.3-.7 0-1.3-.5-1.3-1.1zM127.4 54.7c-.1-.7.3-1.3 1-1.4.7-.1 1.3.3 1.4 1 .1.7-.3 1.3-1 1.4-.7.1-1.3-.4-1.4-1zM126.5 50.5c-.2-.7.2-1.3.9-1.4.6-.2 1.3.2 1.5.9.2.7-.2 1.3-.9 1.5-.7 0-1.3-.4-1.5-1zM125.3 46.3c-.2-.6.1-1.3.8-1.5.6-.2 1.3.1 1.5.8.2.6-.1 1.3-.8 1.5-.6.2-1.3-.1-1.5-.8zM123.8 42.3c-.3-.6 0-1.3.7-1.6.6-.2 1.3 0 1.6.7.3.6 0 1.3-.7 1.6-.6.2-1.3-.1-1.6-.7zM122.1 38.3c-.3-.6 0-1.3.6-1.6.6-.3 1.3-.1 1.6.5.3.6 0 1.3-.6 1.6-.6.3-1.3.1-1.6-.5zM120.1 34.5c-.3-.6-.1-1.3.4-1.6.6-.3 1.3-.1 1.6.4.3.6.1 1.3-.4 1.6-.6.4-1.3.2-1.6-.4zM117.8 30.8c-.4-.6-.2-1.3.3-1.7.6-.4 1.3-.2 1.7.3.4.6.2 1.3-.3 1.7-.6.4-1.3.3-1.7-.3zM115.3 27.3c-.4-.5-.3-1.3.2-1.7.5-.4 1.3-.3 1.7.2.4.5.3 1.3-.2 1.7-.6.4-1.3.3-1.7-.2zM112.5 24c-.4-.5-.4-1.2.1-1.7.5-.4 1.2-.4 1.7.1.4.5.4 1.3-.1 1.7-.5.4-1.2.4-1.7-.1zM109.6 20.8c-.5-.5-.5-1.2 0-1.7s1.2-.5 1.7 0 .5 1.2 0 1.7-1.3.5-1.7 0zM106.4 17.9c-.5-.4-.6-1.2-.1-1.7.4-.5 1.2-.6 1.7-.1.5.4.6 1.2.1 1.7s-1.2.6-1.7.1zM103 15.2c-.5-.4-.6-1.1-.2-1.7.4-.5 1.1-.7 1.7-.3.5.4.6 1.2.2 1.7-.4.6-1.2.7-1.7.3zM99.5 12.8c-.6-.4-.7-1.1-.4-1.6.4-.6 1.1-.7 1.7-.4.6.4.7 1.1.4 1.7-.4.5-1.2.6-1.7.3zM95.7 10.6c-.6-.3-.8-1-.5-1.6.3-.6 1-.8 1.6-.5.6.3.8 1 .5 1.6-.3.6-1 .8-1.6.5zM91.9 8.6c-.6-.3-.9-1-.6-1.6.3-.6 1-.9 1.6-.6.6.3.9 1 .6 1.6-.3.6-1 .9-1.6.6zM87.9 7c-.6-.3-.9-1-.7-1.6.2-.6.9-.9 1.5-.7.6.2.9.9.7 1.6-.2.6-.9.9-1.5.7zM83.8 5.6c-.6-.2-1-.8-.8-1.5.2-.6.8-1 1.5-.8.6.2 1 .9.8 1.5-.2.6-.8 1-1.5.8zM79.7 4.5c-.7-.2-1-.8-.9-1.4.1-.7.8-1.1 1.4-.9.7.1 1.1.8.9 1.4-.1.6-.8 1-1.4.9zM75.4 3.6c-.7-.1-1.1-.7-1-1.4.1-.7.7-1.1 1.4-1 .7.1 1.1.7 1 1.4-.1.7-.7 1.1-1.4 1zM71.1 3.1c-.6 0-1.1-.6-1.1-1.3.1-.7.6-1.2 1.3-1.1.7.1 1.2.7 1.1 1.3 0 .7-.6 1.2-1.3 1.1z"/></g>
</svg>
